<svg xmlns="http://www.w3.org/2000/svg" xmlns:xlink="http://www.w3.org/1999/xlink" viewBox="0 0 354.94 354.94"><defs><clipPath id="clip-path" transform="translate(0.5 0.5)"><path d="M115.26,353.65l-8.86-18.17-20.56,5.89-.32-1.13L63.79,264.69l1-.52,1.54,1.89.53.67,20.62,71.76,17.89-5.12L80.79,283l.89-.67c.77.7,1.55,1.39,2.33,2.07l.09.08,23.53,48.23,51.6-14.79.11,0c1,.13,2.1.25,3.1.35l.1,1.11-53.87,15.45,8.17,16.75L184,318.83h.11c1-.05,2.13-.12,3.13-.19l.29,1.08-71.74,35Zm148.86-64.49,1.59-1.3,1-.77,71.84-20.59-5.14-17.91L283,273.15l-.67-.89c.69-.78,1.38-1.55,2.06-2.34l.08-.09,48.23-23.53-14.79-51.58,0-.12c.13-1,.25-2.1.36-3.1l1.11-.1,15.44,53.86,16.75-8.17L318.83,170v-.12c-.06-1-.12-2.08-.19-3.13l1.07-.29,35,71.75-1.05.51-18.17,8.86,5.89,20.56-76.72,22ZM-.75,115.79l1-.52,18.18-8.87L12.56,85.84l76.7-22,.52,1c-.83.67-1.65,1.33-2.46,2l-.09.07L15.42,87.44l5.14,17.92L71,80.8l.67.9c-.71.75-1.4,1.53-2.06,2.31l-.07.1L21.25,107.64,36,159.24l0,.11c-.13,1-.25,2.1-.36,3.1l-1.11.1L19.11,108.68,2.36,116.85,35.1,184l0,.39c.06,1,.11,1.94.19,2.85l-1.08.3Zm289.85-26c-.64-.83-1.28-1.64-2-2.45l-.07-.09L266.49,15.43l-17.91,5.14L273.14,71l-.89.67c-.77-.7-1.55-1.38-2.34-2.06l-.09-.08L246.3,21.25l-51.59,14.8-.12,0-3.1-.36-.1-1.1,53.87-15.45L237.09,2.37,169.94,35.11h-.11c-1,.05-2.12.12-3.11.2l-.3-1.08,71.74-35,.51,1.05,8.86,18.17,20.56-5.89.32,1.12L290.09,89.3Zm51.56,177.9-5.87-20.47,18.6-9.07.54-.26-34.74-71.24c.08,1.05.14,2.09.2,3.14l32.94,67.54-17.87,8.72-15.63-54.51c-.11,1-.23,2.07-.36,3.11l14.89,51.93L284.8,270.29c-.68.79-1.37,1.57-2.07,2.35l51-24.86,5.48,19.11L266.94,287.6c-.81.66-1.63,1.31-2.46,2l75.59-21.72ZM289.55,89.46,267.87,13.85l-.17-.58-20.47,5.87L238.16.54,237.9,0,166.67,34.75c1-.08,2.09-.15,3.13-.2L237.35,1.61l8.72,17.87L191.55,35.11l3.11.36,51.94-14.9,23.68,48.57c.79.68,1.58,1.37,2.35,2.07l-24.86-51,19.11-5.48L287.59,87C288.26,87.81,288.91,88.63,289.55,89.46ZM115.77,353.4l.26.54,71.23-34.74c-1,.07-2.09.14-3.14.19l-67.54,32.95-8.72-17.87,54.52-15.64c-1-.1-2.07-.22-3.11-.35l-51.94,14.89L83.64,284.81c-.79-.69-1.57-1.38-2.34-2.08l24.86,51-19.09,5.46L66.33,267c-.66-.82-1.31-1.64-2-2.47l21.74,75.56.16.58,20.47-5.87ZM1.6,116.59l17.87-8.72,15.6,54.52c.11-1,.23-2.08.36-3.11L20.57,107.34,69.13,83.65q1-1.19,2.07-2.34l-51,24.86L14.72,87.05,87,66.34c.81-.67,1.63-1.33,2.46-2L13.26,86.23l5.87,20.47L.53,115.77,0,116l34.74,71.23c-.08-1-.14-2.09-.2-3.14Zm175.27,200.5A140.1,140.1,0,0,1,177,36.9a140.1,140.1,0,0,1-.16,280.19Zm.3-278.24a138.14,138.14,0,0,0-56.39,264.3,136.66,136.66,0,0,0,56,11.94,138.4,138.4,0,0,0,126.39-81.94c31-69.57-.43-151.38-70-182.36A136.66,136.66,0,0,0,177.17,38.85ZM49.53,120.23A139.48,139.48,0,1,1,46.73,227,139.49,139.49,0,0,1,49.53,120.23ZM303.67,233.38c31.1-69.86-.43-152-70.29-183.11s-152,.42-183.12,70.29.43,152,70.29,183.11S272.56,303.25,303.67,233.38Zm-126.78,81A137.45,137.45,0,0,1,177,39.51a137.45,137.45,0,0,1-.15,274.9Zm.27-272.11A134.94,134.94,0,0,0,53.93,122.23c-30.19,67.86.43,147.63,68.25,177.82a133.29,133.29,0,0,0,54.55,11.63A134.71,134.71,0,0,0,231.75,54,133.33,133.33,0,0,0,177.16,42.3Zm-125.22,79A136.86,136.86,0,1,1,49.2,226,136.85,136.85,0,0,1,51.94,121.31ZM300.52,232c30.34-68.13-.41-148.23-68.54-178.57S83.74,53.83,53.41,122,53.82,270.24,122,300.57,270.19,300.11,300.52,232Zm13.07-55c0-75.33-61.29-136.62-136.62-136.62S40.35,101.64,40.35,177,101.64,313.59,177,313.59,313.59,252.3,313.59,177ZM177,40.92A136,136,0,1,1,40.92,177,136,136,0,0,1,177,40.92ZM271.2,92l7.1-6.71-4.49-4.74L272.25,82l2.92,3.09-5.53,5.22Zm6.29-6.73-6.27,5.93-.78-.83L276,85.09,273.05,82l.74-.7ZM268.84,85a3.51,3.51,0,0,1-2.25-1,3.33,3.33,0,0,1-1.1-2.47,3.76,3.76,0,0,1,1.19-2.63,4.56,4.56,0,0,1,1.81-1.25,3,3,0,0,1,1-.16,3.46,3.46,0,0,1,.84.11,3.64,3.64,0,0,1,1.59.91A3.39,3.39,0,0,1,273,81a3.93,3.93,0,0,1-1.26,2.68A3.83,3.83,0,0,1,269,85Zm.76-5.4a2.17,2.17,0,0,0-1.29.78,2.07,2.07,0,0,0-.68,1.25,1.14,1.14,0,0,0,.35.9,1.09,1.09,0,0,0,.8.33h.12a2.1,2.1,0,0,0,1.25-.75,2.14,2.14,0,0,0,.72-1.28,1.15,1.15,0,0,0-.36-.91,1.08,1.08,0,0,0-.79-.32Zm1.74,3.66a3.19,3.19,0,0,1-2.47,1.17,2.87,2.87,0,0,1-1.89-.87,2.79,2.79,0,0,1-.92-2.06,3.18,3.18,0,0,1,1-2.23,4.08,4.08,0,0,1,1.57-1.11,2.56,2.56,0,0,1,1.5,0,3.06,3.06,0,0,1,1.35.77,2.84,2.84,0,0,1,.93,2.07A3.35,3.35,0,0,1,271.34,83.25Zm-.78-.76a2.58,2.58,0,0,0,.87-1.64,1.64,1.64,0,0,0-.53-1.34,1.61,1.61,0,0,0-1.35-.48,2.63,2.63,0,0,0-1.64.94,2.51,2.51,0,0,0-.84,1.62,1.64,1.64,0,0,0,.52,1.34,1.66,1.66,0,0,0,1.35.48A2.57,2.57,0,0,0,270.56,82.49Zm-5.92-.61,4.86-5.52-1.64-1.44-2.53,2.87a3.42,3.42,0,0,1-.81.69.54.54,0,0,1-.33.1h0a.4.4,0,0,1-.27-.12.89.89,0,0,1-.27-.43l-.21-.64-1.92,1,.13.45a2.66,2.66,0,0,0,.76,1.23,1.78,1.78,0,0,0,.7.38l0,0Zm4.06-5.46-4.11,4.66-.71-.62.62-.71a2.57,2.57,0,0,1-1.08.21,1.21,1.21,0,0,1-.65-.29,2,2,0,0,1-.58-1l.91-.49a1.62,1.62,0,0,0,.43.68,1,1,0,0,0,.61.25,1.1,1.1,0,0,0,.67-.17,3.94,3.94,0,0,0,.95-.81l2.15-2.44Zm-8.94.47a3.39,3.39,0,0,1-2.13-.79,3.24,3.24,0,0,1-1.27-2.34,4,4,0,0,1,1-2.76l.48-.57-.09-.1.53-.39a3.22,3.22,0,0,1,1.93-.66,3.46,3.46,0,0,1,2.15.83,3.39,3.39,0,0,1,1.37,2.4,3.8,3.8,0,0,1-1,2.74,4,4,0,0,1-2.51,1.6A2.77,2.77,0,0,1,259.76,76.89Zm-1.26-3.5a.76.76,0,0,0-.05.28,1.06,1.06,0,0,0,.43.86,1.11,1.11,0,0,0,.72.27h.12a1.25,1.25,0,0,0,.39-.11Zm2.95-.2a1.42,1.42,0,0,0,.12-.68,1.14,1.14,0,0,0-.46-.85,1.08,1.08,0,0,0-.63-.26h0a1.62,1.62,0,0,0-.8.27l-.07,0Zm-2.06-2-.77-.79a2.69,2.69,0,0,1,1.67-.56,2.89,2.89,0,0,1,1.72.71,2.83,2.83,0,0,1,1.16,2,3.23,3.23,0,0,1-.85,2.34,3.38,3.38,0,0,1-2.15,1.39,2.91,2.91,0,0,1-3.24-2.57,3.38,3.38,0,0,1,.88-2.36l.18-.22,3.62,2.91a2.41,2.41,0,0,0,.53-1.59,1.74,1.74,0,0,0-.67-1.24,1.65,1.65,0,0,0-1-.38A2,2,0,0,0,259.39,71.19Zm1.63,3.5-2.71-2.18a2.2,2.2,0,0,0-.43,1.17,1.6,1.6,0,0,0,.64,1.29,1.69,1.69,0,0,0,1.26.39A2,2,0,0,0,261,74.69Zm-5.53-.46,4.34-6L258.06,67l-2.24,3.07a3,3,0,0,1-.76.81.76.76,0,0,1-.48.14h0a.93.93,0,0,1-.51-.18c-.17-.12-.25-.23-.25-.33a1.23,1.23,0,0,1,.31-.67l2.72-3.73-1.78-1.29-2.46,3.38a1.42,1.42,0,0,1-.81.65l-.15,0a.89.89,0,0,1-.56-.21.53.53,0,0,1-.22-.26.25.25,0,0,1,0-.22,2.19,2.19,0,0,1,.36-.62l2.65-3.63-1.77-1.29-2.85,3.92a2.73,2.73,0,0,0-.63,2,2.42,2.42,0,0,0,1.08,1.63,2.65,2.65,0,0,0,1.61.54l.3,0a2.27,2.27,0,0,0,.12.5,2.63,2.63,0,0,0,.95,1.15,2.69,2.69,0,0,0,1.26.53l-.11.14ZM259,68.4l-3.67,5-.77-.55.52-.71a2.26,2.26,0,0,1-1.07.13,2.23,2.23,0,0,1-1.06-.42,2.17,2.17,0,0,1-.75-.91,1.58,1.58,0,0,1,0-1,2.27,2.27,0,0,1-2.2-.25,1.93,1.93,0,0,1-.85-1.26,2.17,2.17,0,0,1,.53-1.57l2.52-3.46.85.62-2.31,3.17a3.07,3.07,0,0,0-.46.8.9.9,0,0,0,0,.58,1.11,1.11,0,0,0,.41.51,1.45,1.45,0,0,0,1.14.29,1.89,1.89,0,0,0,1.18-.87l2.13-2.93.85.62-2.38,3.27a1.77,1.77,0,0,0-.41,1,1,1,0,0,0,.47.78,1.49,1.49,0,0,0,.81.3,1.4,1.4,0,0,0,.85-.23,4.05,4.05,0,0,0,.9-1l1.9-2.61Zm-16.44,0,1.21-2,1.88,1.12-1.21,2Zm1.22-2L247.58,60l1.88,1.13-3.76,6.31Zm1.09,1.34-.62,1-.91-.54.62-1Zm3.78-6.34-3.19,5.35-.91-.54,3.19-5.35Zm-10,2.09.06-.11a2.83,2.83,0,0,1-1.22-.35,3,3,0,0,1-1.28-1.26,3.13,3.13,0,0,1-.33-1.78,5,5,0,0,1,.57-1.8,4.69,4.69,0,0,1,1.27-1.53,3.12,3.12,0,0,1,1.74-.68h.23a3.11,3.11,0,0,1,1.48.36,2.48,2.48,0,0,1,.83.7l1.17-2.17,1.93,1-4.6,8.59Zm1.21-5.47a1.19,1.19,0,0,0-.44.09,2.34,2.34,0,0,0-1,1.13,2.28,2.28,0,0,0-.36,1.42.92.92,0,0,0,.47.69.78.78,0,0,0,.37.09,1.18,1.18,0,0,0,.49-.11,2.26,2.26,0,0,0,1-1.11,2.17,2.17,0,0,0,.35-1.41.92.92,0,0,0-.48-.68A.94.94,0,0,0,239.94,57.94Zm4.47-1.9-4.07,7.59-.84-.45.38-.71a2.33,2.33,0,0,1-1,.26,2.08,2.08,0,0,1-1-.28,2.43,2.43,0,0,1-1.05-1,2.59,2.59,0,0,1-.26-1.45A4.48,4.48,0,0,1,238.14,57a2.57,2.57,0,0,1,1.43-.57,2.67,2.67,0,0,1,1.41.29,2,2,0,0,1,.73.65,2.17,2.17,0,0,1,.34.82l1.43-2.67ZM241,60.41a2.75,2.75,0,0,0,.41-1.8,1.5,1.5,0,0,0-2.11-1.1A2.8,2.8,0,0,0,238,58.89a2.68,2.68,0,0,0-.41,1.81,1.48,1.48,0,0,0,.75,1.07,1.55,1.55,0,0,0,1.35,0A2.88,2.88,0,0,0,241,60.41Zm-6.52.56a3.4,3.4,0,0,1-.53,0,4.11,4.11,0,0,1-1-.33,4,4,0,0,1-1.23-.87,2.27,2.27,0,0,1-.64-1.15,2.78,2.78,0,0,1,.1-1.29l.16-.56,1.42.45a2.94,2.94,0,0,1-.25-.26,2.23,2.23,0,0,1-.52-1.08,2.17,2.17,0,0,1,.21-1.25,2.44,2.44,0,0,1,.93-1,2.55,2.55,0,0,1,1.32-.35h.1a3.93,3.93,0,0,1,1.52.39,3.53,3.53,0,0,1,1.72,1.52,2.88,2.88,0,0,1,.12,2.1l-.15.55-1.57-.46.08.09a2.07,2.07,0,0,1,.48,1.13,2.2,2.2,0,0,1-.88,2,2.21,2.21,0,0,1-1.36.44Zm-1.25-3a.57.57,0,0,0,0,.44.94.94,0,0,0,.48.39,1.49,1.49,0,0,0,.62.19c.1,0,.17,0,.18-.07s0-.08-.11-.19l-.67-.59-.44-.39Zm1.35-2.67h-.11c-.19,0-.23.13-.25.17a.11.11,0,0,0,0,.11,5.25,5.25,0,0,0,.7.64c.31.25.56.48.77.67l.08-.25a.86.86,0,0,0,0-.67,1.21,1.21,0,0,0-.6-.51A1.47,1.47,0,0,0,234.57,55.26Zm2.76,1.83-1-.31a1.45,1.45,0,0,0,0-1.07,1.75,1.75,0,0,0-.87-.79,1.69,1.69,0,0,0-1.1-.2.91.91,0,0,0-.62.48.64.64,0,0,0,0,.64,4.75,4.75,0,0,0,.82.79,10,10,0,0,1,1.23,1.15,1.54,1.54,0,0,1,.36.82,1.61,1.61,0,0,1-.66,1.47,1.72,1.72,0,0,1-.72.31,2.31,2.31,0,0,1-.74,0,3.26,3.26,0,0,1-.87-.28,3.39,3.39,0,0,1-1.07-.75,1.65,1.65,0,0,1-.49-.87,2.17,2.17,0,0,1,.08-1l1,.31a1.15,1.15,0,0,0,.05.86,1.46,1.46,0,0,0,.74.65,1.68,1.68,0,0,0,1,.23.68.68,0,0,0,.52-.37.58.58,0,0,0,0-.39.92.92,0,0,0-.25-.43l-.72-.64a12.43,12.43,0,0,1-1.2-1.12,1.62,1.62,0,0,1-.39-.8,1.56,1.56,0,0,1,.17-.92,1.71,1.71,0,0,1,.7-.76,2,2,0,0,1,1.11-.27,3.18,3.18,0,0,1,1.3.34,2.87,2.87,0,0,1,1.45,1.25A2.38,2.38,0,0,1,237.33,57.09Zm-7.32,2L231.74,55a5.9,5.9,0,0,0,.36-1,2.46,2.46,0,0,0,0-1.08,2.15,2.15,0,0,0-.58-1,3.14,3.14,0,0,0-1.06-.73,2.85,2.85,0,0,0-1.16-.25H229l.08-.18-1.91-.81-2.87,6.77,2,.85,1.52-3.59a2.76,2.76,0,0,1,.51-.87.86.86,0,0,1,.48-.22H229a1.22,1.22,0,0,1,.46.09.77.77,0,0,1,.37.3.56.56,0,0,1,.07.38,6,6,0,0,1-.34.93L228,58.21ZM228.37,51l-.36.84a2.26,2.26,0,0,1,2.23-.2,2.3,2.3,0,0,1,.86.6,1.65,1.65,0,0,1,.45.76,1.88,1.88,0,0,1,0,.85,5.41,5.41,0,0,1-.32.93l-1.51,3.55-1-.41,1.35-3.18a6.14,6.14,0,0,0,.37-1,1.08,1.08,0,0,0-.13-.77,1.32,1.32,0,0,0-.64-.53,1.76,1.76,0,0,0-.91-.12,1.34,1.34,0,0,0-.8.38,3.23,3.23,0,0,0-.64,1L226,56.76l-1-.41,2.43-5.73Zm-3.85,5.75,2.57-6.89L225,49.09l-1.33,3.55a3.31,3.31,0,0,1-.5,1,.83.83,0,0,1-.44.27l-.2,0a.87.87,0,0,1-.35-.07.47.47,0,0,1-.32-.24,1.31,1.31,0,0,1,.12-.73l1.6-4.32-2.05-.76-1.46,3.92a1.44,1.44,0,0,1-.6.84.8.8,0,0,1-.37.08,1,1,0,0,1-.36-.07.7.7,0,0,1-.29-.19.36.36,0,0,1-.07-.2,2.22,2.22,0,0,1,.18-.7l1.57-4.2-2-.76-1.68,4.53a2.75,2.75,0,0,0-.08,2.08,2.48,2.48,0,0,0,1.48,1.28,2.68,2.68,0,0,0,2,0,1.92,1.92,0,0,0,.25.44,2.57,2.57,0,0,0,1.22.86,2.77,2.77,0,0,0,1,.19l.35,0-.06.16Zm1.84-6.56L224.19,56l-.89-.33.31-.82a2.31,2.31,0,0,1-1,.42,2.23,2.23,0,0,1-1.13-.13,2,2,0,0,1-1-.66,1.54,1.54,0,0,1-.31-1,2.24,2.24,0,0,1-2.18.35,1.93,1.93,0,0,1-1.16-1,2.19,2.19,0,0,1,.09-1.65l1.49-4,1,.37-1.37,3.67a2.79,2.79,0,0,0-.22.89.88.88,0,0,0,.19.55,1.13,1.13,0,0,0,.54.38,1.4,1.4,0,0,0,1.17,0,1.89,1.89,0,0,0,.89-1.15l1.27-3.39,1,.36-1.41,3.79a1.8,1.8,0,0,0-.12,1.08,1,1,0,0,0,.67.63,1.53,1.53,0,0,0,.85.06,1.34,1.34,0,0,0,.75-.45,3.7,3.7,0,0,0,.61-1.16l1.13-3Zm-19.67,3.41,2.53-9.42,2,.54,0,.11a2.28,2.28,0,0,1,.45,0,2.94,2.94,0,0,1,.76.1,3,3,0,0,1,1.5.93,3.25,3.25,0,0,1,.77,1.64,4.46,4.46,0,0,1-.12,2,5,5,0,0,1-.84,1.76,3,3,0,0,1-2.42,1.23,3.44,3.44,0,0,1-.83-.11,2.62,2.62,0,0,1-1.05-.54l-.65,2.4Zm4.88-6.83a1,1,0,0,0-.57.2,2.14,2.14,0,0,0-.69,1.22,2.55,2.55,0,0,0,0,1.57,1,1,0,0,0,.65.58,1.18,1.18,0,0,0,.25,0h0a1,1,0,0,0,.56-.2,2.45,2.45,0,0,0,.72-1.32,2.24,2.24,0,0,0,0-1.48,1,1,0,0,0-.64-.58A1.07,1.07,0,0,0,211.57,46.76Zm-1-1.65-.21.77a1.94,1.94,0,0,1,1.93-.45,2.47,2.47,0,0,1,1.22.75,2.73,2.73,0,0,1,.64,1.37,3.84,3.84,0,0,1-.11,1.73,4.34,4.34,0,0,1-.74,1.56,2.45,2.45,0,0,1-1.2.88,2.55,2.55,0,0,1-1.45,0,2.05,2.05,0,0,1-.91-.49,2.15,2.15,0,0,1-.54-.78l-.8,3-1-.28,2.24-8.33ZM213,49a2.71,2.71,0,0,0,0-1.86,1.51,1.51,0,0,0-2.29-.64,2.61,2.61,0,0,0-.91,1.55,2.83,2.83,0,0,0,0,1.94,1.5,1.5,0,0,0,1,.9,1.45,1.45,0,0,0,1.28-.25A2.81,2.81,0,0,0,213,49ZM205.3,50.9a3.67,3.67,0,0,1-.86-.1,3.31,3.31,0,0,1-2.23-1.54,3.77,3.77,0,0,1-.36-2.88,4.64,4.64,0,0,1,.89-2,3.09,3.09,0,0,1,1.53-1,3.78,3.78,0,0,1,1.84,0,3.37,3.37,0,0,1,2.25,1.55,3.92,3.92,0,0,1,.33,3,3.79,3.79,0,0,1-1.79,2.67A3.33,3.33,0,0,1,205.3,50.9Zm.1-5.66a1.13,1.13,0,0,0-.68.24,2.25,2.25,0,0,0-.69,1.34,2.08,2.08,0,0,0,.07,1.43,1.12,1.12,0,0,0,.78.59l.28,0h0a1.12,1.12,0,0,0,.68-.23,2.1,2.1,0,0,0,.68-1.3,2.19,2.19,0,0,0-.06-1.47,1.11,1.11,0,0,0-.79-.59A.84.84,0,0,0,205.4,45.24Zm2.73,2.46a3.2,3.2,0,0,1-1.5,2.3,2.93,2.93,0,0,1-2.07.25A2.81,2.81,0,0,1,202.69,49a3.19,3.19,0,0,1-.29-2.45,4.16,4.16,0,0,1,.77-1.78,2.58,2.58,0,0,1,1.26-.81,3.05,3.05,0,0,1,1.56-.05,2.86,2.86,0,0,1,1.89,1.29A3.33,3.33,0,0,1,208.13,47.7Zm-1.06-.24a2.67,2.67,0,0,0-.11-1.87,1.74,1.74,0,0,0-1.16-.87,1.7,1.7,0,0,0-1.41.3,2.74,2.74,0,0,0-.92,1.67,2.66,2.66,0,0,0,.13,1.83,1.75,1.75,0,0,0,2.57.58A2.62,2.62,0,0,0,207.07,47.46Zm-5.75,4.95L203,42.79l-2.16-.37L199.16,52Zm1-9.16-1.46,8.5-1-.18,1.46-8.5Zm-9,5.56a4,4,0,0,1-.49,0,3.32,3.32,0,0,1-2.36-1.3,3.73,3.73,0,0,1-.64-2.81,4.63,4.63,0,0,1,.68-2.08,3.07,3.07,0,0,1,1.42-1.14,3.64,3.64,0,0,1,1.35-.26,3.55,3.55,0,0,1,.46,0,3.32,3.32,0,0,1,2.38,1.31,3.9,3.9,0,0,1,.62,2.89,3.74,3.74,0,0,1-1.51,2.82A3.38,3.38,0,0,1,193.27,48.81Zm0-5.62a1.05,1.05,0,0,0-.75.31,2.2,2.2,0,0,0-.56,1.39,2,2,0,0,0,.22,1.4,1.06,1.06,0,0,0,.82.5h.16a1.06,1.06,0,0,0,.76-.3,2.77,2.77,0,0,0,.34-2.79,1.12,1.12,0,0,0-.83-.51Zm2.83,2.16a3.17,3.17,0,0,1-1.26,2.42,2.89,2.89,0,0,1-2,.45,2.77,2.77,0,0,1-2-1.08,3.19,3.19,0,0,1-.53-2.4,4.24,4.24,0,0,1,.58-1.83,2.67,2.67,0,0,1,1.17-.93,3.07,3.07,0,0,1,1.53-.2,2.78,2.78,0,0,1,2,1.09A3.27,3.27,0,0,1,196.12,45.35Zm-1.07-.13a2.69,2.69,0,0,0-.3-1.83,1.66,1.66,0,0,0-1.23-.75,1.63,1.63,0,0,0-1.36.44,2.66,2.66,0,0,0-.74,1.74,2.55,2.55,0,0,0,.31,1.79,1.73,1.73,0,0,0,2.59.32A2.67,2.67,0,0,0,195.05,45.22Zm-5.13,3.07L190.5,41l-2.18-.17L188,44.6a3.69,3.69,0,0,1-.23,1,.53.53,0,0,1-.22.28.43.43,0,0,1-.27.07h0a1,1,0,0,1-.48-.18l-.55-.39-.92,2,.37.28a2.75,2.75,0,0,0,1.35.53h.14a1.78,1.78,0,0,0,.65-.12v0Zm0-6.81-.49,6.2-.94-.07.07-.94a2.38,2.38,0,0,1-.74.81,1.11,1.11,0,0,1-.69.16,2.12,2.12,0,0,1-1-.42l.44-.95a1.49,1.49,0,0,0,.75.29,1,1,0,0,0,.64-.16,1.07,1.07,0,0,0,.43-.54,4.19,4.19,0,0,0,.28-1.22l.25-3.24Zm-14.56,6.34a4.31,4.31,0,0,1-1.44-.23,2.37,2.37,0,0,1-1.08-.76,2.8,2.8,0,0,1-.48-1.2l-.1-.58,1.48-.21-.34-.13a2.09,2.09,0,0,1-.94-.74,2.15,2.15,0,0,1-.37-1.22,2.41,2.41,0,0,1,.39-1.31,2.57,2.57,0,0,1,1.13-.94,3.94,3.94,0,0,1,1.53-.32h0a3.51,3.51,0,0,1,2.2.61,2.87,2.87,0,0,1,1,1.83l.1.57-1.61.26.11,0a2.15,2.15,0,0,1,.93.8,2.22,2.22,0,0,1,.33,1.13,2.19,2.19,0,0,1-.25,1,2.26,2.26,0,0,1-.68.79,2.74,2.74,0,0,1-.84.4,3.69,3.69,0,0,1-1.07.16Zm-.85-2.53a.57.57,0,0,0,.21.39.93.93,0,0,0,.57.14,1.38,1.38,0,0,0,.72-.13q.09-.07.09-.12a.38.38,0,0,0-.19-.12l-.87-.24-.56-.15Zm.68-3.11a1.29,1.29,0,0,0-.73.17c-.15.13-.15.22-.15.27s0,.05.06.08a3.78,3.78,0,0,0,.9.28c.39.09.72.18,1,.26l0-.26a.89.89,0,0,0-.3-.6A1.17,1.17,0,0,0,175.16,42.18Zm2.64.54-1,.18a1.45,1.45,0,0,0-.5-1,1.69,1.69,0,0,0-1.13-.32,1.61,1.61,0,0,0-1.07.3.92.92,0,0,0-.35.7.65.65,0,0,0,.32.56,4.87,4.87,0,0,0,1.08.35,10.38,10.38,0,0,1,1.62.49,1.56,1.56,0,0,1,.68.58,1.53,1.53,0,0,1,.24.84,1.71,1.71,0,0,1-.18.77,1.82,1.82,0,0,1-.51.59,2.2,2.2,0,0,1-.67.32,3.39,3.39,0,0,1-.91.13,3.43,3.43,0,0,1-1.29-.2,1.64,1.64,0,0,1-.82-.56,2.22,2.22,0,0,1-.38-1l1-.15a1.13,1.13,0,0,0,.42.75,1.53,1.53,0,0,0,.95.26,1.8,1.8,0,0,0,1-.25.74.74,0,0,0,.3-.57.56.56,0,0,0-.13-.37,1,1,0,0,0-.41-.28l-.93-.26a13.84,13.84,0,0,1-1.57-.47,1.6,1.6,0,0,1-.7-.55,1.52,1.52,0,0,1-.26-.9,1.79,1.79,0,0,1,.3-1,1.88,1.88,0,0,1,.88-.73,3.19,3.19,0,0,1,1.31-.27,2.84,2.84,0,0,1,1.85.49A2.3,2.3,0,0,1,177.8,42.72Zm-7.92,5.17,2.18-.13.14,2.34-2.18.14Zm-.45-7.36,2.19-.13.44,7.34-2.19.13Zm1.65.47.38,6.21-1.05.06L170,41.06Zm.45,7.36.07,1.21-1,.07-.07-1.21Zm-7.74,0-1,.12-.22-1.94,1-.12-.33-3c0-.14,0-.23,0-.29l-.4.08-.54.14-.54-2,.51-.17a4.34,4.34,0,0,1,.89-.21l.39,0a1.94,1.94,0,0,1,.8.15,1.59,1.59,0,0,1,.76.66,3.63,3.63,0,0,1,.34,1.44l.33,3,.77-.09.21,1.94-.76.09.14,1.28-2,1.55ZM163.18,43h0Zm-.52-.38-.25-.9a3.1,3.1,0,0,1,.78-.18,1.79,1.79,0,0,1,.9.08,1.07,1.07,0,0,1,.49.42,3.73,3.73,0,0,1,.27,1.22l.39,3.55.76-.09.1.81-.77.09.17,1.52-1,.75-.24-2.16-1,.12-.09-.81,1-.12-.4-3.6a1.63,1.63,0,0,0-.12-.57.39.39,0,0,0-.2-.18.69.69,0,0,0-.37,0C163,42.53,162.85,42.57,162.66,42.61Zm-12.47,8a3.64,3.64,0,0,1-.48,0,2.37,2.37,0,0,1-1.08-.44,2.18,2.18,0,0,1-.62-.85,6.78,6.78,0,0,1-.29-1.06l-.28-1.37a11.54,11.54,0,0,0-.41-1.72,1.84,1.84,0,0,0-.31-.52l-.63-.73,2.37-.48.27.34a3.8,3.8,0,0,1,.52-.4,4,4,0,0,1,1.29-.51,3.54,3.54,0,0,1,.77-.08,2.56,2.56,0,0,1,1.28.32,2.25,2.25,0,0,1,1.06,1.52,2.31,2.31,0,0,1-.05,1.14,2.24,2.24,0,0,1-.55.93,2.74,2.74,0,0,1-.36.32l1.36-.09v.61a3,3,0,0,1-.3,1.39,2.59,2.59,0,0,1-1,1,4.86,4.86,0,0,1-1.52.57A5.65,5.65,0,0,1,150.19,50.56ZM150,48.1c.07.24.15.29.17.3a.77.77,0,0,0,.42.1,2.37,2.37,0,0,0,.43,0,1.37,1.37,0,0,0,.72-.3,1.11,1.11,0,0,0,.18-.66v-.11l-.62.22A13.82,13.82,0,0,0,150,48.1Zm1-3.37-.3,0a1.63,1.63,0,0,0-.75.35,1.18,1.18,0,0,0-.36.56,1.79,1.79,0,0,0,0,.44c.29-.13.62-.26,1-.4a3.27,3.27,0,0,0,.73-.32.37.37,0,0,0,.14-.16.34.34,0,0,0,0-.2.3.3,0,0,0-.18-.24A.55.55,0,0,0,151,44.73Zm-2.39,0a3.84,3.84,0,0,1,1-.91,3.43,3.43,0,0,1,1.1-.44,2.33,2.33,0,0,1,1.65.18,1.66,1.66,0,0,1,.79,1.14,1.82,1.82,0,0,1,0,.87,1.85,1.85,0,0,1-.42.7,2.57,2.57,0,0,1-.67.49,7.84,7.84,0,0,1-.89.34,9.8,9.8,0,0,0-1.77.73c0,.15,0,.24.05.27a1.15,1.15,0,0,0,.47.83,1.75,1.75,0,0,0,1.25.11,1.87,1.87,0,0,0,1-.47,1.61,1.61,0,0,0,.33-1l1-.07a2.75,2.75,0,0,1-.24,1.14,2,2,0,0,1-.79.8,4.16,4.16,0,0,1-1.34.5,3.83,3.83,0,0,1-1.31.08,1.78,1.78,0,0,1-.81-.32,1.56,1.56,0,0,1-.46-.64,5.45,5.45,0,0,1-.25-.94L148,46.69a15.06,15.06,0,0,0-.44-1.81,2.52,2.52,0,0,0-.41-.68l1.08-.22A2.37,2.37,0,0,1,148.59,44.69Zm.56,2.29a7.74,7.74,0,0,1,1.6-.73,4,4,0,0,0,.86-.39.91.91,0,0,0,.34-.42.92.92,0,0,0,.05-.52.9.9,0,0,0-.46-.63,1.38,1.38,0,0,0-1-.09,2.37,2.37,0,0,0-1,.48,1.71,1.71,0,0,0-.54.86,2.64,2.64,0,0,0,0,1.06Zm-7.52,5.72a2.66,2.66,0,0,0,1.62-1.13,2.15,2.15,0,0,0,.46.22,2.25,2.25,0,0,0,.74.12,2.92,2.92,0,0,0,.75-.1,2.81,2.81,0,0,0,1.21-.63l0,.17,2-.5-1.78-7.14-2.13.53.92,3.69a3.26,3.26,0,0,1,.14,1.1.78.78,0,0,1-.21.47,1.06,1.06,0,0,1-.47.27l-.22,0a.25.25,0,0,1-.19-.06,1.23,1.23,0,0,1-.32-.66l-1.11-4.47-2.13.53,1,4.06a1.51,1.51,0,0,1,0,1,.93.93,0,0,1-.6.43l-.19,0-.16,0a.33.33,0,0,1-.17-.13,2.23,2.23,0,0,1-.24-.68l-1.09-4.35L137.4,46l1.18,4.69a2.7,2.7,0,0,0,1.11,1.76,2.24,2.24,0,0,0,1.18.32A2.94,2.94,0,0,0,141.63,52.7Zm4.64-8.3,1.51,6-.92.23-.21-.85a2.22,2.22,0,0,1-1.58,1.44,2.1,2.1,0,0,1-1.17,0,1.6,1.6,0,0,1-.8-.63,2.24,2.24,0,0,1-1.6,1.52A1.91,1.91,0,0,1,140,52a2.19,2.19,0,0,1-.86-1.41l-1-4.15,1-.25.95,3.8a2.82,2.82,0,0,0,.32.86.93.93,0,0,0,.47.35,1.19,1.19,0,0,0,.65,0,1.5,1.5,0,0,0,1-.69,2,2,0,0,0,.08-1.46l-.88-3.51,1-.25,1,3.92a1.88,1.88,0,0,0,.51,1,1,1,0,0,0,.9.14,1.66,1.66,0,0,0,.75-.43,1.38,1.38,0,0,0,.36-.8,3.7,3.7,0,0,0-.15-1.3l-.78-3.13Zm-7.57,9.1a3.08,3.08,0,0,1-1.61-.45,4,4,0,0,1-1.7-2.39c0-.06-.19-.73-.19-.73l-.14,0,0-.66a3.23,3.23,0,0,1,.61-2A3.39,3.39,0,0,1,137.5,46a4.06,4.06,0,0,1,1.17-.18,3.25,3.25,0,0,1,1.59.41,3.9,3.9,0,0,1,1.7,2.36,4,4,0,0,1-.11,3,3.33,3.33,0,0,1-2.11,1.72A3.81,3.81,0,0,1,138.7,53.5Zm-.7-2.41a.88.88,0,0,0,.2.19,1,1,0,0,0,.6.2,1.12,1.12,0,0,0,.35-.06,1.08,1.08,0,0,0,.7-.54,1.06,1.06,0,0,0,.13-.39Zm.45-3.19a1.43,1.43,0,0,0-.39.06,1,1,0,0,0-.57.37,1.53,1.53,0,0,0-.23.81v.08l2.25-.67a1.28,1.28,0,0,0-.49-.49A1.1,1.1,0,0,0,138.45,47.9Zm-1.75,1.21-1.09.18a2.69,2.69,0,0,1,.49-1.7,3,3,0,0,1,1.56-1,2.82,2.82,0,0,1,2.31.19,3.25,3.25,0,0,1,1.45,2,3.47,3.47,0,0,1-.08,2.56,2.76,2.76,0,0,1-1.76,1.44,2.67,2.67,0,0,1-2.2-.24,3.35,3.35,0,0,1-1.44-2.06c0-.06-.05-.15-.08-.27l4.45-1.33a2.39,2.39,0,0,0-1-1.34,1.71,1.71,0,0,0-1.4-.15A1.62,1.62,0,0,0,137,48,2,2,0,0,0,136.7,49.11Zm3.8.64-3.33,1a2.19,2.19,0,0,0,.72,1,1.64,1.64,0,0,0,1.43.21,1.67,1.67,0,0,0,1-.82A1.94,1.94,0,0,0,140.5,49.75Zm-4.9,7.52,1.62-2-.43-1.22.73-.26L136.88,52l-.73.25-1-2.84a4,4,0,0,0-.65-1.33,1.58,1.58,0,0,0-.9-.48,1.39,1.39,0,0,0-.3,0,2.61,2.61,0,0,0-.89.18,3.83,3.83,0,0,0-.82.4l-.47.28,1,1.79.49-.26.37-.17.11.28,1,2.9-1,.35.64,1.85,1-.35Zm-3.26-7.82-.45-.83a4.69,4.69,0,0,1,.72-.35,1.7,1.7,0,0,1,.9-.12,1,1,0,0,1,.58.3,3.82,3.82,0,0,1,.53,1.13L135.8,53l.73-.25.27.77-.73.26.51,1.45-.78,1-.72-2-1,.34-.27-.77,1-.35-1.2-3.43a1.93,1.93,0,0,0-.24-.53.49.49,0,0,0-.24-.14.74.74,0,0,0-.37,0A3.35,3.35,0,0,0,132.34,49.45ZM123.1,59.63a3.58,3.58,0,0,0,1.41-1.14,3,3,0,0,0,.57-1.8,4.94,4.94,0,0,0-.48-2,3.88,3.88,0,0,0-2-2.14,2.89,2.89,0,0,0-1.19-.25,3.55,3.55,0,0,0-1.48.35,3,3,0,0,0-1.59,1.54,3.27,3.27,0,0,0-.13,2.28l.16.56,2.09-.65-.16-.53a1.35,1.35,0,0,1,0-.91.92.92,0,0,1,.49-.48,1.23,1.23,0,0,1,.47-.11,1,1,0,0,1,.43.1,2.31,2.31,0,0,1,.92,1.19,2.24,2.24,0,0,1,.27,1.45,1.07,1.07,0,0,1-.63.7.83.83,0,0,1-.36.09.69.69,0,0,1-.2,0,1.21,1.21,0,0,1-.57-.45l-.32-.41L119,58.2l.34.48a2.91,2.91,0,0,0,1.68,1.2,2.51,2.51,0,0,0,.67.08A3.49,3.49,0,0,0,123.1,59.63ZM119.76,56l-1,.3a2.67,2.67,0,0,1,.1-1.88,2.47,2.47,0,0,1,1.31-1.27,2.68,2.68,0,0,1,2.21-.09,3.36,3.36,0,0,1,1.7,1.85,4.44,4.44,0,0,1,.43,1.75,2.3,2.3,0,0,1-.45,1.45,3,3,0,0,1-1.2,1,2.53,2.53,0,0,1-1.72.22,2.36,2.36,0,0,1-1.36-1l.87-.57a1.7,1.7,0,0,0,.86.64,1.36,1.36,0,0,0,.95-.08,1.64,1.64,0,0,0,1-1.06,2.75,2.75,0,0,0-.3-1.85A2.81,2.81,0,0,0,121.92,54a1.59,1.59,0,0,0-1.38,0,1.51,1.51,0,0,0-.79.78A2,2,0,0,0,119.76,56Zm-3.67,6.62a3.18,3.18,0,0,1-1-.18,3.76,3.76,0,0,1-2.11-2,4.61,4.61,0,0,1-.6-2.11,3,3,0,0,1,.54-1.74,3.54,3.54,0,0,1,1.38-1.22A3.64,3.64,0,0,1,115.9,55a3.39,3.39,0,0,1,1,.17,4,4,0,0,1,2.14,2.06,3.77,3.77,0,0,1,.33,3.19,3.48,3.48,0,0,1-1.69,1.8A3.54,3.54,0,0,1,116.09,62.66Zm-.4-5.57a1.15,1.15,0,0,0-.53.13,1.12,1.12,0,0,0-.6.76,2.21,2.21,0,0,0,.32,1.47,2.05,2.05,0,0,0,1,1,1.19,1.19,0,0,0,.44.09,1.1,1.1,0,0,0,.52-.14,1.07,1.07,0,0,0,.61-.76,2.14,2.14,0,0,0-.31-1.43,2.07,2.07,0,0,0-1-1.08A1.19,1.19,0,0,0,115.69,57.09Zm2.89.42a3.23,3.23,0,0,1,.32,2.72,3,3,0,0,1-1.43,1.51,2.75,2.75,0,0,1-2.25.2,3.17,3.17,0,0,1-1.78-1.69,4.17,4.17,0,0,1-.55-1.85,2.63,2.63,0,0,1,.45-1.43,3.1,3.1,0,0,1,1.16-1,2.81,2.81,0,0,1,2.27-.22A3.35,3.35,0,0,1,118.58,57.51Zm-1,.5a2.63,2.63,0,0,0-1.28-1.36,1.69,1.69,0,0,0-1.44.07,1.65,1.65,0,0,0-.89,1.13,2.67,2.67,0,0,0,.37,1.86A2.56,2.56,0,0,0,115.64,61a1.63,1.63,0,0,0,1.43-.06,1.68,1.68,0,0,0,.9-1.13A2.62,2.62,0,0,0,117.62,58Zm-6.68,7.69a3.3,3.3,0,0,0,2.29-1.39l.09.16,1.81-1-3.66-6.39-1.89,1.09,2,3.44c.41.71.39,1,.34,1.18a1.13,1.13,0,0,1-.54.64.83.83,0,0,1-.44.13h0a.41.41,0,0,1-.29-.1,2.28,2.28,0,0,1-.45-.62L108,59l-1.9,1.08,2.18,3.82a6.36,6.36,0,0,0,.63,1,2.42,2.42,0,0,0,.86.65,2,2,0,0,0,.86.18Zm.32-7.88,3.09,5.4-.82.48-.44-.77a2.24,2.24,0,0,1-1.21,1.87,2.59,2.59,0,0,1-1,.34A1.66,1.66,0,0,1,110,65a2,2,0,0,1-.67-.52,6.41,6.41,0,0,1-.56-.86l-1.89-3.32.91-.52,1.88,3.28a2.78,2.78,0,0,0,.58.78,1.08,1.08,0,0,0,.64.23,1.44,1.44,0,0,0,.73-.2,1.73,1.73,0,0,0,.8-.95A2.13,2.13,0,0,0,112,61.3l-1.69-2.95ZM105.9,68.55a1.93,1.93,0,0,1-.73-.13,2.64,2.64,0,0,1-1-.76l-.39-.43,1.13-1-.35.07a2.56,2.56,0,0,1-.39,0,2,2,0,0,1-.8-.16,2.13,2.13,0,0,1-1-.84,2.38,2.38,0,0,1-.37-1.31,2.6,2.6,0,0,1,.45-1.39,3.93,3.93,0,0,1,1.13-1.09,3.68,3.68,0,0,1,2-.67h.23a2.91,2.91,0,0,1,1.85,1l.39.43-1.21,1.08.11,0,.31,0a2,2,0,0,1,.9.21,2.07,2.07,0,0,1,.88.78,2.17,2.17,0,0,1,.34,1,2.27,2.27,0,0,1-.15,1,2.81,2.81,0,0,1-.5.78,3.52,3.52,0,0,1-.82.7,4.23,4.23,0,0,1-1.38.6A3.11,3.11,0,0,1,105.9,68.55Zm-.13-2.32a.54.54,0,0,0,.38.22h0a1.09,1.09,0,0,0,.58-.2c.42-.27.5-.44.51-.47a.2.2,0,0,0,0-.15H107l-.87.26-.55.17ZM105.4,63a1.3,1.3,0,0,0-.73.24,1.22,1.22,0,0,0-.51.52c-.06.19,0,.26,0,.3s0,0,.09,0a5.9,5.9,0,0,0,.91-.26l1-.3-.17-.2a.93.93,0,0,0-.57-.35Zm1.8-.72-.78.7a1.46,1.46,0,0,0-.93-.54,1.73,1.73,0,0,0-1.13.32,1.66,1.66,0,0,0-.74.83.88.88,0,0,0,.08.78.62.62,0,0,0,.56.3,4.41,4.41,0,0,0,1.1-.28A10,10,0,0,1,107,64a1.57,1.57,0,0,1,.89.13,1.6,1.6,0,0,1,.64.57,1.65,1.65,0,0,1,.26.75,1.73,1.73,0,0,1-.12.78,2,2,0,0,1-.4.62,3.38,3.38,0,0,1-.69.6,3.61,3.61,0,0,1-1.2.51,1.72,1.72,0,0,1-1,0,2.28,2.28,0,0,1-.83-.62l.79-.67a1.13,1.13,0,0,0,.75.41,1.49,1.49,0,0,0,.94-.29,1.68,1.68,0,0,0,.74-.76.68.68,0,0,0,0-.64.5.5,0,0,0-.31-.24.87.87,0,0,0-.49,0c-.11,0-.42.12-.93.28a15.23,15.23,0,0,1-1.57.43,1.62,1.62,0,0,1-.88-.09,1.53,1.53,0,0,1-.7-.62,1.74,1.74,0,0,1-.28-1,1.89,1.89,0,0,1,.36-1.09,3.14,3.14,0,0,1,1-.92,2.94,2.94,0,0,1,1.83-.58A2.37,2.37,0,0,1,107.2,62.3Zm-6.66,9.83a3.21,3.21,0,0,1-.68-.07,3.91,3.91,0,0,1-2.37-1.73l-.41-.63-.13.06-.22-.61A3.19,3.19,0,0,1,96.66,67,3.34,3.34,0,0,1,98,65.28a3.49,3.49,0,0,1,2.06-.71,3.36,3.36,0,0,1,.63.06,3.84,3.84,0,0,1,2.36,1.7,4,4,0,0,1,.83,2.87,3.5,3.5,0,0,1-3.37,2.93Zm-.44-2.22a.81.81,0,0,0,.25.12,1.25,1.25,0,0,0,.32,0h0a1,1,0,0,0,.63-.22,1.08,1.08,0,0,0,.49-.73,1.41,1.41,0,0,0,0-.41Zm-.24-3.23a1.16,1.16,0,0,0-.69.24,1,1,0,0,0-.42.53,1.52,1.52,0,0,0,0,.84l0,.08L100.73,67a1.35,1.35,0,0,0-.62-.31A1.07,1.07,0,0,0,99.86,66.68Zm-1.63,1.76-1,.52a2.7,2.7,0,0,1-.06-1.77,3.22,3.22,0,0,1,3.41-2,3.29,3.29,0,0,1,2,1.47,3.41,3.41,0,0,1,.73,2.46A2.71,2.71,0,0,1,102.13,71a2.66,2.66,0,0,1-2.16.48A3.4,3.4,0,0,1,98,70l-.16-.23,3.8-2.66a2.44,2.44,0,0,0-1.38-1,1.78,1.78,0,0,0-2,1.12A2,2,0,0,0,98.23,68.44Zm3.82-.59-2.85,2a2.16,2.16,0,0,0,1,.74,1.61,1.61,0,0,0,1.42-.25,1.74,1.74,0,0,0,.72-1.1A2,2,0,0,0,102.05,67.85Zm-6.29,7.89A3.11,3.11,0,0,0,97.7,75a3.56,3.56,0,0,0,1.12-1.43A2.94,2.94,0,0,0,99,71.7a5,5,0,0,0-.91-1.81,4,4,0,0,0-2.44-1.63,3,3,0,0,0-.52,0A3.29,3.29,0,0,0,93,69a3.07,3.07,0,0,0-1.2,1.86,3.26,3.26,0,0,0,.39,2.25l.28.51,1.89-1.1L94.13,72a1.37,1.37,0,0,1-.24-.87.93.93,0,0,1,.38-.59,1,1,0,0,1,.64-.23.93.93,0,0,1,.23,0,2.38,2.38,0,0,1,1.17.94,2.24,2.24,0,0,1,.59,1.36,1.06,1.06,0,0,1-.46.83.78.78,0,0,1-.52.18h0a1.11,1.11,0,0,1-.65-.31L94.85,73l-1.48,1.56.44.39a2.87,2.87,0,0,0,1.91.79Zm-2.13-3.46-.9.53A2.7,2.7,0,0,1,92.39,71a2.62,2.62,0,0,1,1-1.54,2.7,2.7,0,0,1,2.14-.59,3.4,3.4,0,0,1,2.08,1.42,4.33,4.33,0,0,1,.81,1.6,2.39,2.39,0,0,1-.11,1.52,3,3,0,0,1-1,1.21,2.55,2.55,0,0,1-1.62.6,2.33,2.33,0,0,1-1.55-.64l.72-.76a1.61,1.61,0,0,0,1,.43,1.29,1.29,0,0,0,.9-.3,1.62,1.62,0,0,0,.68-1.24,3.61,3.61,0,0,0-2.21-2.88,1.56,1.56,0,0,0-1.34.31,1.52,1.52,0,0,0-.59.94A1.94,1.94,0,0,0,93.63,72.28Zm1.62,7.9.81-2.41-.84-1,.59-.5-1.28-1.49L94,75.3,92,73a3.91,3.91,0,0,0-1.09-1,1.53,1.53,0,0,0-.67-.15,1.84,1.84,0,0,0-.33,0,2.36,2.36,0,0,0-1.06.57,4.57,4.57,0,0,0-.63.67l-.33.43,1.56,1.32.37-.42a3.83,3.83,0,0,1,.28-.29,2.79,2.79,0,0,1,.2.22l2,2.34-.81.68,1.27,1.49.81-.69Zm-5.87-6.1-.72-.61a4,4,0,0,1,.55-.59,1.72,1.72,0,0,1,.79-.44,1,1,0,0,1,.65.07,3.83,3.83,0,0,1,.91.87l2.32,2.72.59-.51.54.63-.59.5,1,1.17L95,79.05,93.62,77.4l-.81.69-.53-.62.81-.69L90.72,74a1.54,1.54,0,0,0-.42-.4.41.41,0,0,0-.27,0,.66.66,0,0,0-.32.18A2.52,2.52,0,0,0,89.38,74.08Zm-3.25,9.6a3.91,3.91,0,0,1-2.58-1.39l-.5-.57-.12.08-.3-.57a3.23,3.23,0,0,1-.37-2.1,3.81,3.81,0,0,1,3.5-2.93H86a3.86,3.86,0,0,1,2.58,1.36,4,4,0,0,1,1.22,2.72,3.3,3.3,0,0,1-1.12,2.48,3.22,3.22,0,0,1-2.26.93Zm-.06-2.16a1.14,1.14,0,0,0,.27.08h.17a1,1,0,0,0,.74-.31,1.12,1.12,0,0,0,.39-.79,1.34,1.34,0,0,0-.06-.4Zm-.44-3.18a1.23,1.23,0,0,0-.89.34,1,1,0,0,0-.35.59,1.47,1.47,0,0,0,.15.82l0,.08,1.72-1.6a1.54,1.54,0,0,0-.66-.23Zm-1.61,2-.89.64a2.63,2.63,0,0,1-.31-1.73,3.22,3.22,0,0,1,3.1-2.46A3.26,3.26,0,0,1,88.11,78a3.39,3.39,0,0,1,1.07,2.33,2.75,2.75,0,0,1-.94,2.07,2.66,2.66,0,0,1-2.07.76A3.33,3.33,0,0,1,84,81.9l-.19-.2,3.4-3.17a2.41,2.41,0,0,0-1.5-.75,1.7,1.7,0,0,0-1.32.49,1.61,1.61,0,0,0-.52.89A2,2,0,0,0,84,80.32Zm3.7-1.11-2.55,2.36a2.07,2.07,0,0,0,1.1.59,1.62,1.62,0,0,0,1.37-.44,1.7,1.7,0,0,0,.56-1.19A1.93,1.93,0,0,0,87.72,79.21Zm-1.09,8.91.59-2.48-.92-.9.54-.55-1.39-1.37-.54.55-2.14-2.11a3.78,3.78,0,0,0-1.17-.91,1.62,1.62,0,0,0-.54-.1,1.83,1.83,0,0,0-.46.07,2.37,2.37,0,0,0-1,.65,4.5,4.5,0,0,0-.56.73l-.29.45,1.66,1.18.33-.45.25-.31.22.2,2.18,2.15-.74.75L84,87l.74-.75Zm-6.36-5.57L79.51,82a3.72,3.72,0,0,1,.49-.63,1.78,1.78,0,0,1,.75-.5,1,1,0,0,1,.65,0,3.93,3.93,0,0,1,1,.78l2.55,2.51.54-.55.58.58-.54.54,1.09,1.08L86.31,87l-1.55-1.52-.74.75-.58-.57.74-.75L81.6,82.37a1.86,1.86,0,0,0-.45-.37.42.42,0,0,0-.27,0,.65.65,0,0,0-.31.2A3.51,3.51,0,0,0,80.27,82.55Zm-2,10.91,1.45-1.63-2.91-2.6a2.89,2.89,0,0,1-.66-.76A.77.77,0,0,1,76,88a1.24,1.24,0,0,1,.28-.56.73.73,0,0,1,.4-.26l.11,0a.56.56,0,0,1,.27.08,4.83,4.83,0,0,1,.77.62l3,2.67,1.46-1.63L79,85.9a6.7,6.7,0,0,0-.86-.67,2.48,2.48,0,0,0-1-.35h-.19a2.44,2.44,0,0,0-1,.23,3.1,3.1,0,0,0-1,.77,2.93,2.93,0,0,0-.69,1.28L74.1,87l-1.38,1.55Zm-4.07-5.64.68.6a2.28,2.28,0,0,1,.53-2.17,2.33,2.33,0,0,1,.84-.63,1.84,1.84,0,0,1,.87-.18,2,2,0,0,1,.8.28,6.19,6.19,0,0,1,.78.61l2.88,2.56-.71.79-2.57-2.3a7,7,0,0,0-.88-.69,1.13,1.13,0,0,0-.76-.12,1.29,1.29,0,0,0-.71.44,1.71,1.71,0,0,0-.41.83,1.33,1.33,0,0,0,.1.88,3.35,3.35,0,0,0,.79.93l2.49,2.22-.7.79-4.65-4.14ZM75,96.58l.44-.15a2.67,2.67,0,0,0,1.2-.81A1.73,1.73,0,0,0,77,94.9l0,0,1.31-1.62-5.71-4.63-1.38,1.7,3,2.41a3.55,3.55,0,0,1,.73.78.68.68,0,0,1,.11.34.46.46,0,0,1-.11.27,1,1,0,0,1-.42.29l-.63.23Zm-2.3-7.1,4.83,3.91-.6.74-.73-.59a2.57,2.57,0,0,1,.26,1.07,1.2,1.2,0,0,1-.26.66,2.2,2.2,0,0,1-1,.63l-.53-.9a1.54,1.54,0,0,0,.66-.46,1,1,0,0,0,.23-.61,1.12,1.12,0,0,0-.2-.67,4.21,4.21,0,0,0-.84-.91l-2.53-2.06Zm-5.62,17.61a2.29,2.29,0,0,1-.86-.18,6.59,6.59,0,0,1-.94-.55l-1.17-.79a13.78,13.78,0,0,0-1.5-.94,1.91,1.91,0,0,0-.58-.15l-1-.08,1.35-2,.43.06a6,6,0,0,1,.09-.65,3.91,3.91,0,0,1,.57-1.27,2.78,2.78,0,0,1,1.63-1.26,2.08,2.08,0,0,1,.55-.07,2.4,2.4,0,0,1,2,1.26,2.33,2.33,0,0,1,.26,1.05,2.49,2.49,0,0,1,0,.47l.91-1,.42.44a3.06,3.06,0,0,1,.76,1.2,2.6,2.6,0,0,1,0,1.44,4.63,4.63,0,0,1-.69,1.47,4.35,4.35,0,0,1-1,1.12,2.24,2.24,0,0,1-1.08.44Zm-.27-2.36a.61.61,0,0,0,.3.11,1.21,1.21,0,0,0,.67-.57,1.31,1.31,0,0,0,.31-.72,1.25,1.25,0,0,0-.33-.6l-.08-.08-.28.59A12.61,12.61,0,0,0,66.84,104.73Zm-1.28-3.3-.11,0a.88.88,0,0,0-.43.39,1.59,1.59,0,0,0-.29.77,1.13,1.13,0,0,0,.14.66,1.47,1.47,0,0,0,.3.32c.12-.29.26-.62.44-1a3.49,3.49,0,0,0,.29-.74.32.32,0,0,0,0-.21.27.27,0,0,0-.13-.15A.32.32,0,0,0,65.56,101.43Zm-2.08,1.83a3.81,3.81,0,0,1,.05-1.33,3.26,3.26,0,0,1,.48-1.08,2.24,2.24,0,0,1,1.3-1,1.75,1.75,0,0,1,1.94.9,1.72,1.72,0,0,1,.2.79,2.36,2.36,0,0,1-.14.82,7.39,7.39,0,0,1-.39.87,9.6,9.6,0,0,0-.75,1.77l.22.15a1.17,1.17,0,0,0,.93.26,1.74,1.74,0,0,0,1-.79,1.8,1.8,0,0,0,.4-1.06,1.6,1.6,0,0,0-.47-1l.7-.78a2.55,2.55,0,0,1,.62,1,2,2,0,0,1,0,1.13,4,4,0,0,1-.61,1.29,3.54,3.54,0,0,1-.88,1,1.46,1.46,0,0,1-1.58.22,5.5,5.5,0,0,1-.83-.5l-1.17-.79a16.35,16.35,0,0,0-1.58-1,2.49,2.49,0,0,0-.77-.19l.61-.92A2.15,2.15,0,0,1,63.48,103.26Zm2,1.24a8.2,8.2,0,0,1,.64-1.65,4.45,4.45,0,0,0,.34-.88,1,1,0,0,0,0-.54.94.94,0,0,0-.34-.4.89.89,0,0,0-.76-.13,1.36,1.36,0,0,0-.76.62,2.23,2.23,0,0,0-.38,1,1.63,1.63,0,0,0,.21,1,2.67,2.67,0,0,0,.78.74Zm-7.2,4.71,1.1-1.82.09.06a2.7,2.7,0,0,1,.4-1.14,3,3,0,0,1,1.3-1.18,3.15,3.15,0,0,1,1.4-.31l.39,0a4.63,4.63,0,0,1,1.87.66,5.08,5.08,0,0,1,1.45,1.3,3,3,0,0,1,.63,1.72,3.05,3.05,0,0,1-.46,1.72,2.58,2.58,0,0,1-.81.86l2.13,1.29-1.13,1.87ZM62.44,107h-.17a.94.94,0,0,0-.81,1.29,2.12,2.12,0,0,0,1,1,2.79,2.79,0,0,0,1.34.49h.15a.94.94,0,0,0,.74-.47.88.88,0,0,0,.07-.82,2.43,2.43,0,0,0-1.07-1.06A2.62,2.62,0,0,0,62.44,107Zm-2.87,1.2.67.41a2,2,0,0,1,.11-2,2.49,2.49,0,0,1,1.07-1,2.72,2.72,0,0,1,1.48-.24,4.08,4.08,0,0,1,1.64.59,4.48,4.48,0,0,1,1.29,1.14,2.47,2.47,0,0,1,.14,2.81,2.07,2.07,0,0,1-.73.74,2.13,2.13,0,0,1-.9.3l2.65,1.6-.54.9L59.06,109Zm4.4-1.25a2.76,2.76,0,0,0-1.8-.5,1.54,1.54,0,0,0-1.12.72,1.51,1.51,0,0,0-.13,1.3,2.67,2.67,0,0,0,1.23,1.32,3,3,0,0,0,1.87.55,1.54,1.54,0,0,0,1.15-.73,1.47,1.47,0,0,0,.11-1.31A2.82,2.82,0,0,0,64,106.92Zm-.28,7.87,1-1.93L66.8,114l-1,1.92Zm-6.5-3.54,1.05-1.93,6.47,3.53-1,1.93Zm1.28-1.16,5.48,3-.51.93L58,111ZM65,113.63l1.07.59-.51.92-1.07-.58Zm-7.37,9.23a4.71,4.71,0,0,1-1.82-.49,4.77,4.77,0,0,1-1.59-1.2,3.21,3.21,0,0,1-.75-1.71,3.16,3.16,0,0,1,.29-1.73,2.7,2.7,0,0,1,.66-.86l-2.22-1.08,1-2,8.76,4.25L61,120l-.11-.06a2.88,2.88,0,0,1-.3,1.23,3,3,0,0,1-2.76,1.74ZM56.48,118a.77.77,0,0,0-.27,0,.93.93,0,0,0-.66.5,1,1,0,0,0,0,.87,2.28,2.28,0,0,0,1.17,1,2.68,2.68,0,0,0,1.16.33h0a1.18,1.18,0,0,0,.27,0,1,1,0,0,0,.67-.49,1,1,0,0,0-.05-.87,2.3,2.3,0,0,0-1.16-1A2.75,2.75,0,0,0,56.48,118Zm-3.1-3.42,7.75,3.75-.42.87-.73-.35a2.32,2.32,0,0,1,.31,1,2.27,2.27,0,0,1-.24,1,2.48,2.48,0,0,1-1,1.09,2.53,2.53,0,0,1-1.45.33,4.41,4.41,0,0,1-1.61-.44,4.07,4.07,0,0,1-1.39-1.06,2.61,2.61,0,0,1-.39-2.82,1.82,1.82,0,0,1,.61-.75,2.22,2.22,0,0,1,.81-.38l-2.73-1.32Zm4.5,3.24a2.67,2.67,0,0,0-1.81-.33,1.46,1.46,0,0,0-1,.81,1.5,1.5,0,0,0,0,1.34,2.81,2.81,0,0,0,1.44,1.25,2.74,2.74,0,0,0,1.82.34,1.49,1.49,0,0,0,1-.8,1.51,1.51,0,0,0-.05-1.34A2.81,2.81,0,0,0,57.88,117.82Zm.57,7.62.85-2,2.16.91-.85,2Zm-6.79-2.88.86-2,6.77,2.87-.86,2Zm1.16-1.27,5.72,2.43-.41,1-5.72-2.43Zm6.78,2.88,1.12.47-.41,1-1.12-.47Zm-5.9,9.34a4.13,4.13,0,0,1-.67-.07l-.57-.12.33-1.45-.24.27a2.15,2.15,0,0,1-1,.61,1.75,1.75,0,0,1-.46.05,2.32,2.32,0,0,1-1.89-1,2.52,2.52,0,0,1-.47-1.39,3.75,3.75,0,0,1,.26-1.55A3.47,3.47,0,0,1,50.32,127a2.64,2.64,0,0,1,1.4-.37,4.08,4.08,0,0,1,.68.06l.57.11-.33,1.6.08-.09a2.15,2.15,0,0,1,1.08-.57,1.9,1.9,0,0,1,.41,0,2.27,2.27,0,0,1,.76.14,2.12,2.12,0,0,1,.88.61,2.22,2.22,0,0,1,.49.92,2.41,2.41,0,0,1,.07.92,3.38,3.38,0,0,1-.24,1.06,4.08,4.08,0,0,1-.75,1.3,2.36,2.36,0,0,1-1.1.74A2.45,2.45,0,0,1,53.7,133.51Zm-.21-2.2a.52.52,0,0,0,.17,0,.5.5,0,0,0,.27-.07.91.91,0,0,0,.34-.51,1.17,1.17,0,0,0,.13-.68c0-.06,0-.12-.07-.13a.31.31,0,0,0-.18.12c-.06.07-.24.32-.54.73l-.34.47Zm-1.82-2.47a.7.7,0,0,0-.38.1,1.18,1.18,0,0,0-.46.64,1.1,1.1,0,0,0-.1.72c.07.18.15.22.19.23l.44.44-.33-.46a4.62,4.62,0,0,0,.58-.75c.23-.32.43-.6.61-.82l-.26-.06A1,1,0,0,0,51.67,128.84Zm.63-1.55-.22,1a1.47,1.47,0,0,0-1.07.12,1.77,1.77,0,0,0-.71.94,1.65,1.65,0,0,0-.1,1.11.88.88,0,0,0,.52.57.62.62,0,0,0,.64-.09,4.65,4.65,0,0,0,.72-.88,9.16,9.16,0,0,1,1-1.33,1.51,1.51,0,0,1,1.65-.35,1.69,1.69,0,0,1,.66.45,1.82,1.82,0,0,1,.37.7,2.32,2.32,0,0,1,.05.73,3,3,0,0,1-.21.9,3.61,3.61,0,0,1-.65,1.13,1.75,1.75,0,0,1-.82.56,2.23,2.23,0,0,1-1,0l.23-1a1.12,1.12,0,0,0,.85-.12,1.49,1.49,0,0,0,.58-.8,1.71,1.71,0,0,0,.15-1,.72.72,0,0,0-.42-.49.58.58,0,0,0-.39,0,.91.91,0,0,0-.41.28c-.07.08-.27.34-.58.78a12.35,12.35,0,0,1-1,1.28,1.48,1.48,0,0,1-.76.46,1.59,1.59,0,0,1-.93-.08,1.77,1.77,0,0,1-.82-.64,2.06,2.06,0,0,1-.37-1.09,3.27,3.27,0,0,1,.23-1.31,2.93,2.93,0,0,1,1.12-1.56A2.42,2.42,0,0,1,52.3,127.29Zm1.91,9.27.67-2.08,2.23.72-.67,2.09Zm-7-2.29.68-2.08,7,2.28-.67,2.08Zm1-1.36,5.92,1.92-.33,1-5.91-1.93Zm7,2.28,1.15.38-.33,1-1.15-.37Zm-4.09,9.73a3,3,0,0,0,1.15-1.76,3.58,3.58,0,0,0,0-1.81,2.93,2.93,0,0,0-1-1.59,4.81,4.81,0,0,0-1.81-.9,5.1,5.1,0,0,0-1.39-.21,3.35,3.35,0,0,0-1.53.35A3.19,3.19,0,0,0,45,141.09a3.1,3.1,0,0,0,.15,2.21,3.25,3.25,0,0,0,1.65,1.57l.53.24.86-2-.51-.23a1.36,1.36,0,0,1-.71-.55.9.9,0,0,1,0-.69,1,1,0,0,1,.57-.69,1.19,1.19,0,0,1,.53-.1,3.42,3.42,0,0,1,1,.16,2.21,2.21,0,0,1,1.28.73,1,1,0,0,1,.13.93.75.75,0,0,1-.32.46,1.14,1.14,0,0,1-.68.15l-.55,0-.26,2.13.59.05h.31A2.8,2.8,0,0,0,51.16,144.92Zm-3.73-1.53-.41,1a2.65,2.65,0,0,1-1.38-1.29,2.54,2.54,0,0,1-.12-1.81,2.69,2.69,0,0,1,1.36-1.75,3.42,3.42,0,0,1,2.51-.1,4.45,4.45,0,0,1,1.6.8,2.3,2.3,0,0,1,.81,1.28,3.05,3.05,0,0,1,0,1.53,2.62,2.62,0,0,1-.94,1.45,2.33,2.33,0,0,1-1.62.4l.12-1a1.65,1.65,0,0,0,1.05-.25,1.31,1.31,0,0,0,.54-.77,1.6,1.6,0,0,0-.2-1.4,2.65,2.65,0,0,0-1.6-1,2.87,2.87,0,0,0-1.88,0,1.58,1.58,0,0,0-.88,1.05,1.48,1.48,0,0,0,.09,1.1A1.83,1.83,0,0,0,47.43,143.39ZM51,148l.48-2.14,2.29.51-.48,2.14Zm-7.23-1.63.48-2.14,7.2,1.62L51,148Zm.91-1.46,6.09,1.37-.23,1L44.48,146ZM52,146.57l1.18.27-.23,1-1.19-.26ZM47.29,157.4a2.58,2.58,0,0,0,1.05-.25,2.22,2.22,0,0,0,.88-.8,3.18,3.18,0,0,0,.46-1.19,3,3,0,0,0-.07-1.45l.18,0,.37-2.05-7.25-1.29-.38,2.16,3.9.69c.81.14,1,.38,1.13.5a1.13,1.13,0,0,1,.14.83.82.82,0,0,1-.18.41.42.42,0,0,1-.26.16l-.18,0a3.6,3.6,0,0,1-.58-.07l-4.29-.76-.38,2.16,4.32.77a8.09,8.09,0,0,0,1.1.13Zm-3.92-6.34,6.13,1.09-.17.93-.87-.15a2.25,2.25,0,0,1,.66,2.13,2.48,2.48,0,0,1-.38,1,1.57,1.57,0,0,1-.64.6,2,2,0,0,1-.83.19,7.2,7.2,0,0,1-1-.12L42.49,156l.18-1,3.73.66a2.81,2.81,0,0,0,1,.05,1.06,1.06,0,0,0,.58-.34,1.37,1.37,0,0,0,.31-.69,1.67,1.67,0,0,0-.22-1.22,2.09,2.09,0,0,0-1.51-.77l-3.34-.59Zm-.95,11.88a5.5,5.5,0,0,1-2.24-.65,2.7,2.7,0,0,1-1-1.32,3.82,3.82,0,0,1-.18-1.88,3.55,3.55,0,0,1,.88-2,2.16,2.16,0,0,1,1.61-.66l.47,0,.63.1-.34,1.2a2.81,2.81,0,0,1,.71-.55,3.9,3.9,0,0,1,2-.52,4.83,4.83,0,0,1,2.44.65,3.15,3.15,0,0,1,1.25,1.31,3,3,0,0,1,.27,1.8,2.83,2.83,0,0,1-.43,1.2l.13,0-.27,2.09Zm2.37-4.08a1.57,1.57,0,0,0-.89.2,1,1,0,0,0-.47.73,1,1,0,0,0,.26.83,2.14,2.14,0,0,0,1.32.53l.48,0h0a1.61,1.61,0,0,0,.91-.22,1,1,0,0,0,.48-.73.94.94,0,0,0-.27-.81,2,2,0,0,0-1.26-.52A3.78,3.78,0,0,0,44.79,158.86Zm-3.24-.31a.47.47,0,0,0-.33.09,1.2,1.2,0,0,0-.27.7,1.31,1.31,0,0,0,.08.81.86.86,0,0,0,.46.39l0,0a2.83,2.83,0,0,1-.07-1.13,3.34,3.34,0,0,1,.23-.88Zm.28-1.57-.28,1a1,1,0,0,0-.73.26,1.78,1.78,0,0,0-.43,1,1.91,1.91,0,0,0,.14,1.16,1.44,1.44,0,0,0,.74.63,6.37,6.37,0,0,0,1.33.26,2.19,2.19,0,0,1-.58-1.81,2.32,2.32,0,0,1,1.18-1.85,3.59,3.59,0,0,1,2.29-.41,4.34,4.34,0,0,1,1.58.53,2.6,2.6,0,0,1,1,1.08,2.52,2.52,0,0,1,.22,1.48A2.24,2.24,0,0,1,47.2,162l.74.1-.12,1-5.33-.7a5,5,0,0,1-2-.56,2.16,2.16,0,0,1-.82-1,3.22,3.22,0,0,1-.15-1.61,3,3,0,0,1,.73-1.72A1.72,1.72,0,0,1,41.83,157Zm3.59,1.35a2.73,2.73,0,0,0-1.83.25,1.6,1.6,0,0,0-.32,2.42,2.58,2.58,0,0,0,1.67.71,2.49,2.49,0,0,0,1.77-.28,1.58,1.58,0,0,0,.74-1.13A1.53,1.53,0,0,0,47,159,2.55,2.55,0,0,0,45.42,158.33Zm-2.85,17.35a3.32,3.32,0,0,1-1.74-1.23,3.47,3.47,0,0,1-.56-2.14,3.41,3.41,0,0,1,1.11-2.54,3.72,3.72,0,0,1,2.56-.86h.22A4,4,0,0,1,47,170a3.28,3.28,0,0,1,.95,2.55,3.18,3.18,0,0,1-1.12,2.41,3.8,3.8,0,0,1-2.58.85H44l-.75-.05,0,.14Zm.72-4.48a1.45,1.45,0,0,0-.62.31,1.14,1.14,0,0,0-.4.87,1,1,0,0,0,.17.66,1.48,1.48,0,0,0,.69.49l.08,0Zm1.92,2.25a.9.9,0,0,0,.26-.13,1.05,1.05,0,0,0,.43-.85,1.12,1.12,0,0,0-.29-.84,1.31,1.31,0,0,0-.32-.25Zm-2.29.6-.18,1.09a2.69,2.69,0,0,1-1.44-1,3.23,3.23,0,0,1,.45-3.94,3.29,3.29,0,0,1,2.39-.71,3.45,3.45,0,0,1,2.41.9,2.77,2.77,0,0,1,.79,2.13,2.63,2.63,0,0,1-.93,2,3.39,3.39,0,0,1-2.42.71l-.28,0,.17-4.64a2.46,2.46,0,0,0-1.59.52,1.78,1.78,0,0,0-.59,1.28,1.7,1.7,0,0,0,.27,1A2,2,0,0,0,42.92,174.05Zm1.83-3.4-.13,3.48a2.1,2.1,0,0,0,1.19-.36,1.62,1.62,0,0,0,.66-1.28,1.67,1.67,0,0,0-.44-1.24A2,2,0,0,0,44.75,170.65Zm-4.42,6.94,9.72-.09,0-2.19-9.73.1Zm.55-1.62,8.59-.08v1.05l-8.59.08Zm-.49,5.76,7.34-.41.12,2.19-7.34.41Zm7.36-.41,2.34-.13.13,2.18-2.35.13Zm-6.77,1,6.22-.35.06,1.05-6.22.35Zm7.37-.42,1.21-.06.06,1.05-1.21.07Zm-7.25,9.28a4.93,4.93,0,0,1-.2-.9A2.33,2.33,0,0,1,41,189a1.56,1.56,0,0,1,.67-.76,3.83,3.83,0,0,1,1.45-.32l3-.31-.08-.77,2-.2.08.77,1.28-.13,1.54,2-2.6.27.11,1.05-2,.2-.1-1.06-3.06.32-.3,0c0,.14,0,.25.08.39l.14.54-2,.54Zm1.84-.93Zm-.39.51-.91.25a3.81,3.81,0,0,1-.17-.78,1.79,1.79,0,0,1,.09-.91,1,1,0,0,1,.43-.49,3.67,3.67,0,0,1,1.22-.26l3.57-.36-.08-.77.81-.08.08.77,1.53-.16.74,1-2.16.22.11,1-.82.09-.11-1.06-3.62.37a1.63,1.63,0,0,0-.57.12.46.46,0,0,0-.19.2.7.7,0,0,0,0,.37A4.4,4.4,0,0,0,42.55,190.71Zm2.86,15.14a2.33,2.33,0,0,1-.92-.19,2.49,2.49,0,0,1-1.12-.93,3.77,3.77,0,0,1-.6-1.45A3.45,3.45,0,0,1,43,201a2.9,2.9,0,0,1,1.61-1.36l.54-.21.56,1.54,0-.12a2.13,2.13,0,0,1,.61-1.06,2,2,0,0,1,1-.52,2.2,2.2,0,0,1,.44-.05,2.3,2.3,0,0,1,.63.1,2.33,2.33,0,0,1,.9.52,2.5,2.5,0,0,1,.54.75,3.54,3.54,0,0,1,.36,1,4.31,4.31,0,0,1,0,1.51,2.3,2.3,0,0,1-.54,1.2,2.66,2.66,0,0,1-1.1.69l-.54.21-.49-1.41c0,.13,0,.25-.06.35a2,2,0,0,1-1.69,1.65A2.18,2.18,0,0,1,45.41,205.85Zm-.09-4.15a.87.87,0,0,0-.53.4,1.17,1.17,0,0,0-.06.79,1.23,1.23,0,0,0,.3.67.36.36,0,0,0,.23.1c.09,0,.11,0,.13-.08a4.05,4.05,0,0,0,.1-.94c0-.4,0-.74.08-1Zm2.59-.35a.26.26,0,0,0-.1.2c0,.09,0,.4-.08.91,0,.21,0,.4,0,.58l.22-.08a.55.55,0,0,0,.34-.27,1,1,0,0,0,0-.61,1.33,1.33,0,0,0-.25-.66A.26.26,0,0,0,47.91,201.35Zm-3.14-1.18.37,1a1.42,1.42,0,0,0-.85.66,1.66,1.66,0,0,0-.11,1.17,1.71,1.71,0,0,0,.49,1,.9.9,0,0,0,.75.21.67.67,0,0,0,.5-.42,4.72,4.72,0,0,0,.14-1.12,8.81,8.81,0,0,1,.19-1.68,1.55,1.55,0,0,1,1.22-1.17,1.66,1.66,0,0,1,1.47.44,1.92,1.92,0,0,1,.43.59,3.2,3.2,0,0,1,.3.87,3.45,3.45,0,0,1,0,1.31,1.7,1.7,0,0,1-.4.91,2.14,2.14,0,0,1-.88.54l-.33-1a1.12,1.12,0,0,0,.65-.55,1.42,1.42,0,0,0,.08-1,1.72,1.72,0,0,0-.43-1,.7.7,0,0,0-.61-.19.57.57,0,0,0-.34.2.94.94,0,0,0-.2.45c0,.11,0,.43-.08,1A12.2,12.2,0,0,1,47,204a1.58,1.58,0,0,1-.41.79,1.56,1.56,0,0,1-.84.42,1.75,1.75,0,0,1-1-.11,2,2,0,0,1-.88-.73,3.21,3.21,0,0,1-.5-1.24,3,3,0,0,1,.13-1.91A2.41,2.41,0,0,1,44.77,200.17Zm2.58,12.25a3.23,3.23,0,0,1-2-.71,3.37,3.37,0,0,1-1.13-1.91,3.43,3.43,0,0,1,.38-2.74A3.82,3.82,0,0,1,47,205.48a5.18,5.18,0,0,1,1.26-.16,3.47,3.47,0,0,1,1.71.42,3.48,3.48,0,0,1,1.2,4.82,3.93,3.93,0,0,1-2.47,1.58l-.74.16,0,.13Zm-.53-4.5a1.47,1.47,0,0,0-.52.46,1.17,1.17,0,0,0-.14,1,1,1,0,0,0,.34.59,1.45,1.45,0,0,0,.8.28h.08Zm2.46,1.63a.78.78,0,0,0,.21-.19,1.09,1.09,0,0,0,.19-.94,1.15,1.15,0,0,0-.51-.73,1,1,0,0,0-.38-.14Zm-2,1.21.13,1.09a2.68,2.68,0,0,1-1.67-.58,3.22,3.22,0,0,1-.64-3.9A3.3,3.3,0,0,1,47.17,206a3.42,3.42,0,0,1,2.56.21,2.92,2.92,0,0,1,1,4,3.41,3.41,0,0,1-2.14,1.34l-.27.06-1.11-4.51a2.36,2.36,0,0,0-1.38.94,1.7,1.7,0,0,0-.22,1.39,1.65,1.65,0,0,0,.53.89A2,2,0,0,0,47.24,210.76Zm.83-3.77.83,3.37A2.21,2.21,0,0,0,50,209.7a1.67,1.67,0,0,0,.28-1.42,1.69,1.69,0,0,0-.77-1.07A2,2,0,0,0,48.07,207Zm-1.83,9.67.1,0a2.91,2.91,0,0,1-.57-1.06,3.07,3.07,0,0,1,0-1.75,3.25,3.25,0,0,1,1-1.51,4.57,4.57,0,0,1,1.75-.92,5,5,0,0,1,1.46-.22l.47,0a2.93,2.93,0,0,1,1.68.7,3,3,0,0,1,1,1.49,2.61,2.61,0,0,1,.09,1.17l2.37-.69.62,2.1-9.34,2.72Zm3.89-3.31a3.54,3.54,0,0,0-1,.17,2.21,2.21,0,0,0-1.26.75,1,1,0,0,0-.17.84,1,1,0,0,0,.56.61,1.43,1.43,0,0,0,.53.1h0a3,3,0,0,0,.87-.15A2.42,2.42,0,0,0,51,214.9a1,1,0,0,0,.15-.85.9.9,0,0,0-.55-.61A1.29,1.29,0,0,0,50.13,213.35Zm-3.19,3.7.76-.22a1.93,1.93,0,0,1-1.38-1.42,2.37,2.37,0,0,1,0-1.42,2.65,2.65,0,0,1,.83-1.25,3.92,3.92,0,0,1,1.53-.81,4.42,4.42,0,0,1,1.71-.17,2.46,2.46,0,0,1,1.37.57,2.43,2.43,0,0,1,.78,1.22,2.14,2.14,0,0,1,.05,1,2.18,2.18,0,0,1-.39.86l3-.87.29,1L47.22,218ZM49,213a2.77,2.77,0,0,0-1.58,1,1.51,1.51,0,0,0,.64,2.28,2.66,2.66,0,0,0,1.79,0,2.9,2.9,0,0,0,1.66-1,1.51,1.51,0,0,0-.64-2.3A2.86,2.86,0,0,0,49,213Zm1.47,15.55.1,0a2.73,2.73,0,0,1-.66-1,3,3,0,0,1-.16-1.75,3.3,3.3,0,0,1,.85-1.59,4.53,4.53,0,0,1,1.65-1.09,5,5,0,0,1,1.86-.37,3,3,0,0,1,1.79.54A3.12,3.12,0,0,1,57,224.61a2.81,2.81,0,0,1,.2,1.16l2.3-.91.8,2-9,3.59Zm3.73-3.67a3.27,3.27,0,0,0-1.13.26,2.21,2.21,0,0,0-1.18.87.94.94,0,0,0-.09.85.92.92,0,0,0,.62.56,1.06,1.06,0,0,0,.37.06h0a2.8,2.8,0,0,0,1-.24,2.45,2.45,0,0,0,1.27-.9.92.92,0,0,0,.08-.86.89.89,0,0,0-.61-.55A1.23,1.23,0,0,0,54.19,224.85Zm-3,4,.73-.29a2,2,0,0,1-1.51-1.28,2.46,2.46,0,0,1-.12-1.42,2.66,2.66,0,0,1,.7-1.32,4.07,4.07,0,0,1,1.45-.95,4.55,4.55,0,0,1,1.69-.34,2.44,2.44,0,0,1,1.42.44,2.51,2.51,0,0,1,.89,1.14,2.07,2.07,0,0,1-.16,1.91l2.87-1.14.39,1-8,3.18Zm1.65-4.25a2.66,2.66,0,0,0-1.47,1.13,1.52,1.52,0,0,0-.12,1.32,1.54,1.54,0,0,0,1,.89,2.64,2.64,0,0,0,1.78-.19,3,3,0,0,0,1.56-1.15,1.51,1.51,0,0,0,.11-1.35,1.47,1.47,0,0,0-1-.88A2.82,2.82,0,0,0,52.85,224.59Zm2.45,11a3.14,3.14,0,0,1-1.71-.63,3.59,3.59,0,0,1-1.14-1.44,3.38,3.38,0,0,1-.12-2.71,3.92,3.92,0,0,1,2.17-2,4.7,4.7,0,0,1,1.89-.46,3.24,3.24,0,0,1,1.31.28,3.5,3.5,0,0,1,1.71,1.78,3.38,3.38,0,0,1,.11,2.71,3.79,3.79,0,0,1-2.08,2,4.8,4.8,0,0,1-2,.5Zm1.2-5.07a2.7,2.7,0,0,0-1.09.28,2.14,2.14,0,0,0-1.14.93A1.18,1.18,0,0,0,55,233.3a1.29,1.29,0,0,0,.35,0,2.77,2.77,0,0,0,1.13-.29,2.08,2.08,0,0,0,1.1-.91,1.1,1.1,0,0,0,0-1,1.09,1.09,0,0,0-.73-.64A1,1,0,0,0,56.5,230.48Zm-1.77-1.23a3.2,3.2,0,0,1,2.73-.17,2.88,2.88,0,0,1,1.43,1.5,2.76,2.76,0,0,1,.1,2.26,3.19,3.19,0,0,1-1.78,1.69,4.14,4.14,0,0,1-1.88.45,2.57,2.57,0,0,1-1.4-.51,3.15,3.15,0,0,1-1-1.22,2.82,2.82,0,0,1-.1-2.27A3.37,3.37,0,0,1,54.73,229.25Zm.45,1a2.66,2.66,0,0,0-1.42,1.21,1.69,1.69,0,0,0,0,1.44,1.67,1.67,0,0,0,1.09,1,2.74,2.74,0,0,0,1.87-.27,2.61,2.61,0,0,0,1.38-1.2,1.67,1.67,0,0,0,0-1.43A1.72,1.72,0,0,0,57,230,2.7,2.7,0,0,0,55.18,230.24ZM61,246.56a3,3,0,0,1-1.21-.25,3.78,3.78,0,0,1-2-4.27,3.84,3.84,0,0,1,1.92-2.19,4.48,4.48,0,0,1,2.17-.64,3.16,3.16,0,0,1,.76.09A3.29,3.29,0,0,1,64.83,241a3.21,3.21,0,0,1,.31,2.64,3.94,3.94,0,0,1-2,2.19l-.67.35.06.13-.64.16A3.61,3.61,0,0,1,61,246.56Zm-.82-4.3a1.33,1.33,0,0,0-.37.58,1.13,1.13,0,0,0,.12,1,1,1,0,0,0,.48.47,1.08,1.08,0,0,0,.46.09,2.87,2.87,0,0,0,.39,0h.08Zm2.81.91a1,1,0,0,0,.15-.25,1.17,1.17,0,0,0-.76-1.51,1.25,1.25,0,0,0-.32,0H62Zm-1.64,1.71.42,1a2.63,2.63,0,0,1-1.76-.1,3.25,3.25,0,0,1-1.67-3.59A3.24,3.24,0,0,1,60,240.35a3.39,3.39,0,0,1,2.52-.5,2.74,2.74,0,0,1,1.79,1.4,2.66,2.66,0,0,1,.26,2.19,3.39,3.39,0,0,1-1.69,1.87l-.25.13-2.28-4a2.36,2.36,0,0,0-1.08,1.28,1.73,1.73,0,0,0,.16,1.4,1.6,1.6,0,0,0,.75.71A2,2,0,0,0,61.38,244.88ZM61.16,241l1.71,3a2.14,2.14,0,0,0,.83-.93,1.63,1.63,0,0,0-.11-1.44,1.68,1.68,0,0,0-1-.82A1.9,1.9,0,0,0,61.16,241Zm-1.27,6.4,6.25-3.9,1.16,1.86-6.25,3.9Zm6.27-3.91,2-1.25,1.16,1.86-2,1.25Zm-5.49,4.09,5.29-3.3.56.9-5.29,3.29Zm6.27-3.91,1-.65.56.9-1,.64Zm-.18,14.09,6-4.19-1.25-1.8L68.35,254a2.77,2.77,0,0,1-.89.47l-.17,0a.79.79,0,0,1-.35-.09,1.1,1.1,0,0,1-.48-.4.8.8,0,0,1-.16-.45.49.49,0,0,1,.15-.35,4.26,4.26,0,0,1,.78-.61l3.3-2.29-1.25-1.8L65.65,251a6,6,0,0,0-.86.69,2.63,2.63,0,0,0-.58.92,2.21,2.21,0,0,0,0,1.18,3.08,3.08,0,0,0,.5,1.18,2.89,2.89,0,0,0,1.08,1l-.16.12Zm-.39-1.56.75-.52a2.29,2.29,0,0,1-2-1,2.61,2.61,0,0,1-.42-1,1.82,1.82,0,0,1,0-.88,2,2,0,0,1,.46-.72,6.18,6.18,0,0,1,.77-.61l3.17-2.2.6.87-2.83,2a5.77,5.77,0,0,0-.88.68,1.15,1.15,0,0,0-.3.72,1.35,1.35,0,0,0,.26.79,1.8,1.8,0,0,0,.71.6,1.35,1.35,0,0,0,.88.1,3.28,3.28,0,0,0,1.1-.55l2.74-1.9.6.86L66.91,257Zm4.51,5.36a2.65,2.65,0,0,1-1.26-.34,4,4,0,0,1-1.18-1,3.49,3.49,0,0,1-.84-2.13,2.89,2.89,0,0,1,.84-1.93l.39-.43L70,256.85a.5.5,0,0,1,0-.12,2.1,2.1,0,0,1,.08-1.22,2,2,0,0,1,.71-.93,2.11,2.11,0,0,1,1-.43,2.19,2.19,0,0,1,.36,0,2.24,2.24,0,0,1,.68.1,2.83,2.83,0,0,1,.82.43,3.69,3.69,0,0,1,.77.76,4.28,4.28,0,0,1,.7,1.33,2.31,2.31,0,0,1,0,1.32,2.8,2.8,0,0,1-.68,1.1l-.4.43-1-1,.1.34a2.21,2.21,0,0,1,0,1.2,2.14,2.14,0,0,1-.76,1,2.32,2.32,0,0,1-1.28.47ZM70,257.66a.9.9,0,0,0-.31.6,1.27,1.27,0,0,0,.3.72c.28.36.47.45.57.47l.12,0a.25.25,0,0,0,.17-.06s.05,0,0-.1a4.75,4.75,0,0,0-.32-.88q-.24-.56-.39-1Zm2.2-1.46c-.06,0-.07.1,0,.23s.14.37.33.84c.08.2.16.38.22.54l.16-.16a.54.54,0,0,0,.19-.4.9.9,0,0,0-.25-.56c-.3-.39-.47-.47-.51-.48Zm-3.37.33.76.73a1.47,1.47,0,0,0-.46,1,1.68,1.68,0,0,0,.41,1.09,1.76,1.76,0,0,0,.89.68.92.92,0,0,0,.77-.15.65.65,0,0,0,.26-.59,5.31,5.31,0,0,0-.37-1.07,9.68,9.68,0,0,1-.58-1.58,1.51,1.51,0,0,1,.06-.9,1.48,1.48,0,0,1,.52-.69,1.55,1.55,0,0,1,.73-.32,1.72,1.72,0,0,1,.78,0,2.09,2.09,0,0,1,.65.35,3.12,3.12,0,0,1,.66.65,3.57,3.57,0,0,1,.61,1.15,1.7,1.7,0,0,1,0,1,2.17,2.17,0,0,1-.54.88l-.74-.74a1.12,1.12,0,0,0,.35-.78,1.5,1.5,0,0,0-.37-.92,1.64,1.64,0,0,0-.82-.67.68.68,0,0,0-.63.09.59.59,0,0,0-.22.33.94.94,0,0,0,0,.49c0,.11.15.41.35.9a15,15,0,0,1,.56,1.54,1.5,1.5,0,0,1-.58,1.64,1.85,1.85,0,0,1-1,.36,2.07,2.07,0,0,1-1.11-.27,3.2,3.2,0,0,1-1-.89,2.91,2.91,0,0,1-.72-1.77A2.39,2.39,0,0,1,68.86,256.53Zm8,13.72,3.72-3.1a2.67,2.67,0,0,0,1.1-1.77,2.43,2.43,0,0,0-.64-1.84,2.63,2.63,0,0,0-1.73-1,1.81,1.81,0,0,0,0-.52,2.66,2.66,0,0,0-.64-1.35,2.73,2.73,0,0,0-1.08-.81l.13-.11-1.33-1.6-5.66,4.71,1.4,1.68L75,262.14a3.09,3.09,0,0,1,.93-.6.77.77,0,0,1,.29-.05.91.91,0,0,1,.23,0,.94.94,0,0,1,.45.31c.19.23.16.34.15.38s-.11.28-.46.57l-3.55,3,1.4,1.69,3.22-2.68a1.55,1.55,0,0,1,.94-.43h0a.92.92,0,0,1,.64.35.59.59,0,0,1,.15.31.33.33,0,0,1,0,.22,2.77,2.77,0,0,1-.51.51l-3.46,2.87ZM71.49,263l4.79-4,.6.72-.67.56a2.27,2.27,0,0,1,1.06.13,2.18,2.18,0,0,1,.93.68,2,2,0,0,1,.5,1.05,1.56,1.56,0,0,1-.22,1,2.21,2.21,0,0,1,2.07.78,1.87,1.87,0,0,1,.52,1.42,2.2,2.2,0,0,1-.9,1.4l-3.29,2.73-.67-.81,3-2.51a3.1,3.1,0,0,0,.64-.66.92.92,0,0,0,.1-.57,1.16,1.16,0,0,0-.27-.6,1.53,1.53,0,0,0-1-.56,2,2,0,0,0-1.36.56l-2.78,2.32-.68-.82L77,263.22a1.74,1.74,0,0,0,.64-.88,1,1,0,0,0-.27-.87,1.47,1.47,0,0,0-.7-.48,1.33,1.33,0,0,0-.88,0,3.85,3.85,0,0,0-1.11.7l-2.49,2.07Zm7.8,8.27a3.14,3.14,0,0,1-1-.17,3.53,3.53,0,0,1-1.54-1,3.38,3.38,0,0,1-1-2.54,4.6,4.6,0,0,1,4.06-3.81,1.83,1.83,0,0,1,.33,0,3.43,3.43,0,0,1,2.19,1.14,3.37,3.37,0,0,1,1,2.53A3.81,3.81,0,0,1,82,270a4.59,4.59,0,0,1-1.87,1.15A3.3,3.3,0,0,1,79.29,271.23Zm.7-5.37a2.12,2.12,0,0,0-1.29.68,2.17,2.17,0,0,0-.79,1.25,1.17,1.17,0,0,0,1.16,1.29,2.23,2.23,0,0,0,1.37-.7,2.06,2.06,0,0,0,.75-1.22,1.18,1.18,0,0,0-1.17-1.3v-.56Zm-2.41-.53a3.22,3.22,0,0,1,2.53-1,2.86,2.86,0,0,1,1.83,1,2.81,2.81,0,0,1,.81,2.11,3.19,3.19,0,0,1-1.15,2.17,4,4,0,0,1-1.64,1,2.52,2.52,0,0,1-1.49,0,3.1,3.1,0,0,1-1.3-.85,2.78,2.78,0,0,1-.82-2.12A3.34,3.34,0,0,1,77.58,265.33Zm.73.8a2.69,2.69,0,0,0-1,1.6,1.66,1.66,0,0,0,.45,1.36,1.68,1.68,0,0,0,1.33.56,2.71,2.71,0,0,0,1.69-.86,2.51,2.51,0,0,0,.93-1.57A1.74,1.74,0,0,0,80,265.3,2.64,2.64,0,0,0,78.31,266.13Zm3.62,9,.07-.08a2.73,2.73,0,0,1-1-.65,3,3,0,0,1-.84-1.54,3.19,3.19,0,0,1,.14-1.8,4.54,4.54,0,0,1,1.07-1.65A5,5,0,0,1,83,268.32a3.08,3.08,0,0,1,1.24-.27,2.86,2.86,0,0,1,.58.06,3.08,3.08,0,0,1,1.55.84,2.75,2.75,0,0,1,.65,1l1.73-1.75,1.56,1.53-6.83,6.92Zm2.27-5a2.41,2.41,0,0,0-1.26.8,2.19,2.19,0,0,0-.74,1.27,1,1,0,0,0,.27.81.87.87,0,0,0,.66.26h.12a2.11,2.11,0,0,0,1.21-.72,2.44,2.44,0,0,0,.8-1.34,1,1,0,0,0-.28-.82.84.84,0,0,0-.64-.26Zm-1.47,4.95.55-.56a1.93,1.93,0,0,1-1.89-.56,2.54,2.54,0,0,1-.69-1.25,2.77,2.77,0,0,1,.12-1.5,4,4,0,0,1,.94-1.44,4.48,4.48,0,0,1,1.41-1,2.44,2.44,0,0,1,2.75.52,2,2,0,0,1,.55.87,2.17,2.17,0,0,1,.08.94L88.71,269l.75.73-6,6.12Zm-.19-4.55a2.73,2.73,0,0,0-.9,1.63,1.49,1.49,0,0,0,.43,1.25,1.45,1.45,0,0,0,1.23.42,2.59,2.59,0,0,0,1.56-.89,2.91,2.91,0,0,0,1-1.68,1.52,1.52,0,0,0-.45-1.27,1.46,1.46,0,0,0-1.24-.42A2.78,2.78,0,0,0,82.54,270.59Zm8.62,12.54,1-1.76-.48-.29a3.88,3.88,0,0,1-.33-.23,2.64,2.64,0,0,1,.18-.23l1.93-2.36.82.67,1.23-1.51-.82-.67,1.65-2-2.52-.36-.81,1-.6-.49-1.23,1.51.6.49-1.9,2.32a3.4,3.4,0,0,0-.79,1.24,1.53,1.53,0,0,0,0,1,2.37,2.37,0,0,0,.74.93,4,4,0,0,0,.78.5Zm.25-1.57-.47.82a5,5,0,0,1-.68-.43,1.91,1.91,0,0,1-.57-.7,1,1,0,0,1,0-.65,3.66,3.66,0,0,1,.69-1l2.25-2.76-.59-.49.51-.63.6.49,1-1.19,1.21.17-1.37,1.68.81.67-.51.63-.82-.67-2.29,2.8a2,2,0,0,0-.33.48.54.54,0,0,0,0,.28.79.79,0,0,0,.23.28A3.26,3.26,0,0,0,91.41,281.56Zm6.24,6.12a3.46,3.46,0,0,1-2.07-.76,3.41,3.41,0,0,1-1.45-2.36,3.84,3.84,0,0,1,.88-2.77,4,4,0,0,1,2.47-1.69,3.92,3.92,0,0,1,.59-.05,3.32,3.32,0,0,1,2,.72,3.22,3.22,0,0,1,1.35,2.3,3.94,3.94,0,0,1-.91,2.79l-.47.59.1.09-.52.41a3.2,3.2,0,0,1-2,.73ZM96.4,283.8a1.47,1.47,0,0,0-.11.69,1.15,1.15,0,0,0,.49.83,1,1,0,0,0,.64.24,1.45,1.45,0,0,0,.79-.3l.07,0Zm2.94-.29a1.16,1.16,0,0,0,0-.28,1.05,1.05,0,0,0-.46-.85,1.15,1.15,0,0,0-.69-.25l-.16,0a1,1,0,0,0-.39.12Zm-.82,2.23.79.76a2.62,2.62,0,0,1-1.65.61,2.9,2.9,0,0,1-1.74-.64,2.86,2.86,0,0,1-1.23-2,3.26,3.26,0,0,1,.78-2.36,3.42,3.42,0,0,1,2.11-1.47,2.94,2.94,0,0,1,3.32,2.47,3.38,3.38,0,0,1-.81,2.39,2.76,2.76,0,0,1-.17.22L96.21,283a2.4,2.4,0,0,0-.48,1.61,1.76,1.76,0,0,0,.71,1.22,1.7,1.7,0,0,0,1,.35A2,2,0,0,0,98.52,285.74Zm-1.74-3.44,2.78,2.08a2.13,2.13,0,0,0,.38-1.18,1.59,1.59,0,0,0-.68-1.27,1.68,1.68,0,0,0-1.27-.35A1.9,1.9,0,0,0,96.78,282.3ZM106.13,294l2.71-4a2.76,2.76,0,0,0,.56-2,2.46,2.46,0,0,0-1.14-1.59,2.66,2.66,0,0,0-1.53-.48l-.4,0a1.71,1.71,0,0,0-.14-.49,2.59,2.59,0,0,0-1-1.12,2.83,2.83,0,0,0-1.28-.48l.1-.15-1.72-1.16-4.12,6.1,1.81,1.23,2.13-3.15a3.22,3.22,0,0,1,.73-.84.77.77,0,0,1,.48-.16h0a1.07,1.07,0,0,1,.53.17.5.5,0,0,1,.25.32,1.26,1.26,0,0,1-.28.68l-2.58,3.83,1.81,1.22,2.34-3.47a1.49,1.49,0,0,1,.79-.68l.18,0a1,1,0,0,1,.54.18.62.62,0,0,1,.23.26.27.27,0,0,1,0,.21,2.3,2.3,0,0,1-.34.64l-2.51,3.72ZM99,288.48l3.48-5.16.78.53-.49.72a2.26,2.26,0,0,1,1.06-.17,2.37,2.37,0,0,1,1.86,1.26,1.54,1.54,0,0,1,.07,1,2.2,2.2,0,0,1,2.2.17,1.88,1.88,0,0,1,.9,1.22,2.2,2.2,0,0,1-.47,1.59l-2.4,3.55-.87-.59,2.2-3.26a2.59,2.59,0,0,0,.42-.81.9.9,0,0,0,0-.58,1.27,1.27,0,0,0-.43-.5,1.5,1.5,0,0,0-1.15-.24,1.91,1.91,0,0,0-1.15.91l-2,3-.88-.59,2.27-3.35a1.82,1.82,0,0,0,.38-1,1,1,0,0,0-.51-.77,1.56,1.56,0,0,0-.81-.26,1.31,1.31,0,0,0-.84.26,4,4,0,0,0-.87,1l-1.81,2.68Zm3.21,5.7,5.06-8.32L109,287l-.07.11a2.61,2.61,0,0,1,1.2.41,3,3,0,0,1,1.21,1.33,3.07,3.07,0,0,1,.23,1.79,5,5,0,0,1-2,3.23,3.12,3.12,0,0,1-1.78.58h0a3.13,3.13,0,0,1-1.68-.45,2.59,2.59,0,0,1-.8-.74l-1.28,2.1Zm6.46-5.2a1.53,1.53,0,0,0-.45.08,2.27,2.27,0,0,0-1.09,1.06,2.19,2.19,0,0,0-.44,1.38,1,1,0,0,0,.45.71.88.88,0,0,0,.47.13,1.15,1.15,0,0,0,.39-.07,2.31,2.31,0,0,0,1.08-1.07,2.2,2.2,0,0,0,.43-1.4.89.89,0,0,0-.42-.71A.78.78,0,0,0,108.65,289ZM103,294l4.47-7.36.82.5-.42.7a2.19,2.19,0,0,1,1-.21,2.11,2.11,0,0,1,1,.33,2.47,2.47,0,0,1,1.17,2.55,4.15,4.15,0,0,1-.59,1.56,4,4,0,0,1-1.18,1.29,2.63,2.63,0,0,1-1.46.49,2.6,2.6,0,0,1-1.39-.37,2,2,0,0,1-.69-.68,2.24,2.24,0,0,1-.3-.84l-1.57,2.59Zm3.65-4.17a2.73,2.73,0,0,0-.51,1.77,1.5,1.5,0,0,0,.71,1.1,1.53,1.53,0,0,0,1.34.12,2.82,2.82,0,0,0,1.38-1.31,2.68,2.68,0,0,0,.51-1.78,1.43,1.43,0,0,0-.69-1.11,1.48,1.48,0,0,0-1.34-.08A2.78,2.78,0,0,0,106.62,289.82Zm6.6,7.65a3.56,3.56,0,0,1-1.76-.46,3.38,3.38,0,0,1-1.73-2.1,3.88,3.88,0,0,1,.51-2.92,3.74,3.74,0,0,1,2.45-2.07,3.33,3.33,0,0,1,.7-.07,3.6,3.6,0,0,1,1.74.46,3.38,3.38,0,0,1,1.71,2.1,3.81,3.81,0,0,1-.45,2.85,4.69,4.69,0,0,1-1.41,1.68,3.07,3.07,0,0,1-1.74.53Zm.39-5.55a1.25,1.25,0,0,0-.42.08,2.78,2.78,0,0,0-1.35,2.48,1.19,1.19,0,0,0,1.13.93,1.35,1.35,0,0,0,.42-.08,2.28,2.28,0,0,0,1-1.09,2,2,0,0,0,.32-1.39,1.11,1.11,0,0,0-.58-.78A1.14,1.14,0,0,0,113.61,291.92Zm-2.88.34a3.23,3.23,0,0,1,2.08-1.78,2.85,2.85,0,0,1,2,.33,2.77,2.77,0,0,1,1.44,1.75,3.18,3.18,0,0,1-.4,2.42,4.16,4.16,0,0,1-1.22,1.49,2.51,2.51,0,0,1-1.44.43,3,3,0,0,1-1.5-.38,2.83,2.83,0,0,1-1.45-1.75A3.39,3.39,0,0,1,110.73,292.26Zm1,.52a2.69,2.69,0,0,0-.4,1.82,1.72,1.72,0,0,0,.87,1.16,1.67,1.67,0,0,0,1.43.1,2.67,2.67,0,0,0,1.33-1.35,2.55,2.55,0,0,0,.38-1.79,1.73,1.73,0,0,0-2.29-1.25A2.63,2.63,0,0,0,111.68,292.78Zm4.61,6.59,1.68-3.44a3.24,3.24,0,0,1,.6-.88.57.57,0,0,1,.39-.2.54.54,0,0,1,.21,0,.86.86,0,0,1,.36.35l.38.57,1.58-1.51-.25-.39a2.54,2.54,0,0,0-1-1,1.74,1.74,0,0,0-.77-.18h0l0,0-1.87-.91-3.24,6.6Zm-1.21-1.23,2.74-5.59.85.42-.42.85a2.68,2.68,0,0,1,1-.49,1.12,1.12,0,0,1,.7.11,2,2,0,0,1,.82.78l-.75.72a1.57,1.57,0,0,0-.6-.55,1,1,0,0,0-.65-.08,1.15,1.15,0,0,0-.6.34,4.34,4.34,0,0,0-.7,1L116,298.61Zm10.68,5.51,2.63-6.87,2,.78-2.62,6.87Zm2.63-6.89.84-2.19,2.05.78-.84,2.19Zm-1.9,6.56,2.22-5.81,1,.38-2.22,5.81Zm2.64-6.89.43-1.13,1,.38-.43,1.13Zm8.4,11.37,1.36-4.18a6.25,6.25,0,0,0,.29-1.1,2.56,2.56,0,0,0-.1-1.08,2.19,2.19,0,0,0-.67-1,3.08,3.08,0,0,0-1.12-.63,3.17,3.17,0,0,0-1-.17,2.28,2.28,0,0,0-.45,0l.06-.17-2-.65-2.28,7,2.08.68,1.23-3.77c.25-.78.51-1,.65-1a1,1,0,0,1,.44-.1,1.16,1.16,0,0,1,.4.07.78.78,0,0,1,.38.24.39.39,0,0,1,.12.28,2.17,2.17,0,0,1-.15.74l-1.35,4.14Zm-5.17-2.28,1.93-5.92.9.3-.27.84a2.22,2.22,0,0,1,2.2-.36,2.66,2.66,0,0,1,.92.51,1.72,1.72,0,0,1,.5.72,1.84,1.84,0,0,1,.07.85,6.09,6.09,0,0,1-.26,1l-1.18,3.63-1-.32,1.18-3.6a3,3,0,0,0,.18-1,1,1,0,0,0-.26-.62,1.29,1.29,0,0,0-.64-.41,1.71,1.71,0,0,0-1.24,0,2.13,2.13,0,0,0-1,1.39l-1.06,3.23Zm10.41,3.13a3.21,3.21,0,0,0,1.56-1.66l.25-.53-2-.86-.22.51a1.37,1.37,0,0,1-.56.71.9.9,0,0,1-.39.1,1.18,1.18,0,0,1-.31-.05,1,1,0,0,1-.69-.57,2.44,2.44,0,0,1,.06-1.5,2.29,2.29,0,0,1,.74-1.29,1,1,0,0,1,.57-.18,1.13,1.13,0,0,1,.36.06.74.74,0,0,1,.46.31,1.09,1.09,0,0,1,.15.71l0,.52,2.14.26.05-.58a3,3,0,0,0-.51-2,3.15,3.15,0,0,0-1.77-1.15,3.38,3.38,0,0,0-1-.14,3.18,3.18,0,0,0-.82.1,2.85,2.85,0,0,0-1.6,1,4.93,4.93,0,0,0-.9,1.82,4,4,0,0,0,.14,2.93,3.23,3.23,0,0,0,2.11,1.64,3.37,3.37,0,0,0,.93.13A3,3,0,0,0,142.77,308.65Zm.09-2.31,1,.41a2.65,2.65,0,0,1-1.29,1.38,2.47,2.47,0,0,1-1.82.12A2.63,2.63,0,0,1,139,306.9a3.39,3.39,0,0,1-.11-2.52,4.58,4.58,0,0,1,.8-1.61,2.34,2.34,0,0,1,1.29-.81,3.06,3.06,0,0,1,1.53,0,2.68,2.68,0,0,1,1.46.94,2.39,2.39,0,0,1,.4,1.63l-1-.13a1.63,1.63,0,0,0-.25-1,1.31,1.31,0,0,0-.78-.55,1.64,1.64,0,0,0-1.4.2,2.71,2.71,0,0,0-1,1.61,2.74,2.74,0,0,0,0,1.88,1.55,1.55,0,0,0,1.05.89,1.48,1.48,0,0,0,1.1-.09A1.91,1.91,0,0,0,142.86,306.34Zm.85,3.18,1.65-7.16,2.13.49L145.84,310Zm1.66-7.18.52-2.29,2.13.49-.52,2.29Zm-1,6.76,1.4-6.06,1,.23-1.4,6.07Zm1.65-7.19.28-1.18,1,.24-.27,1.18Zm7.77,9.73,0-.1a2.82,2.82,0,0,1-.65.08,3.51,3.51,0,0,1-.55-.05,3,3,0,0,1-1.56-.8,3.18,3.18,0,0,1-.9-1.56,4.48,4.48,0,0,1,0-2,5.1,5.1,0,0,1,.69-1.81,3,3,0,0,1,1.39-1.2,2.94,2.94,0,0,1,1.17-.23,3,3,0,0,1,.59.05,2.49,2.49,0,0,1,1.08.45l.45-2.44,2.14.4L155.89,312Zm-.3-5.62a.93.93,0,0,0-.61.25,2.43,2.43,0,0,0-.6,1.37,2.23,2.23,0,0,0,.11,1.46,1,1,0,0,0,.68.52l.18,0h0a1,1,0,0,0,.62-.25,2.09,2.09,0,0,0,.58-1.27,2.48,2.48,0,0,0-.08-1.56,1,1,0,0,0-.7-.52Zm1,5.17.14-.78a1.92,1.92,0,0,1-1.88.6,2.39,2.39,0,0,1-1.27-.65,2.68,2.68,0,0,1-.75-1.3,4.12,4.12,0,0,1,0-1.72,4.5,4.5,0,0,1,.61-1.61,2.4,2.4,0,0,1,1.13-1,2.33,2.33,0,0,1,1.43-.15,2,2,0,0,1,1,.41,2.1,2.1,0,0,1,.59.74l.55-3,1,.19-1.54,8.45Zm-2.72-3.66a2.66,2.66,0,0,0,.17,1.85,1.53,1.53,0,0,0,1.07.8,1.47,1.47,0,0,0,1.25-.35,2.58,2.58,0,0,0,.79-1.61,2.94,2.94,0,0,0-.15-1.93,1.52,1.52,0,0,0-1.09-.81,1.45,1.45,0,0,0-1.25.36A2.82,2.82,0,0,0,151.75,307.53Zm4.3,4.5,1-7.28,2.17.28-1,7.29Zm1-7.3.31-2.33,2.16.29-.3,2.32Zm-.32,6.81.81-6.16,1,.14-.81,6.16Zm1-7.3.16-1.2,1,.14-.16,1.2Zm8.66,9v-.11a2.67,2.67,0,0,1-.91.16l-.28,0a3,3,0,0,1-1.62-.64,3.3,3.3,0,0,1-1.05-1.48,4.46,4.46,0,0,1-.22-2,5,5,0,0,1,.51-1.86,3,3,0,0,1,2.71-1.68h.3a2.63,2.63,0,0,1,1.12.35l.21-2.47,2.18.2-.85,9.68Zm-.74-5.57a.9.9,0,0,0-.67.3,2.35,2.35,0,0,0-.47,1.42,2.2,2.2,0,0,0,.25,1.44,1,1,0,0,0,.72.46h0a1,1,0,0,0,.75-.3,2.14,2.14,0,0,0,.47-1.32,2.47,2.47,0,0,0-.23-1.54,1,1,0,0,0-.74-.46Zm1.35,5.05.07-.78a1.93,1.93,0,0,1-1.82.77,2.4,2.4,0,0,1-1.32-.53,2.73,2.73,0,0,1-.87-1.22,4,4,0,0,1-.19-1.72,4.39,4.39,0,0,1,.46-1.66,2.43,2.43,0,0,1,1-1.07,2.46,2.46,0,0,1,1.42-.28,2.07,2.07,0,0,1,1,.32,2,2,0,0,1,.66.68l.27-3.07,1.05.09-.76,8.56Zm-3-3.38a2.69,2.69,0,0,0,.35,1.82,1.48,1.48,0,0,0,1.13.69,1.46,1.46,0,0,0,1.22-.46,2.6,2.6,0,0,0,.63-1.67,2.83,2.83,0,0,0-.33-1.91,1.48,1.48,0,0,0-1.15-.7,1.44,1.44,0,0,0-1.22.47A2.76,2.76,0,0,0,163.87,309.31Zm7.5,4.33a2.83,2.83,0,0,0,1.28-.29v.2l2.07.09.3-7.35-2.18-.09-.16,3.9a2.7,2.7,0,0,1-.18,1,.76.76,0,0,1-.36.37,1.16,1.16,0,0,1-.6.14h0a.72.72,0,0,1-.46-.14.55.55,0,0,1-.19-.33,5.52,5.52,0,0,1,0-1l.17-4-2.19-.09-.18,4.41a5.85,5.85,0,0,0,0,1.1,2.49,2.49,0,0,0,.38,1,2.25,2.25,0,0,0,.91.76,3.24,3.24,0,0,0,1.24.31Zm1.87-.63,0-.91a2.28,2.28,0,0,1-2,1,2.64,2.64,0,0,1-1-.25,1.73,1.73,0,0,1-.69-.56,2.11,2.11,0,0,1-.29-.8,5.37,5.37,0,0,1,0-1l.16-3.85,1.06,0-.15,3.45a6.86,6.86,0,0,0,0,1.11,1.13,1.13,0,0,0,.4.67,1.27,1.27,0,0,0,.78.27,1.66,1.66,0,0,0,.9-.21,1.35,1.35,0,0,0,.62-.63,3.26,3.26,0,0,0,.22-1.21l.14-3.33,1.05,0-.25,6.22Zm1.62.62,2.19,0,0-4c0-.82.18-1.1.29-1.2a1.17,1.17,0,0,1,.8-.29.75.75,0,0,1,.43.11.44.44,0,0,1,.21.22,2.38,2.38,0,0,1,.08.76l0,4.35h2.19l0-4.39a6.14,6.14,0,0,0-.07-1.14,2.62,2.62,0,0,0-.43-1,2.21,2.21,0,0,0-1-.72,3.18,3.18,0,0,0-1.26-.24,3,3,0,0,0-1.41.34v-.19h-2.08Zm.56-.57,0-6.23h1v.88a2.23,2.23,0,0,1,2-1,2.66,2.66,0,0,1,1,.19,1.66,1.66,0,0,1,.71.53,2,2,0,0,1,.33.78,6.7,6.7,0,0,1,.07,1l0,3.83h-1.06l0-3.78a2.59,2.59,0,0,0-.13-1,1,1,0,0,0-.44-.51,1.32,1.32,0,0,0-.73-.19,1.68,1.68,0,0,0-1.16.44,2.05,2.05,0,0,0-.48,1.62l0,3.4Zm8,.49a4.85,4.85,0,0,0,.91-.16l.52-.13-.43-2-.54.11-.4.06q0-.09,0-.3l-.15-3.08,1.06-.05-.1-1.95-1.06.05-.13-2.61-2.12,1.43.07,1.29-.78,0,.1,1.95.78,0,.15,3a3.45,3.45,0,0,0,.25,1.46,1.6,1.6,0,0,0,.72.71,2.21,2.21,0,0,0,1,.2Zm.57-1.63.2.93a4.41,4.41,0,0,1-.8.13,1.81,1.81,0,0,1-.9-.14,1.08,1.08,0,0,1-.47-.45,4,4,0,0,1-.19-1.24l-.18-3.58-.77,0,0-.82.77,0-.07-1.54,1-.69.11,2.18,1.06-.06,0,.82-1.06.06.19,3.63a1.73,1.73,0,0,0,.08.58.41.41,0,0,0,.19.2.92.92,0,0,0,.37.06A4,4,0,0,0,184,311.92Zm12.42.43a2.89,2.89,0,0,0,1.34-.53l0,.19,2.05-.29-1.05-7.28-2.17.31.56,3.86a2.78,2.78,0,0,1,0,1,.83.83,0,0,1-.29.43,1.12,1.12,0,0,1-.58.25l-.16,0a.62.62,0,0,1-.31-.08.49.49,0,0,1-.25-.28,4.4,4.4,0,0,1-.19-1l-.58-4-2.17.31.64,4.38a6.24,6.24,0,0,0,.23,1.07,2.59,2.59,0,0,0,.56.94,2.29,2.29,0,0,0,1,.57,3.24,3.24,0,0,0,.82.11A2.56,2.56,0,0,0,196.38,312.35Zm1.85-1-.13-.9a2.45,2.45,0,0,1-2.85,1.26,1.62,1.62,0,0,1-.78-.42,1.94,1.94,0,0,1-.43-.73,4.42,4.42,0,0,1-.21-1l-.55-3.82,1-.15.5,3.42a5.65,5.65,0,0,0,.22,1.09,1,1,0,0,0,.51.58,1.25,1.25,0,0,0,.82.12,1.66,1.66,0,0,0,.85-.36,1.41,1.41,0,0,0,.49-.74,3.56,3.56,0,0,0,0-1.23l-.48-3.3,1-.15.89,6.16Zm3.91,0a4.49,4.49,0,0,0,.87-.27l.51-.21-.71-1.92-.53.18-.38.12c0-.06,0-.15-.07-.29l-.58-3,1-.2-.37-1.92-1,.2-.49-2.56-1.9,1.7.25,1.27-.76.15.37,1.92.76-.15.57,3a3.47,3.47,0,0,0,.45,1.41,1.5,1.5,0,0,0,.81.6,1.64,1.64,0,0,0,.6.1A2.7,2.7,0,0,0,202.14,311.33Zm.33-1.68.33.89a5.1,5.1,0,0,1-.77.24,1.83,1.83,0,0,1-.91,0,1.06,1.06,0,0,1-.53-.39,3.71,3.71,0,0,1-.36-1.2l-.67-3.51-.76.14-.16-.8.76-.15-.29-1.51.91-.82.41,2.14,1-.2.16.8-1,.2.68,3.57a1.59,1.59,0,0,0,.17.56.38.38,0,0,0,.22.17.7.7,0,0,0,.36,0Zm9.73-.66,2.1-.61L211.6,299l-2.1.61Zm.39-.7L210.2,300l1-.3L213.6,308Zm6.81-1.48a2.26,2.26,0,0,1-.94-.19,2.17,2.17,0,0,1-1.24-1.37,2.26,2.26,0,0,1,.33-2.13,3.47,3.47,0,0,1,.31-.36l-1.33.26-.07-.6a3.26,3.26,0,0,1,.12-1.42,2.59,2.59,0,0,1,.86-1.15,4.78,4.78,0,0,1,1.44-.75,4.45,4.45,0,0,1,1.4-.27,2.32,2.32,0,0,1,1.21.29,2.17,2.17,0,0,1,.73.77,5.9,5.9,0,0,1,.42,1l.45,1.33a15.57,15.57,0,0,0,.62,1.66,1.87,1.87,0,0,0,.38.47l.72.64-2.3.78-.31-.31a3.43,3.43,0,0,1-.46.47,3.9,3.9,0,0,1-1.22.67A3.63,3.63,0,0,1,219.4,306.81Zm1.67-3.62c-.27.16-.58.33-.94.52a3,3,0,0,0-.68.41.3.3,0,0,0-.11.18.28.28,0,0,0,0,.2.31.31,0,0,0,.21.22.4.4,0,0,0,.17,0,1.34,1.34,0,0,0,.4-.08,1.71,1.71,0,0,0,.7-.44,1.09,1.09,0,0,0,.29-.61A1.85,1.85,0,0,0,221.07,303.19ZM220,300.93a1.72,1.72,0,0,0-.58.12,1.22,1.22,0,0,0-.67.39,1,1,0,0,0-.1.67v.11c.16-.09.36-.19.58-.29.52-.25.93-.47,1.24-.66-.1-.23-.19-.28-.21-.28A.6.6,0,0,0,220,300.93Zm2.26,3.54a4.15,4.15,0,0,1-.84,1,3.18,3.18,0,0,1-1,.57,2.24,2.24,0,0,1-1.65,0,1.66,1.66,0,0,1-.94-1,1.7,1.7,0,0,1-.07-.86,1.8,1.8,0,0,1,.32-.75,2.55,2.55,0,0,1,.61-.57,7.1,7.1,0,0,1,.84-.45,10.06,10.06,0,0,0,1.66-.95l-.08-.26a1.16,1.16,0,0,0-.58-.77,1.76,1.76,0,0,0-1.25.05,1.89,1.89,0,0,0-1,.6,1.67,1.67,0,0,0-.2,1l-1,.2a2.54,2.54,0,0,1,.1-1.16,1.94,1.94,0,0,1,.68-.89,4.28,4.28,0,0,1,1.26-.67,3.59,3.59,0,0,1,1.29-.23,1.72,1.72,0,0,1,.85.21,1.86,1.86,0,0,1,.54.57,6.19,6.19,0,0,1,.36.9l.45,1.34q.48,1.38.66,1.74a2.44,2.44,0,0,0,.5.62l-1.05.35A2.17,2.17,0,0,1,222.22,304.47Zm-.84-2.2a8.16,8.16,0,0,1-1.51.93,3.91,3.91,0,0,0-.8.5.83.83,0,0,0-.28.46.84.84,0,0,0,0,.52.92.92,0,0,0,.53.56,1.36,1.36,0,0,0,1,0,2.12,2.12,0,0,0,.94-.6,1.6,1.6,0,0,0,.43-.92,2.55,2.55,0,0,0-.18-1.05Zm-.71-6.15,2-.79.9,2.29a2.74,2.74,0,0,1,1-.64,3.41,3.41,0,0,1,1.17-.22h.17a2.85,2.85,0,0,1,1.28.38,3.73,3.73,0,0,1,1,.88,4.59,4.59,0,0,1,.72,1.26,4.11,4.11,0,0,1,.17,3,3,3,0,0,1-1.77,1.84,2.68,2.68,0,0,1-1,.19h-.18l0,.11-2,.77Zm4.87,2.7a.85.85,0,0,0-.31.06,1,1,0,0,0-.57.65,2.1,2.1,0,0,0,.16,1.41,2.5,2.5,0,0,0,.69,1.15,1,1,0,0,0,.66.26h0a.86.86,0,0,0,.34-.07.91.91,0,0,0,.56-.65,2.21,2.21,0,0,0-.17-1.46A2.34,2.34,0,0,0,226,299,1.05,1.05,0,0,0,225.54,298.82Zm-.09,5.27-.91.35-3.13-8,1-.39,1.12,2.85a2.09,2.09,0,0,1,1.28-1.4,2.6,2.6,0,0,1,1.1-.18,2.24,2.24,0,0,1,1,.3,3.12,3.12,0,0,1,.85.75,4.3,4.3,0,0,1,.64,1.11,3.54,3.54,0,0,1,.16,2.59,2.47,2.47,0,0,1-1.45,1.51,2,2,0,0,1-1.94-.23Zm-1.16-2.94a3.3,3.3,0,0,0,.87,1.4,1.52,1.52,0,0,0,1.55.26,1.54,1.54,0,0,0,.9-1,3.49,3.49,0,0,0-1.29-3.35,1.47,1.47,0,0,0-1.3-.12,1.5,1.5,0,0,0-.89,1A2.59,2.59,0,0,0,224.29,301.15Zm7.17.93a3.18,3.18,0,0,1-1.21-.24,3.94,3.94,0,0,1-2-2.17,3.74,3.74,0,0,1-.16-3.2,3.44,3.44,0,0,1,1.79-1.71,3.64,3.64,0,0,1,1.48-.33,3.27,3.27,0,0,1,1.22.24,3.71,3.71,0,0,1,2,2.08,4.6,4.6,0,0,1,.49,2.14,3.14,3.14,0,0,1-.63,1.71,3.68,3.68,0,0,1-1.44,1.14A3.83,3.83,0,0,1,231.46,302.08Zm-.32-5.59a1.13,1.13,0,0,0-.46.1,1.1,1.1,0,0,0-.65.73,2.1,2.1,0,0,0,.22,1.44,2.14,2.14,0,0,0,.93,1.14,1.14,1.14,0,0,0,.49.12,1.2,1.2,0,0,0,.48-.11,1.11,1.11,0,0,0,.64-.73,2.19,2.19,0,0,0-.24-1.48,2,2,0,0,0-.91-1.1A1.13,1.13,0,0,0,231.14,296.49Zm-2.39,2.95a3.21,3.21,0,0,1-.17-2.73,2.9,2.9,0,0,1,1.51-1.43,2.79,2.79,0,0,1,2.26-.09A3.24,3.24,0,0,1,234,297a4.24,4.24,0,0,1,.44,1.87,2.6,2.6,0,0,1-.53,1.41,3,3,0,0,1-1.21,1,2.82,2.82,0,0,1-2.27.09A3.3,3.3,0,0,1,228.75,299.44Zm1-.45a2.63,2.63,0,0,0,1.2,1.43,1.73,1.73,0,0,0,2.39-1.07,2.7,2.7,0,0,0-.26-1.88,2.6,2.6,0,0,0-1.19-1.38,1.65,1.65,0,0,0-1.44,0,1.64,1.64,0,0,0-.95,1.07A2.58,2.58,0,0,0,229.74,299Zm6.07,1.3,2-1-1.72-3.42a3.88,3.88,0,0,1-.34-1,.65.65,0,0,1,0-.35.47.47,0,0,1,.21-.21.91.91,0,0,1,.46-.09l.72,0-.24-2.17-.46,0-.3,0a2.5,2.5,0,0,0-1.13.26,1.59,1.59,0,0,0-.61.51l0,0-1.86.94Zm.26-.76L233.28,294l.85-.43.42.85a2.63,2.63,0,0,1,.21-1.09,1.21,1.21,0,0,1,.51-.49,2,2,0,0,1,1.12-.18l.11,1a1.55,1.55,0,0,0-.79.14,1,1,0,0,0-.46.47,1.06,1.06,0,0,0-.1.69,4.33,4.33,0,0,0,.4,1.18l1.46,2.91Zm6.4-3a3.28,3.28,0,0,1-.93-.14,3.92,3.92,0,0,1-2.18-1.93,4,4,0,0,1-.54-2.94,3.31,3.31,0,0,1,1.68-2.14,3.41,3.41,0,0,1,1.66-.46,3,3,0,0,1,1,.16,4,4,0,0,1,2.19,2l.35.67.12-.05.16.63a3.18,3.18,0,0,1-.14,2.12,3.41,3.41,0,0,1-1.53,1.6A3.74,3.74,0,0,1,242.47,296.54Zm-.7-2.53a1.42,1.42,0,0,0,.58.38,1.2,1.2,0,0,0,.36.05,1.14,1.14,0,0,0,.6-.17,1,1,0,0,0,.48-.48,1.5,1.5,0,0,0,.05-.84l0-.09Zm.26-3a1,1,0,0,0-.54.16,1.08,1.08,0,0,0-.56.68,1.4,1.4,0,0,0-.05.41l1.81-1a1,1,0,0,0-.24-.14A1.1,1.1,0,0,0,242,291Zm2.37,1.88,1-.41a2.63,2.63,0,0,1-.11,1.76,3.21,3.21,0,0,1-3.59,1.65,3.24,3.24,0,0,1-1.85-1.66,3.45,3.45,0,0,1-.49-2.52,2.76,2.76,0,0,1,1.41-1.79,2.66,2.66,0,0,1,2.19-.25,3.33,3.33,0,0,1,1.86,1.7,2.2,2.2,0,0,1,.13.24l-4.05,2.27a2.42,2.42,0,0,0,1.28,1.09,1.73,1.73,0,0,0,1.4-.16,1.55,1.55,0,0,0,.71-.75A2.09,2.09,0,0,0,244.4,292.85Zm-3.86.21,3-1.7a2.07,2.07,0,0,0-.92-.83,1.63,1.63,0,0,0-1.44.1,1.7,1.7,0,0,0-.83,1A1.94,1.94,0,0,0,240.54,293.06Zm12.38-3a3.49,3.49,0,0,1-.65-.06,3.89,3.89,0,0,1-2.35-1.73,4,4,0,0,1-.81-2.87,3.54,3.54,0,0,1,3.37-2.91,3.43,3.43,0,0,1,.71.08,3.93,3.93,0,0,1,2.35,1.75l.42.64.12-.07.21.62a3.25,3.25,0,0,1,.06,2.13,3.41,3.41,0,0,1-1.39,1.73A3.55,3.55,0,0,1,252.92,290Zm-.65-2.46a1.42,1.42,0,0,0,.62.32l.26,0a1.24,1.24,0,0,0,.69-.23,1.06,1.06,0,0,0,.42-.53,1.42,1.42,0,0,0,0-.84l0-.08Zm.08-3.05a1.08,1.08,0,0,0-.62.21,1,1,0,0,0-.49.73,1.08,1.08,0,0,0,0,.4l1.7-1.17a.81.81,0,0,0-.25-.12A1,1,0,0,0,252.35,284.51Zm2.43,1.66,1-.51a2.61,2.61,0,0,1,.05,1.76,3.22,3.22,0,0,1-3.43,2,3.3,3.3,0,0,1-2-1.49,3.43,3.43,0,0,1-.72-2.46,2.75,2.75,0,0,1,1.24-1.91,2.69,2.69,0,0,1,2.16-.46,3.4,3.4,0,0,1,2,1.53l.15.23-3.82,2.63a2.42,2.42,0,0,0,1.37,1,1.76,1.76,0,0,0,1.38-.29,1.61,1.61,0,0,0,.64-.81A2,2,0,0,0,254.78,286.17Zm-3.82.55,2.87-2a2.14,2.14,0,0,0-1-.74,1.64,1.64,0,0,0-1.42.24,1.67,1.67,0,0,0-.73,1.09A1.94,1.94,0,0,0,251,286.72Zm7.2-.06a2.3,2.3,0,0,0,1.09-.5,5,5,0,0,0,.67-.64l.35-.41-1.48-1.4-.39.39-.29.28a2.49,2.49,0,0,1-.19-.24l-1.86-2.44.85-.65-1.19-1.55-.84.64-1.58-2.08-.94,2.37.78,1-.62.47,1.19,1.55.61-.47,1.82,2.41a4.09,4.09,0,0,0,1,1.06,1.54,1.54,0,0,0,.76.2Zm.64-2.16.69.65a4.28,4.28,0,0,1-.58.56,1.78,1.78,0,0,1-.82.39,1.05,1.05,0,0,1-.64-.11,3.92,3.92,0,0,1-.86-.92l-2.16-2.85-.62.47-.49-.66.61-.46-.93-1.23.46-1.14,1.31,1.73.85-.64.49.66-.84.64,2.19,2.9a2,2,0,0,0,.4.42.42.42,0,0,0,.27.06.63.63,0,0,0,.33-.16A2.81,2.81,0,0,0,258.8,284.5Zm8.61-6a3.54,3.54,0,0,1-1.3-.26,4.61,4.61,0,0,1-1.61-1.16,5.28,5.28,0,0,1-1-1.65,3,3,0,0,1,.8-3.35,2.7,2.7,0,0,1,1-.61l-1.68-1.83,1.61-1.48,6.61,7.2-1.56,1.43-.07-.08a2.73,2.73,0,0,1-.7,1,3.09,3.09,0,0,1-1.59.77A2.89,2.89,0,0,1,267.41,278.52Zm-1.06-5.26a.89.89,0,0,0-.64.25.87.87,0,0,0-.3.77,2.37,2.37,0,0,0,.73,1.31,2.15,2.15,0,0,0,1.24.8h.19a.88.88,0,0,0,.64-.23.91.91,0,0,0,.3-.78,2,2,0,0,0-.66-1.24,2.5,2.5,0,0,0-1.3-.88ZM270.3,276l-.53-.58a1.92,1.92,0,0,1-.66,1.86,2.45,2.45,0,0,1-1.29.63,2.68,2.68,0,0,1-1.49-.19,4.05,4.05,0,0,1-1.41-1,4.42,4.42,0,0,1-.92-1.46,2.48,2.48,0,0,1-.1-1.49,2.57,2.57,0,0,1,.75-1.25,2.11,2.11,0,0,1,.91-.5,2.18,2.18,0,0,1,.95,0l-2.1-2.28.78-.72,5.84,6.36Zm-4.58,0a2.77,2.77,0,0,0,1.59,1,1.53,1.53,0,0,0,1.29-.38,1.47,1.47,0,0,0,.48-1.21,2.62,2.62,0,0,0-.82-1.61,2.89,2.89,0,0,0-1.63-1.05,1.53,1.53,0,0,0-1.31.38,1.46,1.46,0,0,0-.48,1.22A2.87,2.87,0,0,0,265.72,276Zm6-1.71A3.93,3.93,0,0,1,269,273a3.81,3.81,0,0,1-1.3-2.94,3.41,3.41,0,0,1,1.07-2.24,3.33,3.33,0,0,1,2.44-1.06A3.77,3.77,0,0,1,273.9,268a4.64,4.64,0,0,1,1.23,1.83,3.13,3.13,0,0,1,0,1.82,3.74,3.74,0,0,1-.94,1.59,3.39,3.39,0,0,1-2.44,1.07Zm-.67-5.41a1.09,1.09,0,0,0-.82.34,1.12,1.12,0,0,0-.35.91,2.11,2.11,0,0,0,.73,1.28,2.16,2.16,0,0,0,1.28.73h0a1.17,1.17,0,0,0,.9-.34,1.15,1.15,0,0,0,.34-.91,2.3,2.3,0,0,0-.76-1.31,2.08,2.08,0,0,0-1.25-.7Zm-1.61,3.7a3.24,3.24,0,0,1-1.13-2.5,2.86,2.86,0,0,1,.9-1.88,2.74,2.74,0,0,1,2.08-.89,3.16,3.16,0,0,1,2.23,1.07,4.23,4.23,0,0,1,1.09,1.59,2.59,2.59,0,0,1,0,1.51,3,3,0,0,1-.8,1.34,2.79,2.79,0,0,1-2.09.9A3.42,3.42,0,0,1,269.42,272.56Zm.77-.77a2.75,2.75,0,0,0,1.64.9,1.73,1.73,0,0,0,1.36-.51,1.65,1.65,0,0,0,.5-1.35,2.7,2.7,0,0,0-.92-1.67,2.67,2.67,0,0,0-1.62-.87,1.77,1.77,0,0,0-1.86,1.86A2.72,2.72,0,0,0,270.19,271.79Zm6.12-1,1.48-1.62-7.21-6.53-1.47,1.62Zm0-.8-6.37-5.77.71-.78,6.36,5.77Zm3.73-4.89a4,4,0,0,1-2.55-1,3.8,3.8,0,0,1-1.57-2.8,3.49,3.49,0,0,1,.85-2.32,3.36,3.36,0,0,1,2.37-1.29h.25a3.92,3.92,0,0,1,2.47,1,4.72,4.72,0,0,1,1.39,1.7,3.14,3.14,0,0,1,.19,1.82,3.65,3.65,0,0,1-.78,1.65,3.38,3.38,0,0,1-2.39,1.3Zm-.86-5.31A1.16,1.16,0,0,0,278,261.2a2.13,2.13,0,0,0,.85,1.19,2.17,2.17,0,0,0,1.3.61,1.12,1.12,0,0,0,.9-.43,1.1,1.1,0,0,0,.25-.94,2.18,2.18,0,0,0-.87-1.21,2.07,2.07,0,0,0-1.27-.58v-.57Zm-1.33,3.82a3.22,3.22,0,0,1-1.36-2.37,2.94,2.94,0,0,1,.71-2,2.8,2.8,0,0,1,2-1.08,3.2,3.2,0,0,1,2.31.85,4.28,4.28,0,0,1,1.23,1.48,2.53,2.53,0,0,1,.15,1.49,2.93,2.93,0,0,1-.66,1.4,2.83,2.83,0,0,1-2,1.1A3.36,3.36,0,0,1,277.82,263.66Zm.69-.83a2.67,2.67,0,0,0,1.72.73,1.63,1.63,0,0,0,1.29-.63,1.66,1.66,0,0,0,.37-1.39,2.73,2.73,0,0,0-1.07-1.56,2.58,2.58,0,0,0-1.69-.71,1.68,1.68,0,0,0-1.28.63,1.63,1.63,0,0,0-.38,1.39A2.67,2.67,0,0,0,278.51,262.83Zm6-1.54,1.31-1.75-3.06-2.3a3.55,3.55,0,0,1-.75-.75.56.56,0,0,1-.12-.34.44.44,0,0,1,.09-.27.86.86,0,0,1,.41-.3l.63-.26-1.19-1.84-.43.17a2.66,2.66,0,0,0-1.17.85,1.7,1.7,0,0,0-.32.73l0,0-1.25,1.67Zm-.11-.79-5-3.74L280,256l.75.57a2.68,2.68,0,0,1-.29-1.06,1.23,1.23,0,0,1,.23-.67,2.18,2.18,0,0,1,.93-.66l.56.87a1.62,1.62,0,0,0-.65.49,1,1,0,0,0-.2.62,1.13,1.13,0,0,0,.23.66,3.86,3.86,0,0,0,.88.88l2.6,1.95Zm3-5.23a4.11,4.11,0,0,1-2.3-.8,4,4,0,0,1-1.8-2.38,3.33,3.33,0,0,1,.55-2.66A3.22,3.22,0,0,1,286.1,248a2.59,2.59,0,0,1,.48,0,4.23,4.23,0,0,1,2.35.82l.61.44.09-.1.43.49a3.22,3.22,0,0,1,.82,2,3.79,3.79,0,0,1-2.95,3.67A2.92,2.92,0,0,1,287.42,255.27Zm-.35-2.27a1.56,1.56,0,0,0,.5.09h0l.19,0a1.18,1.18,0,0,0,.81-.53,1.11,1.11,0,0,0,.21-.65,1.45,1.45,0,0,0-.34-.77l0-.07Zm-.71-2.95a1.06,1.06,0,0,0-.83.49,1.08,1.08,0,0,0-.19.86,1,1,0,0,0,.14.38l1.16-1.71a.86.86,0,0,0-.22,0Zm2.54.74.73-.83a2.66,2.66,0,0,1,.69,1.62,3.25,3.25,0,0,1-2.48,3.09,3.24,3.24,0,0,1-2.4-.66,3.41,3.41,0,0,1-1.56-2,2.75,2.75,0,0,1,.46-2.23,2.65,2.65,0,0,1,1.85-1.2,3.36,3.36,0,0,1,2.42.69l.23.16-2.61,3.84a2.43,2.43,0,0,0,1.63.4,1.72,1.72,0,0,0,1.18-.77,1.62,1.62,0,0,0,.3-1A2,2,0,0,0,288.9,250.79Zm-3.35,1.9,1.95-2.87a2.12,2.12,0,0,0-1.2-.34,1.65,1.65,0,0,0-1.24.74,1.7,1.7,0,0,0-.28,1.29A1.91,1.91,0,0,0,285.55,252.69Zm9.58-7.06,1-1.92-3.33-1.82a3.24,3.24,0,0,1-.91-.65.76.76,0,0,1-.2-.47,1,1,0,0,1,.12-.53.44.44,0,0,1,.35-.29,1.43,1.43,0,0,1,.64.22l4.06,2.21,1.05-1.92-3.68-2a1.45,1.45,0,0,1-.75-.72,1,1,0,0,1,.09-.73.58.58,0,0,1,.24-.25.33.33,0,0,1,.19-.05h0a2.69,2.69,0,0,1,.66.28l3.95,2.16,1-1.92-4.25-2.32a3.11,3.11,0,0,0-1.51-.44,1.9,1.9,0,0,0-.54.07,2.45,2.45,0,0,0-1.48,1.28,2.6,2.6,0,0,0-.27,2,2.72,2.72,0,0,0-.47.19,2.6,2.6,0,0,0-1,1.09,2.87,2.87,0,0,0-.36,1.31l-.15-.08-1,1.82Zm-.23-.77-5.48-3,.46-.83.76.42a2.33,2.33,0,0,1-.27-1,2.14,2.14,0,0,1,.29-1.11,2,2,0,0,1,.8-.86,1.5,1.5,0,0,1,1-.16,2.26,2.26,0,0,1,0-2.22,1.94,1.94,0,0,1,1.14-1,2.25,2.25,0,0,1,1.63.32l3.76,2.05-.51.93L295,236.49a2.7,2.7,0,0,0-.85-.35.89.89,0,0,0-.57.11,1.1,1.1,0,0,0-.45.48,1.46,1.46,0,0,0-.14,1.17,1.89,1.89,0,0,0,1,1l3.18,1.73-.51.93-3.55-1.94a1.85,1.85,0,0,0-1.06-.28,1,1,0,0,0-.71.58,1.52,1.52,0,0,0-.19.83,1.33,1.33,0,0,0,.34.81,3.81,3.81,0,0,0,1.06.78l2.84,1.55Zm2.13-5.14a2.33,2.33,0,0,1-2.3-2,3.87,3.87,0,0,1,0-.48l-.76,1.13-.48-.37a3.07,3.07,0,0,1-.92-1.09,2.55,2.55,0,0,1-.21-1.42,5,5,0,0,1,.48-1.56,4.39,4.39,0,0,1,.86-1.25,2.34,2.34,0,0,1,1-.59,2.42,2.42,0,0,1,.47,0,2.46,2.46,0,0,1,.59.08,5.61,5.61,0,0,1,1,.42l1.27.62a14.62,14.62,0,0,0,1.61.72,1.66,1.66,0,0,0,.49.07l1.08-.06-1.07,2.18h-.44a3.68,3.68,0,0,1,0,.66,4,4,0,0,1-.39,1.34,2.79,2.79,0,0,1-1.44,1.47A2.2,2.2,0,0,1,297,239.72Zm.23-4.45c-.07.3-.17.65-.3,1a3.19,3.19,0,0,0-.18.77.35.35,0,0,0,0,.21.5.5,0,0,0,.15.14l.16,0,.15,0a1,1,0,0,0,.37-.44,1.54,1.54,0,0,0,.18-.81,1,1,0,0,0-.23-.63A1.26,1.26,0,0,0,297.26,235.27Zm-2.09-1a1.16,1.16,0,0,0-.62.66,1.24,1.24,0,0,0-.2.75,1,1,0,0,0,.41.55l.09.08c0-.18.11-.39.19-.63a13,13,0,0,0,.41-1.34A.72.72,0,0,0,295.17,234.3Zm3.81,1.07a3.72,3.72,0,0,1,.14,1.32,3.22,3.22,0,0,1-.33,1.14,2.31,2.31,0,0,1-1.14,1.2,1.68,1.68,0,0,1-1.4-.07,1.8,1.8,0,0,1-.66-.56,1.75,1.75,0,0,1-.3-.75,2.65,2.65,0,0,1,0-.84,7,7,0,0,1,.27-.91,9.9,9.9,0,0,0,.5-1.85l-.24-.13a1.18,1.18,0,0,0-.95-.13,1.72,1.72,0,0,0-.85.92,1.88,1.88,0,0,0-.25,1.1,1.55,1.55,0,0,0,.6.88l-.58.87a2.48,2.48,0,0,1-.76-.89,2,2,0,0,1-.15-1.11,3.9,3.9,0,0,1,.42-1.37,3.55,3.55,0,0,1,.74-1.08,1.57,1.57,0,0,1,.74-.45,1.68,1.68,0,0,1,.8,0,5.09,5.09,0,0,1,.89.38l1.27.62a14,14,0,0,0,1.7.75,2.12,2.12,0,0,0,.79.09l-.48,1A2.1,2.1,0,0,1,299,235.37Zm-2.15-1a8.33,8.33,0,0,1-.4,1.72,3.94,3.94,0,0,0-.22.92.86.86,0,0,0,.13.53.92.92,0,0,0,.38.35.89.89,0,0,0,.78,0,1.32,1.32,0,0,0,.66-.71,2.2,2.2,0,0,0,.24-1.1,1.64,1.64,0,0,0-.35-.94,2.52,2.52,0,0,0-.88-.62Zm5.08.47a2.65,2.65,0,0,1-1.09-.25l-.58-.27.65-1.06a2.79,2.79,0,0,1-.83.34,3.81,3.81,0,0,1-.95.12,4.35,4.35,0,0,1-1.73-.37,4.7,4.7,0,0,1-1.57-1.07,3,3,0,0,1-.63-3.41,2.85,2.85,0,0,1,.74-1l-.12-.05.83-1.94,5.47,2.33a5.35,5.35,0,0,1,2,1.23,2.71,2.71,0,0,1,.65,1.55,3.81,3.81,0,0,1-.34,1.87,3.48,3.48,0,0,1-1.39,1.72A2.13,2.13,0,0,1,301.91,234.88Zm-.16-2.2.2,0c.08,0,.12,0,.14,0a1.18,1.18,0,0,0,.45-.6,1.45,1.45,0,0,0,.15-.8,1,1,0,0,0-.34-.51l0,0a2.86,2.86,0,0,1-.23,1.1,3.35,3.35,0,0,1-.46.79ZM298.1,229a1.16,1.16,0,0,0-.38.06,1,1,0,0,0-.66.58,1,1,0,0,0,0,.85,2,2,0,0,0,1.08.84,2.94,2.94,0,0,0,1.12.28,1,1,0,0,0,.32,0,1,1,0,0,0,.65-.59,1,1,0,0,0,0-.87,2.14,2.14,0,0,0-1.13-.86A2.52,2.52,0,0,0,298.1,229Zm3,5.12.54-.88a1,1,0,0,0,.78-.06,1.74,1.74,0,0,0,.69-.87,1.86,1.86,0,0,0,.17-1.16,1.46,1.46,0,0,0-.54-.81,6.06,6.06,0,0,0-1.22-.6,2.16,2.16,0,0,1,.08,1.9,2.32,2.32,0,0,1-1.64,1.46,3.52,3.52,0,0,1-2.31-.22,4,4,0,0,1-1.39-.94,2.48,2.48,0,0,1-.52-2.8,2.24,2.24,0,0,1,1.53-1.32l-.69-.29.39-.9,4.94,2.11a5,5,0,0,1,1.78,1.08,2.14,2.14,0,0,1,.52,1.24,3.31,3.31,0,0,1-.3,1.59,3,3,0,0,1-1.16,1.45A1.69,1.69,0,0,1,301.06,234.11Zm-3.1-2.27a2.73,2.73,0,0,0,1.84.26,1.6,1.6,0,0,0,.95-2.24,3.27,3.27,0,0,0-3.2-1.35,1.56,1.56,0,0,0-1,.89,1.52,1.52,0,0,0,0,1.33A2.55,2.55,0,0,0,298,231.84Zm5.48-3.11.79-2-3.69-1.43c-.76-.29-1-.57-1-.7a1.16,1.16,0,0,1,0-.84.8.8,0,0,1,.26-.37.45.45,0,0,1,.28-.11,2.27,2.27,0,0,1,.74.2l4.05,1.57.79-2-4.09-1.58a6.1,6.1,0,0,0-1.09-.35,2.56,2.56,0,0,0-.47,0,2.35,2.35,0,0,0-.6.08,2.2,2.2,0,0,0-1,.61,3.07,3.07,0,0,0-.69,1.09,3,3,0,0,0-.21,1.42l-.16-.06-.76,1.94Zm-.32-.74-5.79-2.24.34-.88.82.32a2.23,2.23,0,0,1-.24-2.21,2.6,2.6,0,0,1,.56-.89,1.71,1.71,0,0,1,.75-.47,2.14,2.14,0,0,1,.84,0,6.12,6.12,0,0,1,1,.31l3.56,1.38-.38,1L301,222.91a3,3,0,0,0-1-.23,1,1,0,0,0-.63.22,1.37,1.37,0,0,0-.44.62,1.69,1.69,0,0,0,0,1.23,2.1,2.1,0,0,0,1.33,1l3.16,1.22Zm1.13-5.38a2.63,2.63,0,0,1-.77-.12,2.31,2.31,0,0,1-1-.62,2.27,2.27,0,0,1-.53-.94,3.55,3.55,0,0,1-.09-.47l-.6,1.22-.53-.31a3.05,3.05,0,0,1-1-1,2.57,2.57,0,0,1-.39-1.38,4.57,4.57,0,0,1,.27-1.61,4.18,4.18,0,0,1,.68-1.34,2.24,2.24,0,0,1,.92-.72,2.06,2.06,0,0,1,.76-.13h.29a7.82,7.82,0,0,1,1.06.29l1.33.45a13.53,13.53,0,0,0,1.69.5l.26,0a1.87,1.87,0,0,0,.34,0l.95-.18-.77,2.29-.43.06a4,4,0,0,1,.09.66,3.66,3.66,0,0,1-.21,1.37,2.82,2.82,0,0,1-1.23,1.65A2.2,2.2,0,0,1,304.25,222.61Zm-.08-4.44c0,.31-.08.66-.15,1.06a4.22,4.22,0,0,0-.09.79.31.31,0,0,0,.08.2.26.26,0,0,0,.16.11l.12,0a.38.38,0,0,0,.19-.06.92.92,0,0,0,.31-.49,1.67,1.67,0,0,0,.07-.82,1.09,1.09,0,0,0-.31-.59A1.34,1.34,0,0,0,304.17,218.17Zm-2.13-.69a.29.29,0,0,0-.12,0,1.24,1.24,0,0,0-.47.72,1.35,1.35,0,0,0-.1.77,1.13,1.13,0,0,0,.48.48l.09.07c0-.19.07-.4.12-.65a10.83,10.83,0,0,0,.22-1.38A.73.73,0,0,0,302,217.48Zm3.85.56a3.77,3.77,0,0,1,.31,1.29,3.2,3.2,0,0,1-.17,1.17,2.3,2.3,0,0,1-1,1.33,1.76,1.76,0,0,1-2.11-.34,1.83,1.83,0,0,1-.41-.71,2.55,2.55,0,0,1-.08-.83,7.13,7.13,0,0,1,.14-.94,9.82,9.82,0,0,0,.26-1.9l-.26-.09a1.17,1.17,0,0,0-1,0,1.77,1.77,0,0,0-.72,1,1.82,1.82,0,0,0-.1,1.12,1.62,1.62,0,0,0,.71.79l-.46.93a2.66,2.66,0,0,1-.87-.77,2.06,2.06,0,0,1-.3-1.09,4.17,4.17,0,0,1,.24-1.41,3.78,3.78,0,0,1,.59-1.16,1.74,1.74,0,0,1,.68-.55,1.68,1.68,0,0,1,.79-.08,5.65,5.65,0,0,1,.94.26l1.33.44a13.65,13.65,0,0,0,1.78.53,2.39,2.39,0,0,0,.8,0l-.35,1A2.46,2.46,0,0,1,305.89,218Zm-2.26-.67a7.53,7.53,0,0,1-.17,1.76,3.74,3.74,0,0,0-.09.94.92.92,0,0,0,.19.5.94.94,0,0,0,.43.3.91.91,0,0,0,.77-.08,1.4,1.4,0,0,0,.56-.79,2.29,2.29,0,0,0,.1-1.12,1.66,1.66,0,0,0-.48-.89,2.6,2.6,0,0,0-.94-.5Zm4.09-6.64a2.28,2.28,0,0,1-.57-.07,2.17,2.17,0,0,1-1-.52,2.35,2.35,0,0,1-.62-.89,3.81,3.81,0,0,1-.13-.45l-.49,1.27-.55-.26a3.23,3.23,0,0,1-1.14-.86,2.55,2.55,0,0,1-.51-1.34,4.6,4.6,0,0,1,.12-1.62,4.16,4.16,0,0,1,.56-1.4,2.18,2.18,0,0,1,.84-.8,2.24,2.24,0,0,1,1-.21,5.85,5.85,0,0,1,1.14.18l1.37.33a11.83,11.83,0,0,0,1.73.34h.1a1.74,1.74,0,0,0,.5-.08l.92-.26-.55,2.35-.43.1a3.2,3.2,0,0,1,.15.65,3.61,3.61,0,0,1-.08,1.38,2.84,2.84,0,0,1-1.07,1.76A2.23,2.23,0,0,1,307.72,210.73Zm-.28-4.43c0,.32,0,.67-.05,1.08a2.72,2.72,0,0,0,0,.79.31.31,0,0,0,.09.19.37.37,0,0,0,.17.1h.1a.34.34,0,0,0,.2-.07.9.9,0,0,0,.26-.51,1.55,1.55,0,0,0,0-.83,1.17,1.17,0,0,0-.36-.57A1.45,1.45,0,0,0,307.44,206.3Zm-2.12-.49a.36.36,0,0,0-.18,0,1.24,1.24,0,0,0-.4.76,1.33,1.33,0,0,0,0,.78,1.13,1.13,0,0,0,.52.44l.1.05c0-.18,0-.4.06-.65a14,14,0,0,0,.09-1.4Zm3.82.2a3.84,3.84,0,0,1,.43,1.26,3.16,3.16,0,0,1-.07,1.18,2.22,2.22,0,0,1-.85,1.42,1.64,1.64,0,0,1-1.37.24,1.74,1.74,0,0,1-1.23-1.06,2.71,2.71,0,0,1-.16-.82,6.3,6.3,0,0,1,.06-.95,9.73,9.73,0,0,0,.08-1.91l-.27-.07a1.16,1.16,0,0,0-.95.08,1.78,1.78,0,0,0-.63,1.09,1.85,1.85,0,0,0,0,1.13,1.56,1.56,0,0,0,.77.72l-.37,1a2.46,2.46,0,0,1-.93-.69,2,2,0,0,1-.4-1,4.24,4.24,0,0,1,.11-1.43,3.69,3.69,0,0,1,.48-1.22,1.51,1.51,0,0,1,1.4-.76,6.47,6.47,0,0,1,1,.18l1.37.32a16.89,16.89,0,0,0,1.82.36,2.63,2.63,0,0,0,.79-.09l-.25,1.07A2.1,2.1,0,0,1,309.14,206Zm-2.31-.45a8,8,0,0,1,0,1.77,4.07,4.07,0,0,0,0,.94.92.92,0,0,0,.69.74.9.9,0,0,0,.76-.15,1.41,1.41,0,0,0,.49-.84,2.23,2.23,0,0,0,0-1.12,1.72,1.72,0,0,0-.56-.85,2.46,2.46,0,0,0-1-.4Zm4-.86.41-2.15-9.56-1.79-.4,2.15Zm-.45-.66-8.44-1.58.19-1,8.44,1.58Zm-5.69-6.57.3-2.17,7.29,1-.31,2.17Zm-2.35-.33.3-2.17,2.33.33-.3,2.16Zm1.84-.32-1.2-.16.15-1,1.2.17Zm7.31,1L305.3,197l.14-1,6.17.86Zm-1.88-5.55-.54,0a4.73,4.73,0,0,1-1.87-.54,3,3,0,0,1-1.58-3,2.8,2.8,0,0,1,.4-1.22h-.15l.19-2.07,9.7.89-.2,2.18-2.45-.23a2.63,2.63,0,0,1,.12,1.08,3,3,0,0,1-1.28,2.22A3.81,3.81,0,0,1,309.58,192.29Zm-.42-4.46a2,2,0,0,0-1.12.27,1,1,0,0,0-.49.72.94.94,0,0,0,.31.76,2.4,2.4,0,0,0,1.42.48l.4,0a1.88,1.88,0,0,0,1.07-.26,1,1,0,0,0,.47-.73.92.92,0,0,0-.31-.76,2.11,2.11,0,0,0-1.33-.48Zm5.86.06-3-.28a2,2,0,0,1,.51.74,2.1,2.1,0,0,1,.14,1,2.51,2.51,0,0,1-1.06,1.82,3.54,3.54,0,0,1-2.49.57,4.2,4.2,0,0,1-1.64-.48,2.43,2.43,0,0,1-1-1,2.57,2.57,0,0,1-.26-1.39,2.09,2.09,0,0,1,1.14-1.72l-.83-.07.09-.95,8.57.79Zm-5.79,2.73a2.7,2.7,0,0,0,1.84-.33,1.52,1.52,0,0,0,.71-1.15,1.48,1.48,0,0,0-.46-1.21,2.67,2.67,0,0,0-1.69-.64,2.9,2.9,0,0,0-1.91.34,1.52,1.52,0,0,0-.73,1.14,1.48,1.48,0,0,0,.47,1.21A2.84,2.84,0,0,0,309.23,190.62Zm2.29-4.79a2.58,2.58,0,0,0,1-.37,2.19,2.19,0,0,0,.77-.91,3,3,0,0,0,.32-1.24,2.78,2.78,0,0,0-.27-1.42h.2l.11-2.08-7.36-.37-.11,2.19,3.9.19a2.89,2.89,0,0,1,1,.18.8.8,0,0,1,.38.37,1.22,1.22,0,0,1,.13.62.76.76,0,0,1-.15.45.51.51,0,0,1-.33.19,2,2,0,0,1-.39,0l-.6,0-4-.2-.11,2.19,4.42.22h.52A4.3,4.3,0,0,0,311.52,185.83Zm1.5-4.53-.91,0a2.23,2.23,0,0,1,.95,2,2.34,2.34,0,0,1-.26,1,1.62,1.62,0,0,1-.56.68,2,2,0,0,1-.8.29,5.07,5.07,0,0,1-1,0l-3.85-.19,0-1.05,3.45.17a6.28,6.28,0,0,0,1.12,0,1.07,1.07,0,0,0,.67-.39,1.34,1.34,0,0,0,.28-.78,1.81,1.81,0,0,0-.2-.91,1.4,1.4,0,0,0-.63-.62,3.24,3.24,0,0,0-1.21-.23l-3.34-.17.06-1,6.22.31Zm-1.6-1.25a2.34,2.34,0,0,1-1.11-.28,2.32,2.32,0,0,1-.8-.72,2.86,2.86,0,0,1-.24-.42l-.18,1.35-.59-.13a3.09,3.09,0,0,1-1.31-.57,2.57,2.57,0,0,1-.81-1.18,4.73,4.73,0,0,1-.25-1.61,4.26,4.26,0,0,1,.22-1.49,2.26,2.26,0,0,1,.64-1,2.37,2.37,0,0,1,1-.45,6.84,6.84,0,0,1,1.09-.06h1.41a12.7,12.7,0,0,0,1.76-.07,1.77,1.77,0,0,0,.57-.2l.84-.47v2.42l-.39.19a3.29,3.29,0,0,1,.29.6,4.05,4.05,0,0,1,.25,1.36,2.81,2.81,0,0,1-.65,2,2.25,2.25,0,0,1-1.7.74Zm-.72-4.32c.07.31.13.66.19,1.06a4.69,4.69,0,0,0,.17.78.38.38,0,0,0,.13.16.34.34,0,0,0,.2.06.35.35,0,0,0,.28-.13.91.91,0,0,0,.13-.56,1.64,1.64,0,0,0-.19-.81,1.12,1.12,0,0,0-.48-.46A1.46,1.46,0,0,0,310.7,175.73Zm-2,0a.49.49,0,0,0-.33.1,1.77,1.77,0,0,0-.06,1.59,1.14,1.14,0,0,0,.6.31l.11,0c0-.18-.06-.4-.09-.65C308.84,176.53,308.76,176.07,308.68,175.72Zm3.61-.66a4,4,0,0,1,.7,1.13,3.19,3.19,0,0,1,.21,1.16,2.3,2.3,0,0,1-.5,1.58,1.67,1.67,0,0,1-1.28.55,1.72,1.72,0,0,1-.84-.21,1.74,1.74,0,0,1-.6-.54,2.51,2.51,0,0,1-.35-.76,8.38,8.38,0,0,1-.16-.94,9.59,9.59,0,0,0-.36-1.88h-.28a1.17,1.17,0,0,0-.91.3,1.72,1.72,0,0,0-.35,1.2,1.79,1.79,0,0,0,.26,1.09,1.54,1.54,0,0,0,.92.53l-.14,1a2.57,2.57,0,0,1-1.07-.46,2.13,2.13,0,0,1-.63-.93,4.37,4.37,0,0,1-.22-1.42,3.58,3.58,0,0,1,.19-1.29,1.62,1.62,0,0,1,.47-.73,1.6,1.6,0,0,1,.72-.33,5.19,5.19,0,0,1,1-.06h1.41a13.75,13.75,0,0,0,1.86-.07,2.18,2.18,0,0,0,.74-.26v1.1A2.12,2.12,0,0,1,312.29,175.06Zm-2.36.09a7.56,7.56,0,0,1,.4,1.72,4.23,4.23,0,0,0,.21.92.9.9,0,0,0,.85.56.88.88,0,0,0,.7-.32,1.34,1.34,0,0,0,.28-.93,2.18,2.18,0,0,0-.27-1.09,1.62,1.62,0,0,0-.73-.69,2.6,2.6,0,0,0-1.05-.17Zm-6.34-7.3,5.5-.52a6.12,6.12,0,0,0,2.33-.59,3,3,0,0,0,1.35-1.48A4.56,4.56,0,0,0,313,163a4.21,4.21,0,0,0-.77-2.24,3.06,3.06,0,0,0-1.63-1.14,5.1,5.1,0,0,0-1.38-.17c-.28,0-.58,0-.9,0l-5.51.51.21,2.27,5.5-.52.67,0a2,2,0,0,1,1.16.24,2.5,2.5,0,0,1,.39,2.31,1,1,0,0,1-.48.51,3.94,3.94,0,0,1-1.42.3l-5.5.52Zm0-6.21-.11-1.13,4.94-.47a6,6,0,0,1,2.07.1,2.53,2.53,0,0,1,1.34.94,3.82,3.82,0,0,1,.66,1.95,4.08,4.08,0,0,1-.23,2,2.38,2.38,0,0,1-1.1,1.2,5.72,5.72,0,0,1-2.11.53l-4.94.46L304,166.1l4.94-.46a4.88,4.88,0,0,0,1.62-.36,1.6,1.6,0,0,0,.75-.79,2.55,2.55,0,0,0,.17-1.26,2.39,2.39,0,0,0-.73-1.73,3.24,3.24,0,0,0-2.23-.32Zm1.79,0-1.28.18-1.61-2,2.58-.36-.14-1.05,1.93-.27.15,1.05,3-.43.3,0c0-.14-.06-.25-.1-.39l-.15-.54,2-.61.18.52a4.42,4.42,0,0,1,.23.88,2.29,2.29,0,0,1-.09,1.2,1.56,1.56,0,0,1-.64.78,3.54,3.54,0,0,1-1.43.38l-3,.42.11.77-1.93.27Zm5.05-2.93h0Zm.37-.53.9-.28a3.82,3.82,0,0,1,.2.77,1.86,1.86,0,0,1-.06.91,1,1,0,0,1-.41.51,3.89,3.89,0,0,1-1.21.3l-3.55.5.11.76-.81.12-.11-.77-1.53.22-.77-.95,2.16-.31-.15-1.05.81-.11.15,1.05,3.6-.51a2.16,2.16,0,0,0,.57-.13.39.39,0,0,0,.17-.21.7.7,0,0,0,0-.37A4.31,4.31,0,0,0,310.79,158.19Zm-4.85-8.45a3.5,3.5,0,0,1-1.75-.44,3.28,3.28,0,0,1-1.59-2.21,3.19,3.19,0,0,1,.44-2.62,3.94,3.94,0,0,1,2.48-1.56l.74-.15v-.14l.65,0a3.23,3.23,0,0,1,2,.71,3.54,3.54,0,0,1,1.11,1.92,3.44,3.44,0,0,1-.4,2.75,3.89,3.89,0,0,1-2.46,1.56A5.42,5.42,0,0,1,305.94,149.74Zm-1-4.25a.81.81,0,0,0-.21.19,1.06,1.06,0,0,0-.2.94,1.11,1.11,0,0,0,.51.73,1,1,0,0,0,.37.15Zm2.44,1.66a1.39,1.39,0,0,0,.52-.46,1.17,1.17,0,0,0,.16-.95,1,1,0,0,0-.34-.59,1.44,1.44,0,0,0-.79-.28h-.09ZM307,144.3l-.12-1.09a2.66,2.66,0,0,1,1.66.59,3.25,3.25,0,0,1,.6,3.92A3.27,3.27,0,0,1,307,149a3.46,3.46,0,0,1-2.56-.22,2.76,2.76,0,0,1-1.32-1.85,2.64,2.64,0,0,1,.36-2.17,3.31,3.31,0,0,1,2.14-1.32l.28-.06,1.06,4.51a2.36,2.36,0,0,0,1.4-.92,1.74,1.74,0,0,0,.23-1.39,1.63,1.63,0,0,0-.52-.9A2.08,2.08,0,0,0,307,144.3Zm-.87,3.77-.79-3.39a2.2,2.2,0,0,0-1.06.66,1.62,1.62,0,0,0-.29,1.41,1.69,1.69,0,0,0,.75,1.08A1.91,1.91,0,0,0,306.13,148.07Zm-4.06-3.76,7.07-2-.6-2.11-3.81,1.09a3.06,3.06,0,0,1-.81.14.71.71,0,0,1-.42-.1,1.11,1.11,0,0,1-.49-.68.78.78,0,0,1,0-.45.4.4,0,0,1,.17-.26,2.31,2.31,0,0,1,.7-.29l4.19-1.19-.6-2.1-4.23,1.2a6.25,6.25,0,0,0-1.07.38,2.63,2.63,0,0,0-.85.68,2.22,2.22,0,0,0-.43,1.1A3.12,3.12,0,0,0,301,141a2.89,2.89,0,0,0,.69,1.27l-.17.05Zm6.37-2.41-6,1.7-.26-.91.85-.24a2.24,2.24,0,0,1-1.53-1.62,2.73,2.73,0,0,1-.09-1.05,1.68,1.68,0,0,1,.32-.83,2.06,2.06,0,0,1,.66-.53,6.45,6.45,0,0,1,1-.34l3.68-1,.29,1-3.64,1a2.9,2.9,0,0,0-.9.38,1,1,0,0,0-.37.56,1.41,1.41,0,0,0,0,.76,1.73,1.73,0,0,0,.73,1,2.09,2.09,0,0,0,1.7,0l3.26-.94Zm-10.95-4.66,2.22-.74.7,2.07-2.23.75Zm2.24-.75,7-2.33.69,2.07-7,2.34Zm0,1.73-1.15.38-.33-1,1.15-.38Zm7-2.35-5.9,2-.34-1,5.9-2Zm-8.16-2.94,6.86-2.65-.79-2.05-3.54,1.37a3.1,3.1,0,0,1-1.09.28.78.78,0,0,1-.48-.15.93.93,0,0,1-.32-.44c-.08-.18-.09-.32,0-.4a1.17,1.17,0,0,1,.61-.4l4.3-1.66-.79-2-3.9,1.51a2.25,2.25,0,0,1-.73.16.65.65,0,0,1-.29-.06.87.87,0,0,1-.5-.54.59.59,0,0,1,0-.34.32.32,0,0,1,.11-.19,2.29,2.29,0,0,1,.64-.32l4.18-1.62-.78-2-4.52,1.75a2.73,2.73,0,0,0-1.6,1.33,2.45,2.45,0,0,0,0,1.95,2.64,2.64,0,0,0,1.33,1.47,2,2,0,0,0-.17.48,2.61,2.61,0,0,0,.17,1.48,2.71,2.71,0,0,0,.77,1.12l-.16.06Zm6.12-3-5.8,2.25-.34-.88.82-.32a2.13,2.13,0,0,1-1-.46,2.26,2.26,0,0,1-.66-.93,2,2,0,0,1-.14-1.16,1.46,1.46,0,0,1,.52-.87,2.27,2.27,0,0,1-1.71-1.4,1.92,1.92,0,0,1,0-1.52,2.18,2.18,0,0,1,1.29-1l4-1.54.38,1-3.66,1.41a2.91,2.91,0,0,0-.81.42.92.92,0,0,0-.28.51,1.18,1.18,0,0,0,.07.66,1.46,1.46,0,0,0,.8.85,1.9,1.9,0,0,0,1.46-.1l3.37-1.3.38,1L299.55,128a1.81,1.81,0,0,0-.89.62,1,1,0,0,0,0,.92,1.55,1.55,0,0,0,.51.68,1.29,1.29,0,0,0,.84.26,3.6,3.6,0,0,0,1.27-.31l3-1.16Zm-9.51-8.77a2.47,2.47,0,0,1-1.81-.77,4.68,4.68,0,0,1-.93-1.33,4.24,4.24,0,0,1-.46-1.44,2,2,0,0,1,.82-2,6.54,6.54,0,0,1,.95-.54l1.27-.62a14.78,14.78,0,0,0,1.56-.83,1.91,1.91,0,0,0,.42-.43l.56-.79,1.06,2.17-.27.35a3.62,3.62,0,0,1,.52.41,3.73,3.73,0,0,1,.82,1.12,2.82,2.82,0,0,1,.28,2,2.2,2.2,0,0,1-1.21,1.41,2.24,2.24,0,0,1-1,.24h-.11a2.36,2.36,0,0,1-1-.3,3.39,3.39,0,0,1-.39-.27l.43,1.3-.59.14A3.49,3.49,0,0,1,295.14,121.18Zm-.78-3.92a.6.6,0,0,0-.26.23,1.3,1.3,0,0,0,.17.84,1.35,1.35,0,0,0,.47.63.81.81,0,0,0,.3.05,1.82,1.82,0,0,0,.38,0l.12,0c-.11-.15-.23-.33-.37-.55C294.86,117.92,294.58,117.54,294.36,117.26Zm1.82-.88c.2.25.41.54.64.87a4.53,4.53,0,0,0,.49.63.43.43,0,0,0,.19.09h0a.27.27,0,0,0,.17,0,.33.33,0,0,0,.2-.24,1,1,0,0,0-.12-.56,1.62,1.62,0,0,0-.53-.64,1.08,1.08,0,0,0-.63-.21v0A1.43,1.43,0,0,0,296.18,116.38Zm1.14-1.3a3.85,3.85,0,0,1,1.12.71,3,3,0,0,1,.7.95,2.27,2.27,0,0,1,.24,1.64,1.65,1.65,0,0,1-.91,1.06,1.56,1.56,0,0,1-.84.18,1.69,1.69,0,0,1-.78-.22,2.52,2.52,0,0,1-.65-.53,7.08,7.08,0,0,1-.55-.78,10.11,10.11,0,0,0-1.16-1.53l-.25.12a1.16,1.16,0,0,0-.69.67,1.8,1.8,0,0,0,.21,1.23,1.9,1.9,0,0,0,.72.88,1.59,1.59,0,0,0,1.06.06l.33,1a2.64,2.64,0,0,1-1.17.06,2.07,2.07,0,0,1-1-.56,4.25,4.25,0,0,1-.82-1.18,3.51,3.51,0,0,1-.4-1.25,1.64,1.64,0,0,1,.1-.86,1.59,1.59,0,0,1,.5-.61,5.58,5.58,0,0,1,.85-.48l1.27-.62a13.43,13.43,0,0,0,1.64-.88,2.17,2.17,0,0,0,.56-.57l.48,1A2,2,0,0,1,297.32,115.08Zm-2.09,1.12a7.24,7.24,0,0,1,1.12,1.37,4.35,4.35,0,0,0,.6.74.91.91,0,0,0,.49.22,1,1,0,0,0,1-.68,1.42,1.42,0,0,0-.16-1,2.26,2.26,0,0,0-.72-.86,1.63,1.63,0,0,0-1-.3,2.42,2.42,0,0,0-1,.31Zm-2.77-.43a3,3,0,0,1-1.39-.33,3.09,3.09,0,0,1-1.26-1.25,2.74,2.74,0,0,1-.34-1.12l-2.16,1.2-1.06-1.91,8.5-4.72,1,1.85-.1.05a2.61,2.61,0,0,1,.79.91,3.08,3.08,0,0,1,.38,1.71,3.38,3.38,0,0,1-.64,1.69,4.51,4.51,0,0,1-1.5,1.28,4.9,4.9,0,0,1-1.84.62A2.88,2.88,0,0,1,292.46,115.77Zm1.33-4.93a3.25,3.25,0,0,0-2.3,1.42,1,1,0,0,0,0,.87.92.92,0,0,0,.68.47h.18a2.73,2.73,0,0,0,1.25-.42,2.11,2.11,0,0,0,1.07-1,1,1,0,0,0,0-.85.9.9,0,0,0-.68-.47Zm1.22-1.57-.69.38a1.94,1.94,0,0,1,1.66,1.07,2.44,2.44,0,0,1,.3,1.4,2.72,2.72,0,0,1-.53,1.4,4,4,0,0,1-1.31,1.12,4.63,4.63,0,0,1-1.63.55,2.44,2.44,0,0,1-2.5-1.27,2.19,2.19,0,0,1-.28-1,2.07,2.07,0,0,1,.2-.93l-2.7,1.5-.51-.92,7.51-4.17Zm-1.1,4.42a2.68,2.68,0,0,0,1.32-1.31,1.54,1.54,0,0,0-.06-1.33,1.49,1.49,0,0,0-1.07-.75,2.58,2.58,0,0,0-1.74.42,2.94,2.94,0,0,0-1.4,1.34,1.49,1.49,0,0,0,.07,1.35,1.44,1.44,0,0,0,1.07.75A2.84,2.84,0,0,0,293.91,113.69ZM177,302.29a125.33,125.33,0,0,1,.14-250.66A125.33,125.33,0,0,1,177,302.29ZM177,53.6a123.44,123.44,0,1,0,50.1,10.69A123.54,123.54,0,0,0,177,53.6Zm-114,72.65a124.74,124.74,0,1,1-2.49,95.41A124.73,124.73,0,0,1,63.07,126.25ZM290.16,227.37a123.91,123.91,0,1,0-163.6,62.8A123.9,123.9,0,0,0,290.16,227.37ZM176.9,299.77A122.8,122.8,0,0,1,177,54.18a122.8,122.8,0,0,1-.13,245.59ZM177,56.88a120.1,120.1,0,1,0,48.76,10.41A120.22,120.22,0,0,0,177,56.88ZM65.33,127.27a122.2,122.2,0,1,1-2.45,93.49A122.2,122.2,0,0,1,65.33,127.27ZM287.14,226a120.6,120.6,0,1,0-159.23,61.12A120.6,120.6,0,0,0,287.14,226Zm-123-168.22,1,1.35,121,166.42L79.82,247.23ZM83,245l199.59-21-118-162.36ZM164,56.09l1.85,2.53L287.66,226.24l-209.21,22ZM84.36,244,281,223.29l-116.27-160Zm-3.62,2.61L164.29,58.9l.41.56L285.07,225.09ZM164.46,60.49,82.07,245.62l201.55-21.18ZM64.9,127.08,276,104.89,189.68,298.83ZM188.66,289.34l79.66-178.85L73.62,131ZM67.49,128.23l206.25-21.68L189.39,296ZM189,292.16l81.66-183.33L71,129.8ZM68.53,128.69l204.29-21.47L189.27,294.88Zm203-20.53L70,129.34l119.08,164ZM170.64,280a104,104,0,0,1-66-29.37l-.81-.79,4.4-.69.2.19a99.93,99.93,0,0,0,59.46,26.86l-.88-1.32a98.73,98.73,0,0,1-56.45-25.23l-.88-.8,4.57-.7.19.17a94.64,94.64,0,0,0,51.26,22.87l.26,0,1.7,2.59.24,0,0,.37.54.82-.53-.05v1.22l1.35.12,2.47,3.75Zm34.48-7.53.27-.08a100,100,0,0,0,53.6-38.9l.16-.23,3.72-.21.21.68-.14.25a101.6,101.6,0,0,1-49,39.28c-3.07,1.17-6.22,2.22-9.35,3.1l-1.09.3Zm2.19-5.63.25-.09a94.58,94.58,0,0,0,45.37-32.86l.15-.21,4.57-.26-.69,1a97.25,97.25,0,0,1-44.74,34.49c-1.8.69-3.63,1.33-5.46,1.91l-1.13.36ZM84.65,222.94c-1.45-2.94-2.78-6-4-9.05a101.79,101.79,0,0,1-3.59-62.73l.29-1.09,2.73,3.39v.27l0,.09a100,100,0,0,0,7,65.87l.12.25-2,4Zm2.69-5.41c-.85-1.91-1.58-3.65-2.23-5.33a97.42,97.42,0,0,1-4.3-56.36l.25-1.14L84,158.25l0,.26a94.53,94.53,0,0,0,5.89,55.74l.11.24-2.09,4.13Zm186.43-17.16,0-.19v-1.57l.29.35a100,100,0,0,0-7.23-64.72l-.12-.24,2-4.09.51,1c1.45,2.93,2.78,6,4,9.05a101.79,101.79,0,0,1,3.59,62.73l-.29,1.09ZM270,195.66l.05-.26a94.53,94.53,0,0,0-5.89-55.74l-.11-.24,2.08-4.1.49,1.06c.81,1.74,1.56,3.53,2.23,5.34a97.3,97.3,0,0,1,4.31,56.35l-.25,1.14ZM91,120a101.64,101.64,0,0,1,49-39.31c3.07-1.17,6.22-2.21,9.35-3.09l1.09-.3-1.63,4.18-.27.08a100,100,0,0,0-53.62,38.9l-.16.23-4.4.25Zm6-.31a97.36,97.36,0,0,1,44.74-34.59c1.8-.69,3.63-1.33,5.45-1.91l1.12-.36-1.65,4.35-.26.09A94.39,94.39,0,0,0,101,120.16l-.15.21-4.57.26Zm142.48-14a94.53,94.53,0,0,0-51.26-22.87l-.26,0-2.52-3.86,1.18.12a98.64,98.64,0,0,1,56.73,25.26l.87.78-4.54.77Zm6.1-.83-.16-.16a99.9,99.9,0,0,0-60.55-27l-.27,0-2.45-3.76,1.13.07a103.89,103.89,0,0,1,66,29.38l.8.8-4.16.65ZM207.74,267.24l-1.15,2.95q2.73-.87,5.43-1.9A97.1,97.1,0,0,0,256.5,234l-3.12.18A95.52,95.52,0,0,1,207.74,267.24Zm35.2-162.55a98.78,98.78,0,0,0-56.41-25.12l1.73,2.65a95.43,95.43,0,0,1,51.56,23Zm25.34,37.23c-.67-1.8-1.4-3.57-2.21-5.3l-1.43,2.82a95.39,95.39,0,0,1,5.93,56.07l2,2.44a97.14,97.14,0,0,0-4.29-56Zm-97.6,137.46L169,276.81a100.2,100.2,0,0,1-60.92-27.11l-3,.47a103.26,103.26,0,0,0,65.61,29.21Zm75.14-175.13,3-.47a103.22,103.22,0,0,0-65.61-29.22l1.68,2.58a100.09,100.09,0,0,1,60.89,27.11ZM146.19,86.71l1.14-3q-2.72.87-5.42,1.9A97.07,97.07,0,0,0,97.43,120l3.12-.18A95.46,95.46,0,0,1,146.19,86.71ZM85.64,212c.69,1.79,1.44,3.56,2.22,5.3l1.43-2.83a95.39,95.39,0,0,1-5.93-56.07l-2-2.44A97.18,97.18,0,0,0,85.64,212Zm-6.09-58.34-1.9-2.36a101.82,101.82,0,0,0,3.57,62.39q1.77,4.6,3.94,9l1.39-2.76a100.19,100.19,0,0,1-7-66.24Zm194.83,46.56,1.9,2.36a101.82,101.82,0,0,0-3.57-62.39q-1.77-4.6-3.94-9L267.38,134a100.21,100.21,0,0,1,7,66.25ZM148.39,81l1.12-2.87q-4.69,1.31-9.3,3.07a101.73,101.73,0,0,0-48.75,39.09l3-.17A100.23,100.23,0,0,1,148.39,81Zm19,193.34-1.73-2.64a95.61,95.61,0,0,1-51.56-23l-3.13.48a98.85,98.85,0,0,0,56.42,25.12Zm95.07-40.75-3,.17a100.23,100.23,0,0,1-53.91,39.12l-1.12,2.88q4.69-1.32,9.3-3.08a101.75,101.75,0,0,0,48.74-39.06Z" fill="none"/></clipPath><linearGradient id="_60" x1="0.5" y1="177.47" x2="354.44" y2="177.47" gradientUnits="userSpaceOnUse"><stop offset="0" stop-color="#168e7e"/><stop offset="0.92" stop-color="#d436b7"/></linearGradient><linearGradient id="_1" y1="177.47" x2="354.94" y2="177.47" gradientUnits="userSpaceOnUse"><stop offset="0" stop-color="#168e7e"/><stop offset="1" stop-color="#d436b7"/></linearGradient></defs><title>mj.inline</title><g id="_1" data-name=" 1"><g clip-path="url(#clip-path)"><rect x="0.5" y="0.5" width="353.94" height="353.94" stroke-miterlimit="10" fill="url(#_60)" stroke="url(#_1)"/></g></g></svg>