<svg id="mahoujin-svg" data-name="レイヤー 1" xmlns="http://www.w3.org/2000/svg" viewBox="0 0 355.26 355.28" x="0px" y="0px">
  <title>mahoujinx</title>
  <defs>
  <clipPath id="mahoujin1" clipPathUnits="objectBoundingBox" transform="scale(0.0028, 0.0028)">
    <path d="M340.66,267.71l-5.87-20.47,18.6-9.07.54-.26-34.74-71.24c.08,1.05.14,2.09.2,3.14l32.94,67.54-17.87,8.72-15.63-54.51c-.11,1-.23,2.07-.36,3.11l14.89,51.93L284.8,270.29c-.68.79-1.37,1.57-2.07,2.35l51-24.86,5.48,19.11L266.94,287.6c-.81.66-1.63,1.31-2.46,2l75.59-21.72ZM289.55,89.46,267.87,13.85l-.17-.58-20.47,5.87L238.16.54,237.9,0,166.67,34.75c1-.08,2.09-.15,3.13-.2L237.35,1.61l8.72,17.87L191.55,35.11l3.11.36,51.94-14.9,23.68,48.57c.79.68,1.58,1.37,2.35,2.07l-24.86-51,19.11-5.48L287.59,87C288.26,87.81,288.91,88.63,289.55,89.46ZM115.77,353.4l.26.54,71.23-34.74c-1,.07-2.09.14-3.14.19l-67.54,32.95-8.72-17.87,54.52-15.64c-1-.1-2.07-.22-3.11-.35l-51.94,14.89L83.64,284.81c-.79-.69-1.57-1.38-2.34-2.08l24.86,51-19.09,5.46L66.33,267c-.66-.82-1.31-1.64-2-2.47l21.74,75.56.16.58,20.47-5.87ZM1.6,116.59l17.87-8.72,15.6,54.52c.11-1,.23-2.08.36-3.11L20.57,107.34,69.13,83.65q1-1.19,2.07-2.34l-51,24.86L14.72,87.05,87,66.34c.81-.67,1.63-1.33,2.46-2L13.26,86.23l5.87,20.47L.53,115.77,0,116l34.74,71.23c-.08-1-.14-2.09-.2-3.14Z" transform="translate(0.66 0.67)" fill="#040000" stroke="#000" stroke-miterlimit="10"/>
    <path d="M49.53,120.23A139.48,139.48,0,1,1,46.73,227,139.49,139.49,0,0,1,49.53,120.23ZM303.67,233.38c31.1-69.86-.43-152-70.29-183.11s-152,.42-183.12,70.29.43,152,70.29,183.11S272.56,303.25,303.67,233.38Z" transform="translate(0.66 0.67)" fill="#040000" stroke="#000" stroke-miterlimit="10"/>
    <path d="M51.94,121.31A136.86,136.86,0,1,1,49.2,226,136.85,136.85,0,0,1,51.94,121.31ZM300.52,232c30.34-68.13-.41-148.23-68.54-178.57S83.74,53.83,53.41,122,53.82,270.24,122,300.57,270.19,300.11,300.52,232Z" transform="translate(0.66 0.67)" fill="#040000" stroke="#000" stroke-miterlimit="10"/>
      <text transform="translate(278.77 86.53) rotate(-133.39)" font-size="12.05" fill="#040000" stroke="#000" stroke-miterlimit="10" font-family="ArialMT, Arial" letter-spacing="-0.08em" style="isolation: isolate">L</text>
      <text transform="translate(274.45 81.96) rotate(-135.92)" font-size="12" fill="#040000" stroke="#000" stroke-miterlimit="10" font-family="ArialMT, Arial" style="isolation: isolate">o</text>
      <text transform="matrix(-0.75, -0.66, 0.66, -0.75, 269.95, 77.6)" font-size="11.99" fill="#040000" stroke="#000" stroke-miterlimit="10" font-family="ArialMT, Arial" style="isolation: isolate">r</text>
      <text transform="translate(265.24 73.46) rotate(-141.24)" font-size="12" fill="#040000" stroke="#000" stroke-miterlimit="10" font-family="ArialMT, Arial" style="isolation: isolate">e</text>
      <text transform="translate(260.34 69.54) rotate(-143.93)" font-size="12.03" fill="#040000" stroke="#000" stroke-miterlimit="10" font-family="ArialMT, Arial" style="isolation: isolate">m</text>
      <text transform="translate(250.03 62.4) rotate(-149.2)" font-size="12" fill="#040000" stroke="#000" stroke-miterlimit="10" font-family="ArialMT, Arial" style="isolation: isolate">i</text>
      <text transform="translate(244.64 59.19) rotate(-151.83)" font-size="12" fill="#040000" stroke="#000" stroke-miterlimit="10" font-family="ArialMT, Arial" style="isolation: isolate">p</text>
      <text transform="translate(239.12 56.24) rotate(-154.43)" font-size="12" fill="#040000" stroke="#000" stroke-miterlimit="10" font-family="ArialMT, Arial" style="isolation: isolate">s</text>
      <text transform="matrix(-0.92, -0.39, 0.39, -0.92, 233.51, 53.56)" font-size="12" fill="#040000" stroke="#000" stroke-miterlimit="10" font-family="ArialMT, Arial" style="isolation: isolate">u</text>
      <text transform="matrix(-0.94, -0.35, 0.35, -0.94, 227.76, 51.13)" font-size="12" fill="#040000" stroke="#000" stroke-miterlimit="10" font-family="ArialMT, Arial" style="isolation: isolate">m</text>
      <text transform="translate(215.92 47.04) rotate(-165)" font-size="12.05" fill="#040000" stroke="#000" stroke-miterlimit="10" font-family="ArialMT, Arial" style="isolation: isolate">d</text>
      <text transform="translate(209.87 45.41) rotate(-167.35)" font-size="12.05" fill="#040000" stroke="#000" stroke-miterlimit="10" font-family="ArialMT, Arial" style="isolation: isolate">o</text>
      <text transform="translate(203.75 44.05) rotate(-170.26)" font-size="12.05" fill="#040000" stroke="#000" stroke-miterlimit="10" font-family="ArialMT, Arial" style="isolation: isolate">l</text>
      <text transform="matrix(-0.99, -0.12, 0.12, -0.99, 197.56, 42.99)" font-size="11.97" fill="#040000" stroke="#000" stroke-miterlimit="10" font-family="ArialMT, Arial" style="isolation: isolate">o</text>
      <text transform="translate(191.33 42.21) rotate(-175.49)" font-size="12" fill="#040000" stroke="#000" stroke-miterlimit="10" font-family="ArialMT, Arial" style="isolation: isolate">r</text>
      <text transform="matrix(-1, 0.01, -0.01, -1, 178.81, 41.53)" font-size="12" fill="#040000" stroke="#000" stroke-miterlimit="10" font-family="ArialMT, Arial" style="isolation: isolate">s</text>
      <text transform="translate(172.54 41.62) rotate(176.55)" font-size="12" fill="#040000" stroke="#000" stroke-miterlimit="10" font-family="ArialMT, Arial" style="isolation: isolate">i</text>
      <text transform="translate(166.28 42.01) rotate(173.66)" font-size="11.95" fill="#040000" stroke="#000" stroke-miterlimit="10" font-family="ArialMT, Arial" style="isolation: isolate">t</text>
      <text transform="matrix(-0.98, 0.2, -0.2, -0.98, 153.85, 43.64)" font-size="12" fill="#040000" stroke="#000" stroke-miterlimit="10" font-family="ArialMT, Arial" style="isolation: isolate">a</text>
      <text transform="translate(147.71 44.88) rotate(165.99)" font-size="12" fill="#040000" stroke="#000" stroke-miterlimit="10" font-family="ArialMT, Arial" style="isolation: isolate">m</text>
      <text transform="translate(141.63 46.41) rotate(163.37)" font-size="12" fill="#040000" stroke="#000" stroke-miterlimit="10" font-family="ArialMT, Arial" style="isolation: isolate">e</text>
      <text transform="translate(135.61 48.21) rotate(160.74)" font-size="12" fill="#040000" stroke="#000" stroke-miterlimit="10" font-family="ArialMT, Arial" style="isolation: isolate">t</text>
      <text transform="translate(123.89 52.62) rotate(155.5)" font-size="12" fill="#040000" stroke="#000" stroke-miterlimit="10" font-family="ArialMT, Arial" style="isolation: isolate">c</text>
      <text transform="matrix(-0.89, 0.46, -0.46, -0.89, 118.18, 55.23)" font-size="12" fill="#040000" stroke="#000" stroke-miterlimit="10" font-family="ArialMT, Arial" style="isolation: isolate">o</text>
      <text transform="matrix(-0.87, 0.5, -0.5, -0.87, 112.62, 58.1)" font-size="12" fill="#040000" stroke="#000" stroke-miterlimit="10" font-family="ArialMT, Arial" style="isolation: isolate">n</text>
      <text transform="matrix(-0.84, 0.54, -0.54, -0.84, 107.18, 61.21)" font-size="11.98" fill="#040000" stroke="#000" stroke-miterlimit="10" font-family="ArialMT, Arial" style="isolation: isolate">s</text>
      <text transform="translate(101.88 64.57) rotate(144.97)" font-size="12" fill="#040000" stroke="#000" stroke-miterlimit="10" font-family="ArialMT, Arial" style="isolation: isolate">e</text>
      <text transform="translate(96.74 68.18) rotate(142.32)" font-size="12" fill="#040000" stroke="#000" stroke-miterlimit="10" font-family="ArialMT, Arial" style="isolation: isolate">c</text>
      <text transform="translate(91.79 72.02) rotate(139.46)" font-size="12" fill="#040000" stroke="#000" stroke-miterlimit="10" font-family="ArialMT, Arial" style="isolation: isolate">t</text>
      <text transform="translate(87.01 76.08) rotate(137.02)" font-size="12" fill="#040000" stroke="#000" stroke-miterlimit="10" font-family="ArialMT, Arial" style="isolation: isolate">e</text>
      <text transform="matrix(-0.7, 0.71, -0.71, -0.7, 82.43, 80.36)" font-size="11.96" fill="#040000" stroke="#000" stroke-miterlimit="10" font-family="ArialMT, Arial" style="isolation: isolate">t</text>
      <text transform="translate(78.06 84.85) rotate(131.7)" font-size="12" fill="#040000" stroke="#000" stroke-miterlimit="10" font-family="ArialMT, Arial" style="isolation: isolate">u</text>
      <text transform="translate(73.89 89.54) rotate(129.04)" font-size="12" fill="#040000" stroke="#000" stroke-miterlimit="10" font-family="ArialMT, Arial" style="isolation: isolate">r</text>
      <text transform="translate(66.22 99.47) rotate(124.01)" font-size="12.01" fill="#040000" stroke="#000" stroke-miterlimit="10" font-family="ArialMT, Arial" style="isolation: isolate">a</text>
      <text transform="matrix(-0.52, 0.86, -0.86, -0.52, 62.74, 104.69)" font-size="12.06" fill="#040000" stroke="#000" stroke-miterlimit="10" font-family="ArialMT, Arial" style="isolation: isolate">d</text>
      <text transform="translate(59.52 110.06) rotate(118.61)" font-size="12.03" fill="#040000" stroke="#000" stroke-miterlimit="10" font-family="ArialMT, Arial" style="isolation: isolate">i</text>
      <text transform="translate(56.54 115.58) rotate(115.84)" font-size="12" fill="#040000" stroke="#000" stroke-miterlimit="10" font-family="ArialMT, Arial" style="isolation: isolate">p</text>
      <text transform="translate(53.79 121.23) rotate(112.97)" font-size="11.99" fill="#040000" stroke="#000" stroke-miterlimit="10" font-family="ArialMT, Arial" style="isolation: isolate">i</text>
      <text transform="translate(51.35 126.96) rotate(110.66)" font-size="12" fill="#040000" stroke="#000" stroke-miterlimit="10" font-family="ArialMT, Arial" style="isolation: isolate">s</text>
      <text transform="translate(49.14 132.82) rotate(108.04)" font-size="12" fill="#040000" stroke="#000" stroke-miterlimit="10" font-family="ArialMT, Arial" style="isolation: isolate">i</text>
      <text transform="matrix(-0.27, 0.96, -0.96, -0.27, 47.21, 138.79)" font-size="11.97" fill="#040000" stroke="#000" stroke-miterlimit="10" font-family="ArialMT, Arial" style="isolation: isolate">c</text>
      <text transform="translate(45.56 144.84) rotate(102.65)" font-size="12.05" fill="#040000" stroke="#000" stroke-miterlimit="10" font-family="ArialMT, Arial" style="isolation: isolate">i</text>
      <text transform="translate(44.17 150.95) rotate(100.09)" font-size="12" fill="#040000" stroke="#000" stroke-miterlimit="10" font-family="ArialMT, Arial" style="isolation: isolate">n</text>
      <text transform="translate(43.09 157.13) rotate(97.48)" font-size="11.98" fill="#040000" stroke="#000" stroke-miterlimit="10" font-family="ArialMT, Arial" style="isolation: isolate">g</text>
      <text transform="translate(41.76 169.6) rotate(92.1)" font-size="12" fill="#040000" stroke="#000" stroke-miterlimit="10" font-family="ArialMT, Arial" style="isolation: isolate">e</text>
      <text transform="matrix(0.01, 1, -1, 0.01, 41.53, 175.87)" font-size="12" fill="#040000" stroke="#000" stroke-miterlimit="10" font-family="ArialMT, Arial" style="isolation: isolate">l</text>
      <text transform="matrix(0.06, 1, -1, 0.06, 41.6, 182.14)" font-size="12" fill="#040000" stroke="#000" stroke-miterlimit="10" font-family="ArialMT, Arial" style="isolation: isolate">i</text>
      <text transform="translate(41.96 188.4) rotate(84.15)" font-size="12" fill="#040000" stroke="#000" stroke-miterlimit="10" font-family="ArialMT, Arial" style="isolation: isolate">t</text>
      <text transform="matrix(0.19, 0.98, -0.98, 0.19, 43.55, 200.84)" font-size="12" fill="#040000" stroke="#000" stroke-miterlimit="10" font-family="ArialMT, Arial" style="isolation: isolate">s</text>
      <text transform="translate(44.76 207) rotate(76.24)" font-size="12" fill="#040000" stroke="#000" stroke-miterlimit="10" font-family="ArialMT, Arial" style="isolation: isolate">e</text>
      <text transform="translate(46.25 213.08) rotate(73.74)" font-size="12" fill="#040000" stroke="#000" stroke-miterlimit="10" font-family="ArialMT, Arial" style="isolation: isolate">d</text>
      <text transform="translate(50.07 225.02) rotate(68.3)" font-size="12.01" fill="#040000" stroke="#000" stroke-miterlimit="10" font-family="ArialMT, Arial" style="isolation: isolate">d</text>
      <text transform="translate(52.4 230.84) rotate(65.74)" font-size="12" fill="#040000" stroke="#000" stroke-miterlimit="10" font-family="ArialMT, Arial" style="isolation: isolate">o</text>
      <text transform="matrix(0.49, 0.87, -0.87, 0.49, 57.81, 242.14)" font-size="12" fill="#040000" stroke="#000" stroke-miterlimit="10" font-family="ArialMT, Arial" style="isolation: isolate">e</text>
      <text transform="translate(60.91 247.6) rotate(58.06)" font-size="12.02" fill="#040000" stroke="#000" stroke-miterlimit="10" font-family="ArialMT, Arial" style="isolation: isolate">i</text>
      <text transform="matrix(0.57, 0.82, -0.82, 0.57, 64.26, 252.9)" font-size="12" fill="#040000" stroke="#000" stroke-miterlimit="10" font-family="ArialMT, Arial" style="isolation: isolate">u</text>
      <text transform="matrix(0.61, 0.79, -0.79, 0.61, 67.82, 258.04)" font-size="12" fill="#040000" stroke="#000" stroke-miterlimit="10" font-family="ArialMT, Arial" style="isolation: isolate">s</text>
      <text transform="matrix(0.64, 0.77, -0.77, 0.64, 71.65, 263.02)" font-size="12.01" fill="#040000" stroke="#000" stroke-miterlimit="10" font-family="ArialMT, Arial" style="isolation: isolate">m</text>
      <text transform="matrix(0.68, 0.73, -0.73, 0.68, 75.68, 267.82)" font-size="12" fill="#040000" stroke="#000" stroke-miterlimit="10" font-family="ArialMT, Arial" style="isolation: isolate">o</text>
      <text transform="matrix(0.71, 0.7, -0.7, 0.71, 79.96, 272.42)" font-size="12" fill="#040000" stroke="#000" stroke-miterlimit="10" font-family="ArialMT, Arial" style="isolation: isolate">d</text>
      <text transform="matrix(0.77, 0.63, -0.63, 0.77, 89.1, 281.01)" font-size="11.94" fill="#040000" stroke="#000" stroke-miterlimit="10" font-family="ArialMT, Arial" style="isolation: isolate">t</text>
      <text transform="matrix(0.8, 0.6, -0.6, 0.8, 93.94, 284.98)" font-size="12" fill="#040000" stroke="#000" stroke-miterlimit="10" font-family="ArialMT, Arial" style="isolation: isolate">e</text>
      <text transform="translate(98.98 288.71) rotate(34.01)" font-size="12.01" fill="#040000" stroke="#000" stroke-miterlimit="10" font-family="ArialMT, Arial" style="isolation: isolate">m</text>
      <text transform="translate(104.19 292.21) rotate(31.33)" font-size="12" fill="#040000" stroke="#000" stroke-miterlimit="10" font-family="ArialMT, Arial" style="isolation: isolate">p</text>
      <text transform="translate(109.56 295.47) rotate(28.7)" font-size="12" fill="#040000" stroke="#000" stroke-miterlimit="10" font-family="ArialMT, Arial" style="isolation: isolate">o</text>
      <text transform="translate(115.04 298.47) rotate(26.08)" font-size="12" fill="#040000" stroke="#000" stroke-miterlimit="10" font-family="ArialMT, Arial" style="isolation: isolate">r</text>
      <text transform="translate(126.41 303.71) rotate(20.9)" font-size="12" fill="#040000" stroke="#000" stroke-miterlimit="10" font-family="ArialMT, Arial" style="isolation: isolate">i</text>
      <text transform="matrix(0.95, 0.31, -0.31, 0.95, 132.28, 305.94)" font-size="11.99" fill="#040000" stroke="#000" stroke-miterlimit="10" font-family="ArialMT, Arial" style="isolation: isolate">n</text>
      <text transform="translate(138.23 307.9) rotate(15.64)" font-size="12" fill="#040000" stroke="#000" stroke-miterlimit="10" font-family="ArialMT, Arial" style="isolation: isolate">c</text>
      <text transform="translate(144.27 309.59) rotate(12.99)" font-size="12" fill="#040000" stroke="#000" stroke-miterlimit="10" font-family="ArialMT, Arial" style="isolation: isolate">i</text>
      <text transform="translate(150.38 310.99) rotate(10.34)" font-size="12" fill="#040000" stroke="#000" stroke-miterlimit="10" font-family="ArialMT, Arial" style="isolation: isolate">d</text>
      <text transform="translate(156.56 312.11) rotate(7.48)" font-size="11.98" fill="#040000" stroke="#000" stroke-miterlimit="10" font-family="ArialMT, Arial" style="isolation: isolate">i</text>
      <text transform="matrix(1, 0.09, -0.09, 1, 162.77, 312.94)" font-size="12" fill="#040000" stroke="#000" stroke-miterlimit="10" font-family="ArialMT, Arial" style="isolation: isolate">d</text>
      <text transform="translate(169.03 313.48) rotate(2.35)" font-size="12" fill="#040000" stroke="#000" stroke-miterlimit="10" font-family="ArialMT, Arial" style="isolation: isolate">u</text>
      <text transform="translate(175.29 313.73) rotate(-0.31)" font-size="12" fill="#040000" stroke="#000" stroke-miterlimit="10" font-family="ArialMT, Arial" style="isolation: isolate">n</text>
      <text transform="translate(181.57 313.69) rotate(-2.86)" font-size="12.01" fill="#040000" stroke="#000" stroke-miterlimit="10" font-family="ArialMT, Arial" style="isolation: isolate">t</text>
      <text transform="translate(194.07 312.74) rotate(-8.25)" font-size="12" fill="#040000" stroke="#000" stroke-miterlimit="10" font-family="ArialMT, Arial" style="isolation: isolate">u</text>
      <text transform="translate(200.27 311.83) rotate(-10.89)" font-size="12" fill="#040000" stroke="#000" stroke-miterlimit="10" font-family="ArialMT, Arial" style="isolation: isolate">t</text>
      <text transform="translate(212.51 309.17) rotate(-16.14)" font-size="12" fill="#040000" stroke="#000" stroke-miterlimit="10" font-family="ArialMT, Arial" style="isolation: isolate">l</text>
      <text transform="translate(218.53 307.43) rotate(-18.76)" font-size="12" fill="#040000" stroke="#000" stroke-miterlimit="10" font-family="ArialMT, Arial" style="isolation: isolate">a</text>
      <text transform="matrix(0.93, -0.36, 0.36, 0.93, 224.47, 305.4)" font-size="12" fill="#040000" stroke="#000" stroke-miterlimit="10" font-family="ArialMT, Arial" style="isolation: isolate">b</text>
      <text transform="translate(230.31 303.11) rotate(-24.02)" font-size="12" fill="#040000" stroke="#000" stroke-miterlimit="10" font-family="ArialMT, Arial" style="isolation: isolate">o</text>
      <text transform="matrix(0.89, -0.45, 0.45, 0.89, 236.03, 300.55)" font-size="12" fill="#040000" stroke="#000" stroke-miterlimit="10" font-family="ArialMT, Arial" style="isolation: isolate">r</text>
      <text transform="matrix(0.87, -0.49, 0.49, 0.87, 241.63, 297.74)" font-size="12" fill="#040000" stroke="#000" stroke-miterlimit="10" font-family="ArialMT, Arial" style="isolation: isolate">e</text>
      <text transform="matrix(0.82, -0.57, 0.57, 0.82, 252.42, 291.35)" font-size="12" fill="#040000" stroke="#000" stroke-miterlimit="10" font-family="ArialMT, Arial" style="isolation: isolate">e</text>
      <text transform="translate(257.57 287.79) rotate(-37.18)" font-size="12" fill="#040000" stroke="#000" stroke-miterlimit="10" font-family="ArialMT, Arial" style="isolation: isolate">t</text>
      <text transform="matrix(0.74, -0.68, 0.68, 0.74, 267.4, 279.96)" font-size="12.06" fill="#040000" stroke="#000" stroke-miterlimit="10" font-family="ArialMT, Arial" style="isolation: isolate">d</text>
      <text transform="translate(272.01 275.72) rotate(-45)" font-size="12.05" fill="#040000" stroke="#000" stroke-miterlimit="10" font-family="ArialMT, Arial" style="isolation: isolate">o</text>
      <text transform="matrix(0.67, -0.74, 0.74, 0.67, 276.42, 271.28)" font-size="12" fill="#040000" stroke="#000" stroke-miterlimit="10" font-family="ArialMT, Arial" style="isolation: isolate">l</text>
      <text transform="translate(280.63 266.62) rotate(-50.47)" font-size="12" fill="#040000" stroke="#000" stroke-miterlimit="10" font-family="ArialMT, Arial" style="isolation: isolate">o</text>
      <text transform="matrix(0.6, -0.8, 0.8, 0.6, 284.62, 261.79)" font-size="12" fill="#040000" stroke="#000" stroke-miterlimit="10" font-family="ArialMT, Arial" style="isolation: isolate">r</text>
      <text transform="translate(288.38 256.76) rotate(-55.78)" font-size="12" fill="#040000" stroke="#000" stroke-miterlimit="10" font-family="ArialMT, Arial" style="isolation: isolate">e</text>
      <text transform="translate(295.18 246.23) rotate(-61.39)" font-size="12.03" fill="#040000" stroke="#000" stroke-miterlimit="10" font-family="ArialMT, Arial" style="isolation: isolate">m</text>
      <text transform="translate(298.21 240.74) rotate(-63.95)" font-size="12.02" fill="#040000" stroke="#000" stroke-miterlimit="10" font-family="ArialMT, Arial" style="isolation: isolate">a</text>
      <text transform="translate(301.01 235.13) rotate(-66.93)" font-size="12" fill="#040000" stroke="#000" stroke-miterlimit="10" font-family="ArialMT, Arial" style="isolation: isolate">g</text>
      <text transform="translate(303.49 229.4) rotate(-68.84)" font-size="11.97" fill="#040000" stroke="#000" stroke-miterlimit="10" font-family="ArialMT, Arial" style="isolation: isolate">n</text>
      <text transform="matrix(0.32, -0.95, 0.95, 0.32, 305.74, 223.55)" font-size="12" fill="#040000" stroke="#000" stroke-miterlimit="10" font-family="ArialMT, Arial" style="isolation: isolate">a</text>
      <text transform="translate(309.44 211.58) rotate(-76.76)" font-size="12" fill="#040000" stroke="#000" stroke-miterlimit="10" font-family="ArialMT, Arial" style="isolation: isolate">a</text>
      <text transform="matrix(0.18, -0.98, 0.98, 0.18, 310.87, 205.46)" font-size="12" fill="#040000" stroke="#000" stroke-miterlimit="10" font-family="ArialMT, Arial" style="isolation: isolate">l</text>
      <text transform="translate(312.01 199.3) rotate(-82.08)" font-size="12" fill="#040000" stroke="#000" stroke-miterlimit="10" font-family="ArialMT, Arial" style="isolation: isolate">i</text>
      <text transform="translate(312.87 193.08) rotate(-84.74)" font-size="12" fill="#040000" stroke="#000" stroke-miterlimit="10" font-family="ArialMT, Arial" style="isolation: isolate">q</text>
      <text transform="translate(313.44 186.84) rotate(-87.14)" font-size="12.01" fill="#040000" stroke="#000" stroke-miterlimit="10" font-family="ArialMT, Arial" style="isolation: isolate">u</text>
      <text transform="matrix(0, -1, 1, 0, 313.72, 180.58)" font-size="12" fill="#040000" stroke="#000" stroke-miterlimit="10" font-family="ArialMT, Arial" style="isolation: isolate">a</text>
      <text transform="translate(313.4 168.04) rotate(-95.36)" font-size="12" fill="#040000" stroke="#000" stroke-miterlimit="10" font-family="ArialMT, Arial" style="isolation: isolate">U</text>
      <text transform="translate(312.81 161.79) rotate(-98)" font-size="12" fill="#040000" stroke="#000" stroke-miterlimit="10" font-family="ArialMT, Arial" style="isolation: isolate">t</text>
      <text transform="translate(310.77 149.43) rotate(-103.27)" font-size="12" fill="#040000" stroke="#000" stroke-miterlimit="10" font-family="ArialMT, Arial" style="isolation: isolate">e</text>
      <text transform="matrix(-0.27, -0.96, 0.96, -0.27, 309.32, 143.33)" font-size="12" fill="#040000" stroke="#000" stroke-miterlimit="10" font-family="ArialMT, Arial" style="isolation: isolate">n</text>
      <text transform="matrix(-0.32, -0.95, 0.95, -0.32, 307.6, 137.3)" font-size="12" fill="#040000" stroke="#000" stroke-miterlimit="10" font-family="ArialMT, Arial" style="isolation: isolate">i</text>
      <text transform="translate(305.6 131.36) rotate(-111.15)" font-size="12" fill="#040000" stroke="#000" stroke-miterlimit="10" font-family="ArialMT, Arial" style="isolation: isolate">m</text>
      <text transform="translate(300.81 119.78) rotate(-116.05)" font-size="12.02" fill="#040000" stroke="#000" stroke-miterlimit="10" font-family="ArialMT, Arial" style="isolation: isolate">a</text>
      <text transform="translate(298.01 114.16) rotate(-119.02)" font-size="12" fill="#040000" stroke="#000" stroke-miterlimit="10" font-family="ArialMT, Arial" style="isolation: isolate">d</text>
    <path d="M63.07,126.25a124.74,124.74,0,1,1-2.49,95.41A124.73,124.73,0,0,1,63.07,126.25ZM290.16,227.37a123.91,123.91,0,1,0-163.6,62.8A123.9,123.9,0,0,0,290.16,227.37Z" transform="translate(0.66 0.67)" fill="#040000" stroke="#000" stroke-miterlimit="10"/>
    <path d="M65.33,127.27a122.2,122.2,0,1,1-2.45,93.49A122.2,122.2,0,0,1,65.33,127.27ZM287.14,226a120.6,120.6,0,1,0-159.23,61.12A120.6,120.6,0,0,0,287.14,226Z" transform="translate(0.66 0.67)" fill="#040000" stroke="#000" stroke-miterlimit="10"/>
    <path d="M80.74,246.56,164.29,58.9l.41.56L285.07,225.09ZM164.46,60.49,82.07,245.62l201.55-21.18Z" transform="translate(0.66 0.67)" fill="#040000" stroke="#000" stroke-miterlimit="10"/>
    <path d="M68.53,128.69l204.29-21.47L189.27,294.88Zm203-20.53L70,129.34l119.08,164Z" transform="translate(0.66 0.67)" fill="#040000" stroke="#000" stroke-miterlimit="10"/>
    <path d="M207.74,267.24l-1.15,2.95q2.73-.87,5.43-1.9A97.1,97.1,0,0,0,256.5,234l-3.12.18A95.52,95.52,0,0,1,207.74,267.24Zm35.2-162.55a98.78,98.78,0,0,0-56.41-25.12l1.73,2.65a95.43,95.43,0,0,1,51.56,23Zm25.34,37.23c-.67-1.8-1.4-3.57-2.21-5.3l-1.43,2.82a95.39,95.39,0,0,1,5.93,56.07l2,2.44a97.14,97.14,0,0,0-4.29-56Zm-97.6,137.46L169,276.81a100.2,100.2,0,0,1-60.92-27.11l-3,.47a103.26,103.26,0,0,0,65.61,29.21Zm75.14-175.13,3-.47a103.22,103.22,0,0,0-65.61-29.22l1.68,2.58a100.09,100.09,0,0,1,60.89,27.11ZM146.19,86.71l1.14-3q-2.72.87-5.42,1.9A97.07,97.07,0,0,0,97.43,120l3.12-.18A95.46,95.46,0,0,1,146.19,86.71ZM85.64,212c.69,1.79,1.44,3.56,2.22,5.3l1.43-2.83a95.39,95.39,0,0,1-5.93-56.07l-2-2.44A97.18,97.18,0,0,0,85.64,212Zm-6.09-58.34-1.9-2.36a101.82,101.82,0,0,0,3.57,62.39q1.77,4.6,3.94,9l1.39-2.76a100.19,100.19,0,0,1-7-66.24Zm194.83,46.56,1.9,2.36a101.82,101.82,0,0,0-3.57-62.39q-1.77-4.6-3.94-9L267.38,134a100.21,100.21,0,0,1,7,66.25ZM148.39,81l1.12-2.87q-4.69,1.31-9.3,3.07a101.73,101.73,0,0,0-48.75,39.09l3-.17A100.23,100.23,0,0,1,148.39,81Zm19,193.34-1.73-2.64a95.61,95.61,0,0,1-51.56-23l-3.13.48a98.85,98.85,0,0,0,56.42,25.12Zm95.07-40.75-3,.17a100.23,100.23,0,0,1-53.91,39.12l-1.12,2.88q4.69-1.32,9.3-3.08a101.75,101.75,0,0,0,48.74-39.06Z" transform="translate(0.66 0.67)" fill="#040000" stroke="#000" stroke-miterlimit="10"/>
    </clipPath>
    </defs>
</svg>
